<svg xmlns="http://www.w3.org/2000/svg" xml:space="preserve" width="48" height="48" viewBox="0 0 36 36"><defs><clipPath id="a"><path stroke-width="0" d="M48 24a24 24 0 0 1-24 24A24 24 0 0 1 0 24 24 24 0 0 1 24 0a24 24 0 0 1 24 24z" /></clipPath></defs><g stroke-width=".069" clip-path="url(#a)" transform="scale(.75)"><path fill="#898a84" d="M0 0h48v48H0z"/><path d="m22.865 10.884-.079.073-.374.34c-.123.111-.253.24-.382.377a9.073 9.073 0 0 0-.376.426 7.2 7.2 0 0 0-.321.416 2.89 2.89 0 0 0-.22.35 1.774 1.774 0 0 0-.155.426 2.059 2.059 0 0 0-.054.465 2.327 2.327 0 0 0 .196.955 3.21 3.21 0 0 0 .375.65c.084.113.182.233.3.369.118.135.256.286.421.46.112.12.205.222.282.314.077.091.138.171.184.243.047.072.08.136.1.195a.505.505 0 0 1 .001.345.606.606 0 0 1-.09.163.89.89 0 0 1-.15.152 1.283 1.283 0 0 1-.207.138.603.603 0 0 1-.203.082 2.137 2.137 0 0 1-.337.014 3.11 3.11 0 0 1-.265-.009 1.238 1.238 0 0 1-.411-.108 3.225 3.225 0 0 1-.239-.123 1.786 1.786 0 0 1-.221-.151 3.43 3.43 0 0 1-.454-.43 1.49 1.49 0 0 1-.152-.202 4.476 4.476 0 0 1-.26-.625 6.736 6.736 0 0 0-.152-.41c-.05-.121-.1-.228-.153-.324a2.235 2.235 0 0 0-.534-.65 1.304 1.304 0 0 0-.16-.115.824.824 0 0 0-.153-.073.606.606 0 0 0-.304-.024.712.712 0 0 0-.155.049 1.073 1.073 0 0 0-.16.089c-.056.036-.112.08-.17.13l-.169.143.143.06c.096.04.238.115.377.2.14.084.278.176.367.248a1.095 1.095 0 0 1 .23.255c.069.101.128.217.175.345.034.09.1.371.159.647.058.275.108.545.108.616 0 .021.007.043.029.07a.66.66 0 0 0 .118.103c.119.088.327.219.685.439.313.192.586.352.795.465.209.114.352.182.404.188.091.012.174.03.263.06.09.029.187.07.309.127.137.065.33.154.428.197a1.011 1.011 0 0 1 .27.185c.027.03.056.076.087.134.032.059.065.13.1.213.068.165.142.372.215.603a12.78 12.78 0 0 1 .372 1.5c.025.14.044.319.058.516a10.622 10.622 0 0 1 .008 1.247c-.01.191-.027.361-.05.49-.043.239-.09.46-.144.663a5.3 5.3 0 0 1-.172.546c-.062.16-.127.3-.196.416-.034.058-.07.11-.105.156a1.099 1.099 0 0 1-.297.264.718.718 0 0 1-.239.08c-.103.019-.237.03-.424.04a39.43 39.43 0 0 1-.746.021 66.61 66.61 0 0 0-1.209.035 23.11 23.11 0 0 0-.851.051.906.906 0 0 0-.204.027c-.015.006-.022.013-.025.024a.09.09 0 0 0 .004.04c.009.04.03.2.048.356l.116.984.118 1.002a375.39 375.39 0 0 0 .369 3.07 514.75 514.75 0 0 0 .351 2.828l.023.192h-.215c-.165 0-.763.04-1.454.093s-1.475.12-2.01.174a76.83 76.83 0 0 0-3.236.395 64.663 64.663 0 0 0-4.732.838 60.863 60.863 0 0 0-3.082.724 74.21 74.21 0 0 0-1.564.428c-.547.156-1.28.38-1.932.586-.652.206-1.223.396-1.447.484a.086.086 0 0 1-.041.007C.008 38.434 0 38.429 0 38.42V48h48v-9.583c0 .004-.005.006-.014.006a.577.577 0 0 1-.118-.024c-.122-.033-.332-.1-.65-.206a76.236 76.236 0 0 0-3.25-.992l-.335-.09a53.827 53.827 0 0 0-1.684-.434 86.79 86.79 0 0 0-1.986-.455 32.194 32.194 0 0 1-.368-.082 80.393 80.393 0 0 0-2.686-.499l-.818-.13a64.82 64.82 0 0 0-3.112-.423 80.53 80.53 0 0 0-1.658-.17c-.567-.052-1.15-.1-1.751-.144a18.971 18.971 0 0 1-.928-.08c-.006-.006.01-.16.037-.342.028-.18.074-.51.102-.73a251.475 251.475 0 0 0 .467-3.787c.054-.446.101-.852.234-2.02.078-.68.112-.964.182-1.512a.897.897 0 0 0 .012-.176c-.004-.034-.015-.047-.037-.056a19.91 19.91 0 0 0-1.069-.013c-.58 0-1.274.004-1.756.013a3.052 3.052 0 0 1-.398-.006.695.695 0 0 1-.227-.075 1.133 1.133 0 0 1-.45-.375 1.549 1.549 0 0 1-.159-.287 2.435 2.435 0 0 1-.12-.36 5.749 5.749 0 0 1-.096-.584 40.687 40.687 0 0 1-.124-1.107c-.09-.904-.197-2.132-.314-3.638-.02-.256-.049-.587-.063-.734a1.479 1.479 0 0 1-.012-.222c.003-.046.014-.068.034-.084.03-.024.132-.07.306-.139.175-.068.42-.16.739-.272a9.7 9.7 0 0 0 .587-.23c.177-.076.336-.153.479-.23.142-.079.268-.158.379-.24a2.2 2.2 0 0 0 .29-.252 2.88 2.88 0 0 1 .388-.34 2.218 2.218 0 0 1 .408-.228 1.753 1.753 0 0 1 .42-.116 1.549 1.549 0 0 1 .425.001 2.3 2.3 0 0 1 .255.054 2.929 2.929 0 0 1 .496.176.666.666 0 0 1 .148.09c.024.022.038.032.049.024.01-.008.017-.033.026-.08a1.22 1.22 0 0 0-.007-.502.879.879 0 0 0-.08-.212.61.61 0 0 0-.125-.163.887.887 0 0 0-.11-.087.452.452 0 0 0-.107-.052.589.589 0 0 0-.129-.025 1.65 1.65 0 0 0-.546.046c-.137.033-.284.08-.435.138a4.437 4.437 0 0 0-.893.472 8.296 8.296 0 0 1-.577.372c-.17.097-.324.17-.474.225a2.138 2.138 0 0 1-.457.11c-.16.022-.33.03-.527.028a4.038 4.038 0 0 1-.435-.018 1.713 1.713 0 0 1-.316-.071 5.386 5.386 0 0 1-.537-.208c-.18-.08-.33-.156-.347-.184-.01-.017.015-.144.064-.334.05-.19.122-.443.206-.71.114-.361.204-.654.275-.902a9 9 0 0 0 .16-.629 4.16 4.16 0 0 0 .076-.495c.014-.158.019-.317.019-.5 0-.262-.002-.414-.013-.53a1.322 1.322 0 0 0-.065-.305 3.242 3.242 0 0 0-.618-1.148l-.18-.218-.057.382c-.032.211-.072.383-.089.383s-.27-.179-.561-.398z"/><path fill="#ff0" d="M23.43 13.914a.434.434 0 0 0-.117.02.085.085 0 0 0-.04.029.06.06 0 0 0-.011.038c0 .014.005.028.015.041a.13.13 0 0 0 .041.037.284.284 0 0 0 .098.027.894.894 0 0 0 .271-.006.24.24 0 0 0 .09-.032c.028-.02.042-.033.045-.047.002-.015-.006-.03-.025-.053-.012-.013-.04-.025-.079-.034a1.131 1.131 0 0 0-.288-.02zm-1.138 0a.885.885 0 0 0-.214.02.077.077 0 0 0-.04.034.09.09 0 0 0 .004.095c.01.014.023.024.042.029a.953.953 0 0 0 .202.018.888.888 0 0 0 .198-.016.104.104 0 0 0 .051-.03.088.088 0 0 0 .022-.047.075.075 0 0 0-.009-.048.08.08 0 0 0-.042-.034.888.888 0 0 0-.214-.02z"/></g></svg>