<svg xmlns="http://www.w3.org/2000/svg" fill="#6a6a6d" width="250" viewBox="0 0 300 395.65"><path d="M157.88 387.64c-.046-.042-.962-.137-2.034-.211-1.073-.075-2.214-.177-2.537-.229l-1.297-.206c-.675-.107-2.97-.74-5.175-1.43-.558-.173-1.38-.36-1.826-.414-.446-.055-.901-.187-1.01-.294-.31-.306.162-.88.829-1.006.583-.11.582-.113-.174-.263-.938-.186-.975-.545-.152-1.483.569-.648.609-.663.615-.23.004.256.233.722.51 1.037.403.458.731.597 1.629.69 1.027.106 1.134.078 1.238-.32.068-.262.275-.435.52-.435.323 0 .386.103.308.507-.053.279-.018.507.078.507.28 0 .203-1.215-.079-1.243a45.65 45.65 0 0 0-1.634-.055c-1.5-.034-1.839-.262-1.63-1.097.092-.363.02-.496-.312-.583-.237-.062-.431-.19-.431-.286 0-.148.96-1.337 2.2-2.722.2-.223.52-.657.71-.964.19-.307.48-.558.645-.558s.3-.07.3-.155c0-.216 2.86-.824 4.515-.96 1-.083 1.527-.032 1.957.19.324.168.958.364 1.41.436.683.11 1.024.355 2 1.444 1.348 1.503 2.07 3.003 2.078 4.321.008 1.043-.218 1.513-.74 1.543-.2.012-1.276.217-2.392.456-1.116.239-2.212.428-2.435.42-1.411-.045-3.08.081-3.531.268-.29.121-.899.247-1.351.28-1.971.146-1.834.38.555.942 1.263.297 2.89.588 3.616.645.726.058 1.593.16 1.928.228 1.098.22 4.833.168 6.697-.094 1.004-.14 2.1-.284 2.435-.319s1.03-.161 1.545-.283c.516-.12 1.255-.208 1.643-.193.388.014.81-.039.94-.119.13-.08.235-.064.235.034s.662-.036 1.47-.3c.834-.272 1.912-.47 2.487-.458.558.012 1.608-.129 2.333-.313.726-.184 1.502-.36 1.725-.393l1.32-.186 3.043-.428c2.446-.344 8.375-.483 11.06-.258 7.492.627 11.486.817 16.15.767 1.74-.019 3.52-.117 3.957-.218a9.07 9.07 0 0 1 1.654-.19c.83-.005 1.505-.131 3.923-.736 1.284-.322 1.61-.348 1.61-.13 0 .396-2.705 1.159-6.697 1.888-2.619.479-10.895.339-20.394-.344-3.038-.218-7.055-.161-9.842.14-1.172.127-2.519.27-2.994.317-.474.047-1.753.273-2.84.5-1.089.228-2.664.499-3.5.601s-1.98.283-2.537.4c-.558.117-1.654.297-2.435.4s-2.996.422-4.922.705c-3.027.446-6.701.678-6.967.44zm111.53-.255c-3.021-.404-7.027-.628-7.643-.427-.64.209-5.235.1-5.611-.132-.144-.089-.795-.176-1.447-.194-.774-.02-1.318-.148-1.563-.366-.207-.183-.884-.49-1.505-.684-.62-.193-1.488-.61-1.927-.928-2.023-1.458-3.442-1.828-4.581-1.193-.294.164-1.52.96-2.722 1.77-2.918 1.964-4.23 2.368-7.185 2.209-1.177-.063-2.688-.21-3.358-.325-1.97-.339-5.365-.556-6.267-.4-.459.079-1.132.211-1.495.293-1.032.234-.792-.2.393-.71.97-.417 1.272-.444 3.906-.347 1.57.057 3.54.224 4.377.37 1.94.34 4.529.288 5.716-.115 1.113-.378 2.291-1.057 3.923-2.261 3.179-2.346 4.726-2.455 7.396-.521.476.344 1.365.813 1.976 1.042.611.228 1.364.546 1.674.706.662.343 3.534.772 4.985.746 6.012-.108 10.124-.016 11.668.262.948.17 2.024.312 2.39.315.8.005 1.083.498.527.92-.446.338-.905.334-3.628-.03zm-138.4-1.714-2.373-.267c-1.497-.17-2.346-.614-2.736-1.431-.214-.449-.488-.721-.725-.721-.528 0-1.167-.369-1.167-.673 0-.139.188-.387.418-.551.23-.164.68-.755 1.001-1.313.32-.558.84-1.171 1.155-1.363.314-.191.982-.725 1.484-1.187s1.106-.914 1.34-1.006c.787-.305 5.119.049 5.802.475.258.16.777.349 1.154.419.496.09 1.07.52 2.068 1.546.76.781 1.475 1.42 1.59 1.42.562 0 .862 2.025.421 2.848-.567 1.06-2.984 1.813-5.678 1.77-.837-.015-1.704.024-1.927.083s-1.046.038-1.827-.05zm-1.153-1.557c.043-.303.204-.457.479-.457.34 0 .39.09.286.508-.073.292-.04.507.08.507.113 0 .207-.263.207-.585 0-.822-.394-.909-2.462-.543-.643.114-.818.05-1.374-.507-.374-.374-.762-.59-.938-.522-.432.166-.375.366.294 1.046.999 1.017 1.096 1.061 2.247 1.035.994-.023 1.123-.075 1.181-.482zm-37.404 1.16c-.781-.087-3.52-.182-6.087-.212-2.568-.029-4.896-.116-5.175-.193l-.507-.14.599-.242c.605-.245 3.334-.27 15.534-.144 2.957.03 6.382-.025 7.61-.123 3.427-.274 10.247-.311 10.247-.056 0 .118-.132.405-.295.636-.282.403-.435.418-3.399.333-3.612-.104-3.287-.111-5.234.12-.837.1-1.713.11-1.945.02-.233-.087-.525-.096-.65-.019-.319.197-8.97.213-10.697.02zm182.46-3.783c-.1-.1-3.486-.366-7.337-.576-2.308-.126-5.415-.474-5.563-.622-.45-.45 1.628-.467 9.621-.083 4.407.212 7.646.183 12.38-.11.446-.028 1.359-.165 2.029-.305.67-.14 1.81-.285 2.536-.323 1.95-.1 4.516-.4 4.92-.574.504-.218.68.385.287.985-.304.464-.446.49-3.32.611-1.652.07-3.286.218-3.632.328-.345.11-1.395.252-2.333.314l-3.024.205c-1.479.102-6.497.217-6.563.15zm-17.967-1.131c-.524-1.413-.66-3.195-.457-5.948.114-1.55.187-2.839.161-2.865-.025-.025-.545.2-1.155.502-.95.47-1.355.547-2.834.538-1.404-.009-1.934-.107-2.85-.528-2.45-1.126-3.572-2.812-4.342-6.529-.555-2.675-.846-3.326-2.085-4.66-1.116-1.204-.993-1.433.961-1.782 4.562-.815 9.833 2.674 12.16 8.05.333.77.61 1.31.614 1.198.026-.661.678-4.216.928-5.059.605-2.045.289-7.825-.523-9.551-.21-.447-.522-1.634-.693-2.638-.258-1.51-.558-2.32-1.731-4.668-3.093-6.188-6.828-10.209-13.904-14.967-4.213-2.832-6.596-4.652-8.293-6.333-3.906-3.87-6.018-8.22-6.01-12.381.003-1.893.164-2.473.636-2.292.573.221 3.603 2.809 4.617 3.944 2.647 2.962 3.466 6.61 2.144 9.555l-.478 1.065 1.456 1.225c.8.675 2.905 2.239 4.676 3.477 8.208 5.738 12.572 10.18 15.564 15.844l.977 1.85.132-.798c.36-2.18.569-2.95 1.1-4.058.605-1.262 1.152-1.848 3.163-3.39 2.994-2.295 4.983-3.16 10.613-4.611.742-.192.854-.287.744-.633-.201-.633.862-2.586 2.031-3.731 2.297-2.25 5.087-3.162 9.644-3.152 2.754.006 4.93.202 5.197.469.26.26-.205.991-1.226 1.924-1.846 1.688-5.709 3.299-11.073 4.62l-2.334.573.71.29c2.684 1.095 6.606 1.392 8.911.675 3.563-1.11 6.12-4.21 6.482-7.86l.158-1.598.165.98c.117.699.07 1.36-.166 2.316-1.053 4.268-5.117 7.142-10.111 7.152-1.906.004-3.15-.233-5.561-1.058l-1.848-.632-1.5.365c-7.792 1.891-12.21 5.302-13.272 10.246-.138.644-.124.673.18.37.18-.182.329-.428.329-.547 0-.12.09-.218.203-.218.111 0 .202-.146.202-.326 0-.214.11-.284.322-.203.176.068.359.123.405.123.047 0 .085.097.085.215s-.091.159-.203.09c-.118-.073-.203.128-.203.482 0 .334-.09.845-.2 1.136-.172.452-.261.497-.61.31-.224-.12-.414-.146-.422-.058a7.04 7.04 0 0 1-.148.666c-.303 1.157-.133 4.781.323 6.9.253 1.172.507 3.044.566 4.16.164 3.113.22 3.348.804 3.348.405 0 .48.085.411.457a9.447 9.447 0 0 0-.1.632c-.009.097-.198.128-.42.07-.224-.058-.457-.023-.52.078-.062.1.11.184.384.184s.54.114.593.253c.167.446-.159 3.027-.487 3.852-.12.305-.17.684-.11.843.062.159.05.35-.027.426a.517.517 0 0 0-.145.274c-.004.074-.295.729-.645 1.454-.705 1.456-1.142 3.99-1.395 8.067-.138 2.23-.327 2.747-.669 1.826zm-1.861-8.89c1.628-.739 1.62-.777-.337-1.712-2.267-1.082-3.718-2.276-5.483-4.512-.773-.979-1.627-1.883-1.897-2.01a34.127 34.127 0 0 0-.998-.442c-.475-.2-.457-.214.294-.227.73-.013.903.097 1.928 1.225 2.964 3.26 4.171 4.34 5.694 5.097.836.416 1.794.816 2.13.889l.608.133-.733-.787c-.403-.433-1.166-1.468-1.696-2.3-.53-.831-1.309-1.927-1.73-2.435-.423-.507-.828-1.121-.9-1.364-.205-.681-1.654-1.874-3.095-2.548-1.388-.65-3.288-.929-4.62-.679l-.738.139.525.625c.854 1.014 1.296 2.064 1.84 4.365 1.155 4.889 3.194 6.914 6.987 6.942.906.007 1.601-.118 2.22-.4zm20.23-37.736c5.563-1.14 9.064-2.404 11.288-4.074 2.246-1.689 2.225-1.737-.854-1.908-5.338-.297-8.671.621-11.072 3.049-1.082 1.093-1.855 2.507-1.655 3.027.148.385-.095.395 2.293-.094zm-41.211-10.648c.574-1.505.34-3.786-.579-5.627-.406-.812-1.118-1.918-1.584-2.456-.873-1.008-3.935-3.587-4.26-3.587-.328 0-.192 2.535.223 4.178.223.883.729 2.264 1.123 3.069.727 1.482 2.7 4.291 3.528 5.025l.453.4-.135-.603c-.54-2.428-1.201-4.026-2.368-5.727-.325-.475-.496-.863-.38-.863.688 0 2.698 3.863 3.093 5.945.138.732.317 1.29.395 1.242.08-.049.3-.497.49-.996zm-102.3 48.376c-.045-.072-.836-.187-1.76-.256-4.551-.34-5.413-.698-7.981-3.308-.83-.843-1.51-1.585-1.51-1.647 0-.063-.282-.696-.629-1.406-.752-1.545-1.045-3.29-1.025-6.096.01-1.144-.05-2.08-.129-2.08-.134 0-.22-.623-.252-1.827a5.089 5.089 0 0 0-.202-1.116 11.19 11.19 0 0 1-.304-1.42c-.064-.447-.165-.949-.225-1.116-.107-.297-.327-5.217-.32-7.167.003-.954-.006-.968-.39-.621-.216.196-.778.411-1.249.479-.47.067-.839.211-.82.32.052.292-5.178.368-5.525.08-.151-.126-.366-.172-.478-.103-.295.182-1.006-.483-1.466-1.372-.577-1.116-.663-2.092-.673-7.647-.01-4.818.216-7.578.761-9.335.122-.39.196-.92.166-1.178-.03-.257.054-.6.188-.76.186-.224.187-.294.004-.294-.132 0-.196-.071-.142-.157.085-.14.253-1.914.444-4.713.071-1.038.234-2.452.385-3.349.056-.335.16-1.293.228-2.13.07-.838.17-1.594.224-1.681.054-.088.138-.636.185-1.218.048-.582.174-1.652.28-2.378.107-.725.25-1.912.319-2.638a17.2 17.2 0 0 1 .635-3.323c.082-.281.04-.337-.164-.214-.232.14-.232.112-.002-.172.15-.186.274-.66.274-1.054s.08-.716.177-.716c.099 0 .103-.202.01-.456-.37-1 .415-7.98.959-8.523.128-.128.233-.487.233-.796 0-.309.178-.878.395-1.265l.395-.703-1.054-.604c-1.463-.839-3.794-2.832-3.793-3.242.002-.518 1.812-2.78 2.825-3.53 1.95-1.446 2.369-1.707 2.608-1.628.557.186.39.39-2.177 2.654-.337.297-.88.964-1.206 1.482l-.593.942 1.554 1.093c.854.601 1.828 1.228 2.163 1.392.334.164.776.506.981.76.206.253.662.606 1.015.784.353.178 1.144.701 1.758 1.163 1.127.847 1.676 1.21 2.232 1.475.422.201 3.035 1.87 3.653 2.332.967.724 2.743 1.876 3.627 2.352 2.592 1.396 6.59 4.68 8.101 6.652.257.335.759 1.225 1.116 1.978.358.753.748 1.369.868 1.37.682.002 1.787-.866 2.838-2.232 1.04-1.352 4.507-4.925 6.098-6.285 1.03-.88 2.666-2.123 3.345-2.542l1.358-.84c.386-.238.918-.669 1.185-.955s.917-.766 1.447-1.064a57.88 57.88 0 0 0 1.978-1.179l1.42-.892c.37-.232 1.606-.882 3.602-1.892.419-.212.761-.476.761-.587 0-.11.16-.204.355-.207.425-.008 1.066-.462 1.066-.755 0-.116.138-.263.307-.328.42-.161-.678-1.587-2.378-3.09-1.741-1.538-1.93-1.593-2.803-.818a15.9 15.9 0 0 1-1.481 1.142c-.479.316-.812.72-.886 1.071-.066.316-.517.915-1.023 1.36-.938.826-1.002 1.314-.145 1.099.728-.183.608.13-.437 1.145-.513.498-1.012 1.108-1.11 1.356-.203.52-2.546 1.759-5.337 2.824-1.005.383-1.952.876-2.106 1.095-.154.22-.41.399-.572.399-.161 0-.293.091-.293.203 0 .112-.137.203-.304.203s-.305.122-.305.272c0 .325-1.673 1.765-2.418 2.081-.288.123-.65.374-.803.558-.153.185-.404.336-.558.336-.153 0-.28.085-.28.189s-.187.249-.416.321c-.23.073-.383.237-.34.365.127.38-.572.973-1.354 1.15-.417.093-.73.086-.73-.017 0-.1-.13-.182-.289-.182-.158 0-.638-.342-1.065-.761-.428-.418-1.051-.895-1.386-1.058-.335-.163-1.08-.688-1.655-1.167s-1.136-.87-1.244-.87c-.108 0-.31-.137-.449-.304-.14-.167-.455-.304-.703-.304-.884 0-3.686-.83-5.164-1.531-3.837-1.818-6.64-4.748-8.291-8.664-.46-1.094-.537-1.568-.545-3.401-.009-1.883.052-2.262.519-3.256.51-1.088 1.684-2.63 2.003-2.63.086 0 .373.32.639.71.265.39.597.709.736.71.14 0 .254.07.254.153.002.289 1.37.255 1.615-.04.354-.427.868-.174.613.301-.11.205-.195.447-.191.538.005.09.153-.102.33-.428.294-.544.293-.614-.013-.837-.183-.134-.775-.302-1.317-.374-.772-.102-1.1-.27-1.518-.775-.294-.354-.534-.71-.534-.792 0-.08-.315-.342-.7-.58-.386-.238-.83-.68-.986-.98a40.866 40.866 0 0 0-1.033-1.765c-1.061-1.73-1.405-3.067-1.3-5.055.122-2.317.687-3.433 3.024-5.972 1.044-1.134 1.97-2.062 2.058-2.062.132 0 1.47 1.206 3.432 3.09.2.192.603.41.894.482.29.073.577.258.635.411.06.153.33.279.603.279.273 0 .782.148 1.133.33.59.304.684.304 1.269-.011.489-.264.754-.293 1.179-.132.568.216.735.723.293.888-.17.063-.134.144.11.245.44.182.49.138.58-.503.056-.39-.062-.567-.529-.793-.33-.16-.846-.299-1.147-.31-.3-.01-.508-.08-.462-.157.047-.075-.11-.2-.35-.275-.257-.081-.495-.04-.583.104-.108.174-.184.152-.273-.08-.068-.177-.26-.321-.428-.321-.51 0-2.443-.93-3-1.444-2.855-2.63-2.97-2.769-2.659-3.212.163-.233.587-.554.942-.714 1.312-.59 1.362-.693 1.347-2.771-.028-3.716.041-4.909.307-5.333.18-.287.233-.815.162-1.613-.069-.765-.169-1.09-.28-.913-.122.192-.174.12-.176-.245-.002-.284-.088-.604-.192-.71-.104-.106-.292-.969-.419-1.918-.761-5.694-3.77-10.424-8.553-13.449a42.448 42.448 0 0 0-2.508-1.427c-1.38-.719-8.93-4.198-9.11-4.198-.18 0-10.197-4.966-11.283-5.593-.614-.354-1.459-.755-1.878-.89-.418-.135-.76-.32-.76-.41 0-.09-.49-.362-1.09-.605a15.11 15.11 0 0 1-2.17-1.154 15.417 15.417 0 0 0-2.213-1.172 12.61 12.61 0 0 1-2.141-1.182c-.556-.397-1.352-.864-1.77-1.037-.417-.172-1.102-.585-1.522-.917-.42-.332-1.722-1.12-2.894-1.749s-2.272-1.31-2.446-1.512c-.174-.202-.493-.424-.71-.493-.217-.069-.652-.364-.966-.655-.314-.292-.622-.48-.684-.418-.062.062-.442-.111-.846-.385-.403-.274-.804-.498-.891-.498-.197 0-2.385-1.442-2.385-1.572 0-.052.141-.04.315.026.18.07.262.035.19-.08-.068-.11-.252-.2-.41-.2-.157 0-.489-.274-.736-.61-.248-.334-.543-.608-.656-.608-.117 0-.1.104.038.244.483.482.232.627-.27.156-.282-.265-.467-.6-.411-.745.068-.179-.089-.264-.487-.264-.324 0-.709-.118-.856-.262-.148-.144-.556-.38-.908-.524-.604-.246-1.5-1.022-1.437-1.243.047-.165-.737-1.015-.936-1.015-.1 0-.057.152.096.338.239.29.235.323-.026.237-.167-.054-.396-.277-.507-.494-.365-.71-2.365-2.516-2.787-2.516-.596 0-1.632-.692-3.707-2.475a1391 1391 0 0 0-2.536-2.176c-2.49-2.125-3.364-2.938-3.479-3.233-.071-.184-.368-.556-.66-.826-.29-.27-.529-.601-.529-.735 0-.133-.41-.597-.91-1.03a46.749 46.749 0 0 1-2.157-2.051c-.686-.696-1.334-1.21-1.442-1.144-.25.155-1.526-1.081-2.858-2.767a80.601 80.601 0 0 0-2.215-2.655c-.645-.735-1.174-1.42-1.177-1.522-.002-.102-.472-.68-1.044-1.286-.572-.605-1.234-1.386-1.471-1.735a31.367 31.367 0 0 0-1.151-1.539 24.98 24.98 0 0 1-1.41-2.018c-.38-.614-.774-1.175-.876-1.246-.102-.072-.425-.494-.717-.938a658.79 658.79 0 0 0-1.323-2c-.977-1.473-1.541-2.466-1.541-2.713 0-.103-.274-.652-.61-1.22s-.608-1.23-.608-1.47c0-.34-.054-.384-.243-.194-.384.383-.485.301-.774-.62-.148-.474-.387-.96-.531-1.081-.144-.12-.36-.44-.48-.71-.12-.27-.443-.856-.716-1.303-.273-.446-.498-1.017-.5-1.268-.001-.251-.094-.457-.206-.457-.111 0-.203-.124-.203-.277s-.182-.509-.405-.793c-.224-.283-.406-.719-.406-.967s-.175-.736-.388-1.084c-.214-.348-.534-1.135-.714-1.749-.179-.613-.42-1.253-.538-1.42-.164-.235-.182-.194-.077.177.084.297.06.435-.063.359-.11-.068-.306-.548-.437-1.066-.13-.518-.56-1.622-.954-2.453-.41-.865-.765-1.975-.83-2.596-.08-.78-.186-1.056-.377-.983-.179.069-.306-.151-.391-.676-.07-.428-.298-1.189-.507-1.691-.506-1.21-1.115-3.264-1.415-4.769a40.951 40.951 0 0 0-.519-2.232c-.25-.924-.528-2.624-.597-3.653-.015-.223-.134-.908-.263-1.522-1.201-5.7-1.543-13.489-.95-21.612.325-4.436.488-5.613 1.44-10.45.165-.838.304-1.66.308-1.827.005-.168.188-.99.408-1.827s.477-1.841.573-2.232c.458-1.877 1.045-3.997 1.208-4.363.099-.223.364-.953.588-1.623.225-.67.826-2.222 1.336-3.45.51-1.227 1.071-2.665 1.247-3.195s.404-.965.507-.965c.103 0 .189-.25.191-.558.003-.307.183-.786.402-1.065s.399-.572.4-.65c.003-.08.234-.48.513-.891.279-.412.507-.946.507-1.188s.134-.618.298-.834c.164-.217.3-.52.304-.674.01-.398 1.84-4.089 2.224-4.482.176-.18.521-.735.767-1.233.498-1.006 1.324-2.473 1.48-2.63.304-.303 1-1.444 1.423-2.333.482-1.011 1.398-2.405 2.47-3.755 2.4-3.026 2.81-3.513 4.498-5.343.91-.986 1.7-1.915 1.756-2.066.148-.399 4.748-5.412 7.522-8.197.621-.624 1.926-1.82 2.898-2.657a96.411 96.411 0 0 0 2.887-2.587c.615-.586 1.233-1.066 1.372-1.066s.66-.42 1.157-.933c.498-.513 1.374-1.158 1.947-1.433.573-.275 1.25-.722 1.507-.994.255-.273.59-.495.742-.495.153 0 .708-.392 1.233-.87 1.093-.997 2.125-1.686 3.705-2.476.608-.305 1.334-.758 1.613-1.009.279-.25.918-.613 1.42-.807.503-.193 1.05-.47 1.218-.614.168-.144.761-.488 1.32-.764 2.352-1.164 5.07-2.61 5.257-2.797a.84.84 0 0 1 .518-.2c.175 0 .659-.183 1.075-.407.417-.223.94-.405 1.164-.405.224 0 .407-.091.407-.203 0-.251 1.969-1.218 2.48-1.218.208 0 .727-.179 1.155-.397.428-.219.833-.343.899-.277.127.126.734-.09 2.568-.914.614-.276 1.417-.49 1.784-.477.41.015.712-.088.78-.265.06-.159.353-.284.65-.278.538.011 5.316-1.317 5.944-1.652.181-.097.683-.238 1.116-.314a43.546 43.546 0 0 0 2.41-.553c3.073-.786 5.075-1.175 6.29-1.22.67-.025 1.263-.101 1.319-.17.212-.26 1.014-.408 1.014-.186 0 .147.122.161.355.042.196-.1.752-.194 1.236-.21.484-.014.947-.068 1.029-.118.361-.224 5.628-.777 7.932-.834 4.67-.115 7.35-.11 8.295.016.71.094.864.07.634-.099-.338-.248 1.506-.133 3.349.209.558.103 1.288.176 1.623.16.912-.04 6.35.416 9.233.777 1.395.174 2.788.337 3.096.36.307.024.62.104.693.178.074.074.387.134.696.134 1.364 0 7.805 1.156 8.502 1.526.28.148 1.01.366 1.624.484 2.766.533 4.488.993 4.817 1.287.42.375 1.514.672 3.185.864.663.077 1.439.236 1.725.354.286.118.612.236.724.263.883.209 2.962.976 3.056 1.128.064.104.194.141.287.084.094-.058.75.168 1.457.503.708.335 1.417.61 1.576.61.159 0 .432.122.609.27.176.15.914.462 1.64.694 1.776.57 2.911 1.08 4.35 1.955.663.403 1.394.734 1.623.735.23 0 1.407.543 2.616 1.205 1.21.662 2.46 1.261 2.781 1.332.32.07.793.292 1.049.492.256.2 1.014.643 1.684.983.67.34 1.419.808 1.665 1.041.247.233.547.424.668.424.532 0 2.002.939 2.82 1.8.507.535.928.836.977.698.11-.312.668-.104.668.248 0 .147.306.368.68.491.374.124.89.448 1.146.72.255.273.547.445.647.383.1-.062.325.005.499.15.173.143.432.279.576.3.34.05 2.456 1.405 2.628 1.682.073.118.608.533 1.189.922.58.39 1.754 1.327 2.607 2.085 1.638 1.455 1.905 1.672 3.522 2.863 1.416 1.042 3.755 3.29 3.755 3.609 0 .146.331.422.737.614.443.21.947.7 1.266 1.227.292.483.605.878.696.878.091 0 .108-.114.038-.254s.243.146.697.634c.81.871.837.882 1.486.617.363-.148 1.128-.71 1.7-1.248l1.04-.977-1.654-1.688c-1.825-1.863-3.74-4.585-4.397-6.25-.234-.595-.51-1.182-.611-1.304-.102-.123-.278-.712-.391-1.308-.168-.884-.143-1.255.136-2.009.527-1.43 1.083-1.936 1.083-.987 0 .418.042.405.672-.206.58-.562.766-.633 1.37-.517.383.073 1.03.299 1.435.502.814.407.99.919 1.03 3 .018.956.055 1.05.287.732.146-.2.219-.44.161-.533-.057-.094-.042-.504.035-.913l.139-.742.386.485c2.167 2.727 4.834 7.936 4.834 9.444 0 .44.083.478 1.046.478 1.3 0 3.132.811 3.46 1.532.125.274.303.497.397.497.094 0 .16.069.146.152-.077.492.064.863.329.863.167 0 .304-.043.304-.095 0-.338-.795-1.7-1.217-2.084l-.508-.462.609-.508c1.76-1.468 6.538-3.388 8.523-3.424 2.305-.042 3.948 1.388 3.939 3.427-.005.99-.034 1.038-1.192 1.979-1.294 1.052-1.428 1.114-1.428.66 0-.168-.095-.305-.21-.305-.144 0-.143.125.003.397.174.327.13.442-.247.642-.405.216-.428.208-.2-.069.213-.258.204-.335-.05-.433-.171-.065-.31-.024-.31.09 0 .115-.105.144-.233.065-.163-.101-.196.03-.11.445.068.323.074.474.013.334-.153-.354-.55-.32-.414.036.061.16-.038.41-.22.558-.283.23-.312.22-.203-.07.116-.31.067-.315-.545-.06-.37.155-.72.233-.778.175-.059-.059-.413-.114-.787-.123-.374-.008-1.183-.249-1.796-.534a62.626 62.626 0 0 0-1.32-.602c-.11-.045.158.238.6.63.501.446 1.108.765 1.623.852.737.125.774.158.362.318-.253.099-1.039.28-1.747.403l-1.288.225.097.841c.077.664.33 1.1 1.205 2.064 2.194 2.423 5.94 8.596 6.753 11.13.326 1.016.11 2.09-.545 2.697-1.138 1.055-4.521.294-4.524-1.017 0-.234-.198-.745-.44-1.136-.477-.772-.55-1.202-.66-3.957-.08-1.971-.329-2.88-.84-3.077-.261-.1-.272-.158-.054-.296.207-.132.187-.173-.085-.175-.413-.004-.457.22-.111.565.133.134.181.243.106.243s-.038.252.083.559c.122.306.25 1.242.285 2.08.138 3.292.46 4.827.956 4.548.202-.115.202-.088 0 .13-.603.65-3.902-3.658-5.162-6.742-.736-1.8-.692-1.787-2.525-.754-1.401.79-1.646 1.1-1.101 1.39.23.124.689.758 1.018 1.41.328.651.735 1.237.903 1.301.168.065.493.464.722.888.23.424.502.908.606 1.075.103.168.43.84.724 1.494.295.655.856 1.634 1.245 2.177.39.542.65 1.08.58 1.196-.072.115.013.264.187.331.342.131.851 1.167 1.425 2.893.197.593.603 1.367.902 1.719.618.729 1.089 1.708.938 1.952-.115.186.603 2.38.894 2.731.143.172.88.163 2.893-.035 1.486-.147 4.985-.355 7.775-.464a687.43 687.43 0 0 0 5.682-.236c1.609-.101 9.747.307 11.352.57.998.163 2.642.622 3.653 1.019 1.01.397 2.111.825 2.446.95.335.126 1.34.785 2.233 1.464.892.68 1.91 1.404 2.262 1.61.48.284.668.565.761 1.144a7.15 7.15 0 0 0 .36 1.339c.304.727.425 1.374.451 2.415.018.683.083.814.374.737.194-.05.303-.173.242-.272-.061-.098.076-.18.306-.18.258 0 .418-.131.418-.344 0-.269-.054-.291-.243-.102-.362.362-.569.296-.569-.181a.54.54 0 0 1 .395-.528c.218-.057.427-.254.466-.438.088-.41 1.543 2.568 1.7 3.48.062.357.237.981.388 1.385.15.405.38 2.094.51 3.754.13 1.66.453 4.39.718 6.063.265 1.675.665 4.688.889 6.697.608 5.466.379 4.893 2.013 5.03 3.328.279 4.932 1.987 5.197 5.536.066.885.265 2.471.442 3.524.787 4.678-.568 7.674-4.265 9.428-.848.402-1.643.732-1.767.732s-.788.222-1.476.493c-.69.27-1.63.591-2.09.71l-.837.219.495 1.363c.413 1.137.462 1.497.298 2.18-.108.45-.148 1.12-.09 1.49.182 1.135-.431 2.169-1.576 2.662-1.375.591-3.072.574-3.66-.036-.715-.745-1.238-2.15-1.316-3.537-.04-.715-.137-1.404-.216-1.53-.078-.128-.164-.65-.19-1.16l-.066-1.313c-.02-.374-.216-.383-5.831-.27-5.27.107-5.95.083-7.309-.265-4.179-1.069-5.538-3.926-5.544-11.66-.003-3.68.181-4.71.863-4.806.367-.052.45-.195.45-.774 0-1.454 2.07-2.58 5.074-2.763.893-.054 1.932-.146 2.31-.204l.685-.106-.127-1.05c-.07-.579-.172-2.587-.225-4.463-.054-1.876-.153-3.5-.22-3.61-.113-.183-.449-2.023-.592-3.25-.077-.655-.46-1.397-.722-1.397-.108 0-.242 0-.299.003-.056 0-.536-.213-1.065-.476-2.12-1.052-6.97-1.272-12.388-.56-1.64.216-3.713.45-4.606.52-2.328.183-2.474.23-2.592.843-.056.296-.02 1.552.08 2.793.533 6.588.009 15.973-1.186 21.228-.165.725-.334 1.666-.376 2.09-.042.424-.22 1.246-.393 1.826a13.83 13.83 0 0 0-.421 1.969c-.165 1.44-1.13 4.856-1.359 4.81-.113-.023-.32.552-.458 1.278-.139.725-.49 1.905-.782 2.622-.29.717-.529 1.452-.529 1.633 0 .182-.078.417-.175.523-.096.106-.335.695-.532 1.31-.76 2.366-.98 2.899-1.323 3.192-.195.167-.311.47-.258.673.088.34-.849 2.552-2.085 4.921-.28.536-.458 1.056-.396 1.156.11.178-1.554 3.66-2.037 4.262-.134.167-.445.852-.69 1.522-.536 1.466-.977 2.186-1.239 2.024-.107-.066-.194.11-.194.393 0 .601-1.407 3.04-3.724 6.457a329.78 329.78 0 0 0-2.668 3.991c-1.12 1.717-3.337 4.485-3.592 4.485-.089 0-.162.124-.162.275 0 .151-.208.499-.462.773a74.494 74.494 0 0 0-1.64 1.907c-2.255 2.692-2.874 3.408-3.53 4.087-.69.714-.834.987-.405.765.14-.073-.08.188-.486.58a12.584 12.584 0 0 0-1.347 1.59c-.51.739-1.475 1.752-4.457 4.679-.196.192-1.424 1.429-2.729 2.75-1.305 1.32-2.629 2.52-2.942 2.667a95.23 95.23 0 0 0-.874.415c-.168.08-.517.458-.776.839-.259.38-.591.692-.738.694-.147.002-1.259.946-2.471 2.1-1.213 1.153-2.473 2.236-2.802 2.406-.328.17-.977.667-1.442 1.103s-1.475 1.213-2.244 1.728c-1.522 1.019-1.846 1.257-3.55 2.612-.625.497-1.204.904-1.287.904-.2 0-1.023.653-2.133 1.691-.498.465-.954.846-1.015.846-.06 0-.304.183-.54.406-.237.223-.826.725-1.309 1.116-2.546 2.06-8.331 7.75-9.791 9.63-.69.887-1.46 1.828-1.71 2.089-.252.261-.457.557-.457.657 0 .296-.83 1.654-1.662 2.718-.425.544-.773 1.145-.773 1.334 0 .19-.282.77-.626 1.29-1.151 1.738-3.21 8.363-3.638 11.707-.093.725-.252 1.547-.355 1.826-.249.678-.3 4.87-.06 4.87.104 0 .217-.297.252-.66.048-.495.172-.674.5-.721.406-.058.438.025.435 1.116-.005 1.844.337 3.697.731 3.973.151.105.096.254-.17.456-.385.294-.384.3.05.3.539 0 .621.701.106.899-.364.14-.667-.186-.672-.725a.535.535 0 0 0-.32-.455c-.175-.067-.26-.213-.191-.326.069-.112.044-.204-.055-.204-.1 0-.19-.114-.2-.254-.155-2.053-.658-3.374-.658-1.726 0 .518.091.997.202 1.066.111.069.19.612.177 1.207-.014.595.032 1.174.102 1.288.07.114.178 1.06.239 2.103.143 2.466.171 2.538 1.05 2.703 1.654.31 3.919 1.824 4.035 2.697.025.193.194.75.374 1.237.18.486.27 1.068.199 1.292-.092.29-.05.381.145.316a.44.44 0 0 0 .28-.38c.013-.688.908-1.171.908-.49 0 .168-.16.306-.355.308-.249.002-.28.05-.104.162.152.097.231.53.202 1.112-.037.762-.12.954-.409.954-.33 0-.335.05-.07.556.258.494.25.633-.074 1.268-.2.393-.357.805-.35.917.013.182-.918.91-1.538 1.203-.18.085-.17.15.038.244.156.07.622.434 1.036.808.414.374.805.627.869.563.15-.15 1.316 1.45 1.67 2.294.247.588.32 1.5.353 4.372.01.84.044.916.278.608.218-.286.269-.295.274-.048.01.517-1.357 2.742-2.417 3.932l-.519.583.65-.09c.356-.05.614-.035.573.032-.042.068.424.384 1.035.704 1.265.663 5.077 4.526 5.286 5.357.135.538.13.542-2.048 2.082-.682.483-1.02.86-.995 1.117.038.41.215 1.199.27 1.199.018 0 .06.182.092.405.034.224.207.817.386 1.32.497 1.393 1.693 5.783 1.576 5.783-.03 0 .054.274.186.609.133.334.407 1.202.61 1.927.201.726.516 1.822.698 2.435.183.614.36 1.3.394 1.522.035.224.082.406.106.406.023 0 .073.183.11.406.036.223.122.726.189 1.116.067.39.143.893.17 1.116.026.224.101.452.167.508.066.056.413 1.38.77 2.942.359 1.563.747 3.198.863 3.635.116.437.245.974.288 1.195.042.22.212.868.376 1.438.165.57.36 1.54.433 2.154.178 1.487 1.21 7.45 1.406 8.117.142.484.371 3.033.392 4.363.012.733.12 1.282.273 1.38.14.089.254.439.254.777 0 .339.225 1.27.5 2.07 1.2 3.493 1.47 6.169.76 7.561-1.05 2.058-3.192 3.123-6.283 3.126-1.114 0-1.471.068-1.471.28 0 .154-.13.387-.287.518-.23.191-.315.152-.425-.193-.075-.238-.086-.483-.024-.545.063-.062-.246-.374-.685-.691-.654-.474-.855-.79-1.112-1.75a116.62 116.62 0 0 0-.611-2.184c-.164-.558-.414-1.426-.555-1.928-.25-.887-.261-.837-.37 1.725-.061 1.45-.053 2.683.019 2.74.182.142.09 16.155-.106 18.313-.108 1.19-.092 1.776.048 1.776.305 0 .437-1.31.5-4.969.05-2.852.098-3.252.398-3.31.59-.113.824.706.766 2.677-.03 1.016-.063 2.365-.074 2.997-.01.632-.087 1.218-.17 1.302-.085.084-.153.33-.153.544 0 .65-.668 1.602-1.054 1.502-.252-.066-.382.08-.484.547-.235 1.071-2.888 3.377-3.886 3.377-.18 0-.472.122-.648.271-.176.15-.868.386-1.538.526a1397.5 1397.5 0 0 0-2.135.448c-.914.193-8.252.375-8.418.209-.048-.049-.45-.12-.892-.16-.442-.04-1.109-.253-1.482-.473l-.679-.4-.95.449c-.522.247-.954.551-.959.676-.016.4-2.27.88-4.169.887-1.004.004-2.176.03-2.604.06-.428.029-.814-.006-.858-.078zm6.756-.71c-.068-.068-.243-.075-.39-.017-.161.065-.113.113.123.123.214.009.334-.04.266-.107zm-2.28-1.486c.67-.099 1.749-.38 2.396-.624l1.178-.444-.35-.534a8.427 8.427 0 0 0-.721-.933c-.204-.219-.371-.477-.371-.573 0-.096-.185-.556-.41-1.022-.592-1.226-.598-3.563-.011-4.387.741-1.042 1.713-1.506 2.914-1.39.9.086 1.14.208 1.708.865.364.421.719 1.072.79 1.448.177.948-.062 3.723-.392 4.534-.579 1.426-.579 1.426.127 1.721 1.668.697 4.483.705 10.087.03 2.648-.32 5.352-1.678 5.616-2.82.294-1.273.458-2.26.387-2.33-.13-.13-1.335 1.079-1.335 1.341 0 .128-.069.23-.152.23-.423-.01-.702-.43-.808-1.217-.08-.593-.047-.83.1-.738.122.075.47-.263.792-.766.317-.495.758-.948.981-1.007.397-.106.406-.279.406-7.91 0-4.6.075-7.755.183-7.688.101.062.122.012.045-.112-.208-.336-.29-4.709-.09-4.832.095-.06.128-.18.073-.27-.128-.205-.207-7.084-.084-7.208.126-.126-.364-4.378-.614-5.327-.111-.423-.346-1.636-.522-2.697-.336-2.028-.509-2.899-1.01-5.1-.816-3.578-1.37-8.608-1.104-10.03.221-1.185.621-1.62 1.661-1.803.68-.12.837-.065 1.334.467.359.384.659 1.033.827 1.787.325 1.465.94 2.421 1.341 2.088.152-.126.39-.158.53-.071.14.087.556.137.923.113.367-.025.667.049.667.164s.147.21.326.21c.432 0 .216.951-.346 1.521-.345.35-.426.364-.592.102-.107-.168-.195-.24-.197-.162-.002.078-.423.016-.936-.139l-.934-.28.134 1.761c.213 2.789.292 4.665.418 9.98.104 4.402.297 6.86.623 7.952.13.435.867.408.755-.027-.05-.197.225-.503.74-.82.451-.277.82-.6.82-.72 0-.282 1.478-.289 1.672-.007.082.12.149.491.149.826 0 .804-.197 1.063-.774 1.016-.262-.02-.522.085-.58.234-.057.15-.185.272-.284.272-.298 0-1.197.866-1.197 1.153 0 .147-.148.267-.328.267-.255 0-.298.125-.194.559a123.94 123.94 0 0 1 .316 1.37c.1.446.368 1.388.596 2.092.227.705.4 1.344.385 1.42-.016.077.086.414.227.749.141.335.304.946.363 1.358.174 1.233.75 1.597 2.539 1.606 1.236.007 1.718-.088 2.516-.494 1.548-.788 2.392-2.025 2.195-3.215-.043-.26-.134-.93-.202-1.487-.069-.558-.248-1.289-.398-1.624-.63-1.4-1.129-3.788-1.421-6.798-.125-1.281-.464-3.408-.922-5.783a96.592 96.592 0 0 1-.687-4.168 54.16 54.16 0 0 0-.833-4.363 114.94 114.94 0 0 1-.8-3.543c-.336-1.691-1.227-5.697-1.76-7.914a321.57 321.57 0 0 1-.577-2.435c-.58-2.544-.878-3.627-1.144-4.176-.298-.615-.324-.624-1.71-.583-.78.023-1.547.157-1.719.3-.257.213-.361.19-.603-.128-.16-.212-.25-.507-.196-.655.052-.149.095-.446.095-.66 0-.308.146-.39.699-.39.384 0 .751-.085.816-.19.064-.104.314-.152.554-.106.24.046.649.03.909-.035.565-.141.604-.659.175-2.306a512.3 512.3 0 0 1-.725-2.841c-.47-1.86-.549-2.035-.764-1.692-.078.123-.598.449-1.156.723a61.821 61.821 0 0 0-3.551 1.92c-.632.364-2.934 1.87-5.064 3.314a27.29 27.29 0 0 0-1.78 1.37c-.564.472-1.08.858-1.148.858-.275 0-3.544 2.957-4.803 4.344-.497.547-1.12 1.186-1.384 1.42-.418.37-1.033 1.187-1.754 2.332a73.041 73.041 0 0 1-.537.833c-.284.435-.307.812-.16 2.633.095 1.17.285 2.335.422 2.59.195.365.196.805.008 2.035-.271 1.763-.295 2.557-.161 5.324.051 1.06.007 2.211-.1 2.558-.105.347-.229 1.123-.274 1.725a75.987 75.987 0 0 1-.311 2.92 21.235 21.235 0 0 0-.093 3.653c.075 1.005.154 2.74.175 3.856.021 1.116.152 2.531.292 3.145.14.614.301 1.619.36 2.233a168.2 168.2 0 0 0 .245 2.333c.174 1.545.09 2.27-.28 2.412-.536.205-.853-.094-1.008-.953-.269-1.487-.305-1.626-.479-1.849-.094-.12-.184-.66-.2-1.2-.018-.54-.122-1.15-.232-1.357-.11-.206-.2-.66-.2-1.01s-.088-.8-.196-1c-.107-.2-.247-1.45-.31-2.776-.124-2.564-.254-3.53-.475-3.527-.17.003-1.253 2.239-1.252 2.585 0 .28-.381.33-.733.098-.123-.082-.378-.447-.565-.812-.302-.59-.305-.676-.028-.783.171-.065.311-.287.311-.491 0-.205.1-.434.222-.51.122-.075.184-.336.138-.58-.142-.74.35-1.013 1.063-.592.334.197.607.43.607.518 0 .087.08.159.176.159.098 0 .17-.57.16-1.268-.018-1.378.184-3.806.385-4.617.07-.28.114-.858.099-1.287-.015-.429.055-.886.156-1.015.38-.488.43-1.233.108-1.589-.362-.4-.252-1.174.235-1.66.399-.4.386-.556-.033-.395-.222.085-.29.051-.197-.1.078-.125.026-.415-.117-.642-.197-.317-.203-.503-.025-.788.128-.205.161-.489.074-.63-.225-.364-.021-1.627.355-2.2.242-.37.258-.52.07-.637-.137-.084-.274-.373-.305-.642a3.966 3.966 0 0 0-.175-.794c-.41-1.05-.534-1.701-.381-1.998.197-.386.083-.843-.21-.843-.367 0-.805-.594-1.608-2.182-1.03-2.037-1.422-2.706-2.026-3.457a1217.4 1217.4 0 0 1-.8-.994c-.535-.667-4.494-3.919-4.77-3.919-.07 0-.418-.218-.773-.485-.355-.267-.97-.657-1.365-.865-.837-.442-2.902-1.92-3.001-2.147-.037-.085-.159-.155-.27-.155-.182 0-2.356-1.35-2.605-1.617-.056-.06-.375-.243-.71-.408-.335-.164-1.02-.624-1.522-1.023a20.175 20.175 0 0 0-1.472-1.071 83.533 83.533 0 0 1-1.014-.64l-.457-.294v1.36c0 .747-.114 1.907-.253 2.576a22.01 22.01 0 0 0-.338 2.654c-.047.79-.18 1.977-.299 2.638-.117.661-.4 2.891-.629 4.956-.482 4.353-.6 5.354-.724 6.19-.05.334-.233 1.75-.407 3.145a761.7 761.7 0 0 1-.415 3.297c-.076.58-.03.761.198.761.46 0 .94-.225.94-.44 0-.107.274-.425.608-.707s.61-.687.61-.9c0-.445.374-.502.878-.133.383.28.76 1.933.388 1.704-.205-.127-1.673 1.65-1.673 2.026 0 .096-.235.189-.523.206-.383.022-.623-.136-.902-.595-.21-.343-.334-.7-.277-.791.056-.092.01-.167-.103-.167-.25 0-.32.398-.832 4.668-.22 1.841-.438 3.622-.484 3.957a73.8 73.8 0 0 0-.23 2.13c-.08.838-.19 1.705-.246 1.928-.055.223-.13 2.772-.168 5.665-.079 6.062.014 6.589 1.168 6.645 5.31.259 5.814-.024 5.515-3.093-.185-1.894-.167-5.67.037-8.023.192-2.217.183-2.745-.08-5.05-.41-3.582-.309-13.343.157-15.072.354-1.315 1.748-1.816 3.173-1.14.967.459 1.803 2.232 1.634 3.464-.066.483-.043.878.051.878s.123.248.065.552c-.094.493-.121.51-.256.153-.097-.26-.147-.042-.14.614.01 1.105-.2 4.099-.357 5.073-.231 1.44-.909 4.533-1.106 5.051-.28.74-.131.936.716.936.469 0 .898.176 1.3.534.376.336.898.562 1.4.607.44.04 1.014.15 1.275.247.673.247 2.509.093 3.21-.27.327-.169.945-.307 1.375-.307.43 0 .874-.093.988-.207.339-.338 2.666-.492 3.02-.199.48.4.355.883-.329 1.272-.56.319-.615.432-.498 1.015.072.36.203 1.067.29 1.569.088.502.355 1.27.594 1.706s.387.87.33.961c-.182.295-.223 2.623-.048 2.732.092.057.168.414.168.793 0 .378.104.917.231 1.196.177.388.17.655-.028 1.134-.574 1.387-1.24 1.876-3.492 2.561-.525.16-1.013.386-1.084.5-.191.31-2.085 1.14-3.135 1.376-.503.113-1.553.43-2.334.706-.781.276-1.854.566-2.384.645-1.145.17-1.109-.074-.656 4.36.166 1.617.35 3.49.411 4.16.06.669.144 1.49.186 1.825.042.335.132 1.431.201 2.436.31 4.512.857 6.368 2.444 8.305 1.901 2.32 3.394 2.754 11.466 3.333.167.012.852-.06 1.522-.158zm-11.397-2.128c-.13-.149-.268-.579-.305-.956-.057-.59-.007-.684.37-.672.275.009.399-.082.335-.248-.055-.144.09-.503.322-.798.233-.296.38-.608.326-.694-.053-.085.084-.203.304-.26.283-.074.59.112 1.05.636.537.611.59.752.308.807-.188.036-.342.178-.342.317 0 .137-.363.565-.807.949-.444.383-.81.812-.812.951-.006.331-.447.312-.75-.032zm23.284-4.3c-.595-.5-.832-1.096-.436-1.096.102 0 .247-.274.32-.609.074-.335.207-.609.296-.609.175 0 .556-.873.657-1.505.093-.582.92-.557 1.392.044.217.276.395.587.395.692 0 .29-.543.768-.697.614-.075-.075-.076.021-.002.214s-.018.67-.203 1.061c-.185.391-.296.779-.246.861.05.083-.121.31-.381.504-.457.343-.493.337-1.095-.17zm-15.307-3.633c.064-.167.01-.304-.12-.304s-.18-.091-.111-.203c.069-.112-.017-.203-.191-.203s-.317-.13-.317-.29c0-.16-.32-.629-.71-1.043-.39-.414-.71-.792-.71-.84 0-.261.604-.621 1.185-.706.597-.088.676-.04.778.47.063.312.178.548.256.524.203-.061 1.6 1.452 1.737 1.88.084.264-.07.447-.582.69-.883.419-1.37.429-1.215.025zm-7.358-5.49c.067-.172.044-.266-.05-.208-.094.058-.526-.216-.961-.608-.435-.393-1.046-.767-1.357-.832-1.023-.215-.398-1.47.797-1.6.263-.03.48.033.48.138 0 .106.16.25.354.321.196.072.573.297.84.501.266.204.654.372.862.372.238 0 .378.144.378.388 0 .214.115.436.254.493.167.069.026.319-.409.727-.711.67-1.394.847-1.188.309zm18.386-.64c-.002-.28-.042-.3-.177-.088-.127.2-.214.211-.319.042-.08-.13-.326-.175-.558-.101-.241.077-.478.027-.569-.12-.092-.15-.669-.264-1.426-.284-1.084-.03-1.294-.096-1.426-.454-.191-.517.425-1.624.904-1.624.18 0 .328.076.328.169s.137.169.304.169c.168 0 .306.114.308.254.002.182.052.175.18-.028.128-.202.342-.235.759-.117.318.09.894.16 1.278.153.383-.007.825.116.98.271.155.155.366.23.469.167.272-.169.214.956-.075 1.43-.325.537-.956.643-.96.162zm8.957-1.054c-.154-.097-.22-.272-.149-.389a.248.248 0 0 0-.079-.34c-.115-.072-.157-.215-.092-.32.064-.103.02-.188-.099-.188-.118 0-.214-.123-.214-.273 0-.398-.636-1.619-.975-1.873-.247-.185-.25-.284-.015-.66.199-.318.476-.441.995-.441.6 0 .726.076.754.453.019.249.152.546.297.66.144.113.42.549.614.967.194.419.436.761.538.761.342 0 .208 1.383-.149 1.54-.567.247-1.133.289-1.426.103zm-20.03-3.712c-.232-.107-.58-.461-.772-.787-.345-.583-.343-.594.1-.594.248 0 .391-.06.317-.134-.074-.074.08-.416.342-.76.645-.85 1.16-1.879 1.097-2.19-.073-.348.811-.456 1.187-.144.542.45.71.944.42 1.236-.42.423-1.386 2.591-1.25 2.81.066.108.01.197-.129.197-.137 0-.394.126-.57.28-.228.2-.441.225-.742.086zm10.947-5.515c-.127-.144-.288-.529-.36-.854-.117-.54-.052-.633.762-1.063.49-.259 1.017-.496 1.171-.527.154-.03.532-.159.839-.285.755-.31 1.712-.096 1.845.413.059.223-.044.721-.229 1.107-.264.556-.378.644-.544.422-.177-.236-.409-.221-1.478.096-.807.239-1.269.484-1.269.673 0 .364-.425.375-.737.018zm23.313-.607c-.251-.124-.456-.363-.456-.532.002-.429.856-1.778.951-1.502.106.306 1.846-.022 2.301-.434.299-.27.373-.272.587-.014.337.407.206 1.865-.162 1.787-.153-.033-.427.069-.608.225-.182.157-.604.337-.939.4a12.42 12.42 0 0 0-.913.206c-.167.049-.51-.012-.761-.136zm-54.771-1.3c-.332-.21-.586-1.67-.291-1.67.216 0 1.097-.84 1.905-1.818.471-.57.759-.461 1.26.472.352.66.365.781.1.933a6.156 6.156 0 0 0-.748.56 20.09 20.09 0 0 1-.964.776c-.286.215-.52.506-.52.647 0 .283-.376.334-.742.1zm42.201-3.019c-.133-.054-.35-.426-.484-.828-.21-.639-.195-.765.12-.995.2-.146.454-.208.566-.138.12.074.141.023.05-.124-.096-.155.087-.487.476-.868.347-.339.63-.707.63-.817 0-.11.126-.152.28-.093.154.059.37.018.479-.092.13-.13.314.045.532.503.364.769.436 1.38.152 1.3-.1-.027-.367.161-.594.42-.226.258-.484.44-.572.406-.087-.035-.374.255-.636.646-.509.758-.62.833-.999.68zm-7.731-2.96c-.288-.14-.421-.34-.35-.525.17-.442-.287-1.712-.746-2.078-.343-.273-.357-.351-.105-.561.162-.134.638-.265 1.058-.292.589-.037.776.033.819.304.03.193.194.489.363.657.168.169.366.58.44.915.073.335.209.655.302.713.092.057.062.33-.067.609-.257.554-.899.65-1.714.257zm-34.853-.169c-.073-.119-.082-.268-.019-.33s.004-.309-.13-.545c-.136-.237-.256-.521-.267-.633-.03-.302-.271-.945-.583-1.558-.24-.474-.233-.581.062-.847.485-.439 1.756-.16 1.759.385.002.5.714 2.324.908 2.324.08 0 .152.264.161.587.014.496-.078.605-.603.71-.873.174-1.135.155-1.288-.093zm2.95-7.523c0-.12-.13-.168-.288-.107-.323.124-1.522-.154-2.45-.568-.335-.149-.792-.304-1.015-.344-.268-.047-.428-.26-.47-.623-.05-.439.071-.634.594-.952.554-.337.693-.355.876-.117.31.403 1.8.867 2.262.705.67-.235 1.1.215 1.1 1.148 0 .562-.1.882-.304.96-.167.064-.304.019-.304-.102zm25.606-.326c-.105-.207-.105-.633-.002-1.015.139-.512.288-.66.668-.66.27 0 .546-.09.615-.202.07-.112.302-.203.518-.203.215 0 .497-.168.625-.373.398-.638 1.123-.327 1.267.544.182 1.101.156 1.304-.152 1.185-.154-.059-.521.019-.817.172-.588.305-.56.298-1.122.298-.215 0-.528.137-.695.304-.401.4-.685.385-.906-.05zm-15.21-1.674c-.138-.223-.322-.383-.407-.355-.085.027-.376-.156-.646-.407-.27-.25-.7-.456-.957-.456-.698 0-.557-.877.213-1.332.577-.34.612-.34.922.037.177.215.466.363.644.327.178-.035.44.077.583.249.143.172.454.314.692.314.262 0 .524.202.667.51.214.462.174.557-.424 1.014-.8.61-.96.622-1.286.099zm29.222-.24c.069-.179-.082-.451-.372-.669-.268-.201-.488-.474-.488-.607 0-.304-.86-1.123-1.18-1.123-.132 0-.24-.12-.24-.265 0-.484.498-.945 1.163-1.076.527-.103.685-.054.799.251.142.381 1.678 1.902 1.92 1.902.266 0 .289 1.155.028 1.398-.148.14-.602.307-1.008.373-.6.097-.717.063-.622-.183zm11.877-1.464c-.194-.146-.285-.339-.203-.43.082-.09.042-.103-.088-.028-.236.135-.88-.355-.88-.67 0-.09.132-.272.293-.406.16-.133.243-.372.181-.532-.06-.159-.025-.29.08-.29.192 0 .24-.23.27-1.268.02-.679.405-.722 1.225-.138.671.478.715.644.284 1.075-.19.19-.228.354-.1.433.135.084.13.266-.02.545-.123.23-.168.697-.1 1.038.068.34.064.56-.01.486-.074-.074-.235-.003-.357.157-.185.242-.283.247-.575.028zm-19.012-.445c-.665-.56-.822-1.098-.32-1.098.167 0 .29-.069.272-.153-.048-.227.253-.893.686-1.52.212-.305.404-.807.427-1.115.064-.853.961-.89 1.55-.065.242.341.338.62.212.62s-.172.092-.103.203c.069.112.029.203-.09.203-.118 0-.215.198-.215.44s-.142.598-.315.79a1.72 1.72 0 0 0-.368.831c-.05.473-.69 1.389-.97 1.389-.078 0-.423-.236-.766-.525zm-16.504-5.642c-.217-.165-.355-.541-.355-.965 0-.552.084-.702.409-.727.224-.017.648-.219.94-.449.292-.23.656-.418.807-.418.152 0 .509-.202.793-.45 1.214-1.056 2.57-.139 1.999 1.352-.097.252-.189.273-.406.093-.205-.17-.28-.171-.28-.005 0 .125-.121.228-.27.228-.435 0-2.775 1.196-2.775 1.419 0 .284-.437.244-.862-.078zm-6.088-3.08c-.608-.33-.736-.844-.255-1.029.167-.064.257-.19.201-.281-.056-.091.02-.288.17-.438.15-.15.257-.485.238-.745-.02-.26.087-.52.237-.578.149-.057.271-.266.271-.463 0-.198.136-.473.303-.61.166-.138.256-.326.2-.417-.057-.091-.01-.223.103-.293.113-.07.206-.354.206-.63 0-.483.694-.976 1.066-.757.083.049.152-.014.152-.141 0-.127.233.047.518.386.427.506.48.69.298 1.03-.122.228-.308.414-.414.414-.105 0-.254.251-.33.558-.077.307-.305.923-.507 1.37-.203.446-.37 1.053-.373 1.348-.002.295-.14.588-.308.653a.5.5 0 0 0-.305.427c0 .171-.084.311-.186.311-.103 0-.308.042-.457.094-.148.052-.521-.043-.828-.21zm19.592-.529c-.808-.216-.927-.402-.679-1.057.118-.308.122-.563.012-.63-.102-.064-.148-.403-.104-.755.047-.371-.063-.883-.262-1.22-.301-.51-.306-.605-.04-.772.166-.106.644-.193 1.063-.195.732-.003.76.023.76.695 0 .384.086.752.191.816.105.065.185.492.179.949-.007.457.09.895.215.972.165.101.157.287-.027.682-.31.668-.484.736-1.308.515zm6.382-.856c-.384-.292-.508-1.728-.152-1.772a10.238 10.238 0 0 0 .355-.051c.345-.058 2.486-1.218 2.486-1.347 0-.076.262-.146.582-.155.409-.012.656.121.83.446.316.59.202 1.435-.194 1.442a1.286 1.286 0 0 0-.558.164c-.14.088-.257.085-.26-.006-.004-.09-.1-.002-.216.195-.115.198-.292.309-.393.246-.233-.144-1.462.473-1.678.843-.2.34-.347.34-.802-.006zm-33.026-4.897c0-.178-.085-.271-.189-.207a.228.228 0 0 1-.31-.08c-.068-.109-.266-.143-.44-.076-.176.068-.379.033-.451-.077-.196-.296-1.418-.671-1.76-.54-.53.204-.714-.763-.255-1.349.359-.458 1.173-.75 1.173-.42 0 .16 2.428.731 2.79.657.14-.028.254.09.254.262 0 .172.143.313.318.313.578 0 .01 1.23-.758 1.641-.288.155-.372.127-.372-.124zm39.415-3.107c-.31-.197-.692-1.434-.525-1.703.065-.106.284-.149.486-.096.24.063.333.007.268-.164-.055-.143.074-.384.287-.535.213-.151.486-.46.606-.687.364-.688 1.05-.581 1.383.214.368.88.367 1.314 0 1.314-.16 0-.41.115-.558.256a6.91 6.91 0 0 1-.826.614c-.307.196-.558.492-.558.657 0 .334-.177.375-.562.13zm-8.357-.529c-.133-.16-.373-.242-.532-.181-.16.061-.29.017-.29-.097 0-.233-1.122-.547-1.674-.469-.55.078-.445-.834.161-1.403.436-.41.577-.447.91-.239.217.136.573.246.792.246.218 0 .458.1.534.223.075.122.4.184.722.137.394-.058.585.002.585.183 0 .148.137.27.304.27.421 0 .385.16-.213.944-.561.736-.92.843-1.299.386zm-22.03-.522c-.07-.114-.206-.158-.302-.099-.096.06-.23.02-.298-.09-.077-.125-.304-.13-.615-.01-.292.11-.54.112-.606.004-.063-.1-.803-.154-1.647-.118-1.43.06-1.547.032-1.744-.399-.303-.666.05-1.611.614-1.641.242-.013.44.042.44.12 0 .08.92.13 2.042.114 1.123-.016 2.088.044 2.143.133.056.09.268.163.473.163.647 0 .85 1.16.3 1.71-.37.37-.62.405-.8.113zm-11.56-2.911c-.509-.373-.571-.964-.115-1.083.246-.065.334-.226.267-.485-.056-.213 0-.388.125-.388.124 0 .226-.229.226-.508s.091-.507.203-.507c.112 0 .203-.175.203-.389s.101-.423.224-.464c.124-.04.27-.482.327-.98.056-.499.186-1.01.29-1.138.37-.458.995-.451 1.536.015l.535.46-.441.714c-.243.393-.442.888-.442 1.101 0 .214-.14.59-.314.836-.26.372-.397.972-.486 2.128-.007.084-.142.152-.302.152s-.349.183-.42.406c-.15.475-.856.54-1.416.13zm38.805-2.3c-.234-.06-.355-.29-.355-.674 0-.32-.092-.638-.203-.707-.112-.069-.203-.376-.203-.682 0-.306-.084-.643-.187-.749-.103-.106-.138-.444-.078-.75.12-.61.612-.725 1.555-.367.374.143.476.298.396.606-.06.227-.04.575.043.772.083.197.19.678.236 1.068.046.391.17.741.277.778.308.108.223.588-.128.723-.35.134-.798.128-1.353-.017zm-12.743 65.863c.227-1.4-.079-3.019-.57-3.019-.19 0-.514.198-.721.44-.335.39-.35.553-.143 1.454.225.974.991 2.482 1.17 2.302.048-.047.167-.577.264-1.177zm-21.005-21.062c.063-.102.479-.247.924-.322.445-.075.861-.22.924-.322.063-.102.338-.185.61-.185.272 0 .495-.084.495-.187 0-.16 1.564-.781 2.292-.91.374-.066 2.01-.941 2.555-1.366.266-.208.677-.38.913-.383.237-.002.658-.183.937-.401.279-.218.662-.4.85-.402.462-.006.643-.338.265-.484-.365-.14-.398-.764-.06-1.103.19-.19.187-.244-.012-.244-.14 0-.199-.09-.13-.202.069-.112.022-.203-.104-.203s-.213-.206-.193-.457c.02-.251.016-.502-.01-.558-.158-.33-.125-1.155.055-1.377.223-.274.015-.832-.711-1.91-.244-.362-.325-.724-.239-1.066.075-.298.043-.517-.075-.517-.112 0-.285-.343-.384-.761-.213-.906-.713-1.062-1.725-.539-.37.192-.992.385-1.383.43l-1.32.15c-.334.037-.825-.069-1.09-.236-.402-.254-.512-.259-.663-.03-.147.223-.236.205-.467-.098-.194-.253-.421-.33-.707-.24-.255.08-.42.044-.42-.095 0-.126-.088-.174-.196-.108-.107.067-.382-.066-.61-.294-.34-.34-.569-.391-1.244-.283l-.829.132.121.834c.27 1.86.507 4.875.64 8.139.079 1.897.17 3.586.202 3.754.032.167.065.692.074 1.167.01.608.102.862.308.862.16 0 .344-.083.407-.185zm-2.25-24.267c-.064-.167-.152-.305-.196-.305-.044 0-.08.138-.08.305 0 .167.089.304.197.304.108 0 .144-.137.08-.304zm.41-2.656c.28-1.927.253-4.096-.057-4.406-.223-.223-.363.7-.539 3.555-.11 1.777-.003 2.98.242 2.736.05-.05.21-.899.353-1.885zm40.44-.134c-.056-.14-.102-.026-.102.253 0 .28.046.394.102.254a.783.783 0 0 0 0-.507zm-.19-2.486c-.025-.949-.095-1.725-.156-1.725s-.134-.34-.162-.753c-.048-.724-.158-1.033-.303-.854-.079.098.208 3.335.349 3.94.052.224.101.566.11.762.009.195.058.355.11.355.053 0 .076-.776.051-1.725zm-47.493-15.968c-.065-.162-.113-.114-.123.123-.01.214.04.333.107.266s.074-.243.015-.389zm28.342-3.393c.633-.492 1.127-.917 1.098-.944-.029-.027-.824.119-1.767.325-.944.205-2.537.438-3.541.516l-1.826.143.801.678c.441.373.893.682 1.005.688.111.006.472.23.8.5l.599.488.84-.75a46.268 46.268 0 0 1 1.99-1.644zm9.923-10.398c1.268-.473 1.776-.761 1.776-1.005 0-.49-.547-.632-1.396-.36-.404.129-.854.267-1.001.306-.147.04-.204.173-.128.296.095.154-.003.149-.308-.015-.363-.194-.515-.178-.807.087-.322.291-.387.293-.617.016-.141-.17-.485-.31-.764-.31-.449 0-.475.04-.23.335.252.304.212.322-.431.195-1.468-.29-4.366-.676-4.458-.593-.053.047.039.17.203.274.237.15.206.19-.148.192-.246.002-.523-.133-.616-.298-.13-.232-.64-.31-2.191-.338-1.113-.02-2.297-.15-2.632-.288-.335-.14-1.567-.303-2.74-.365-1.171-.06-2.43-.172-2.795-.247-.489-.101-.768-.044-1.053.214-.357.324-.424.326-.851.026-.54-.378-1.503-.428-1.713-.088-.196.318.563.914 2.077 1.627 2.198 1.038 3.104 1.122 11.438 1.06l7.608-.057 1.777-.664zm-15.51-1.326c.146-.059.321-.052.389.016.067.067-.053.115-.267.106-.236-.01-.284-.057-.122-.122zm19.993-.551c.316-.076.916-.354 1.334-.618.485-.306 1.237-.53 2.084-.621 1.537-.165 1.9-.334 1.72-.805-.096-.249-.252-.298-.588-.186-.252.084-1.006.172-1.675.196-.67.023-1.24.052-1.269.064a.14.14 0 0 1-.101-.003c-.234-.112-1.485.858-1.534 1.19-.07.47-.565.756-.76.439-.07-.112-.076-.337-.013-.499.062-.162.024-.294-.084-.294-.108 0-.197.274-.197.608 0 .503-.082.61-.473.61-.574 0-.751.15-.61.52.088.228.244.211.85-.092.407-.204 1-.434 1.316-.51zm-19.465-15.06c.176-.067.272-.199.214-.293-.059-.095.235-.236.652-.314.659-.124.701-.163.326-.302-.617-.228-3.717-.314-4.32-.12-.38.123-.43.11-.203-.049.357-.25-2.401-.276-3.247-.032-.469.136-.476.157-.101.275 1.738.548 3.374.773 4.769.659 1.074-.089 1.432-.064 1.217.084-.264.182-.26.21.035.212.186.002.482-.052.658-.12zm23.15-5.355c-.068-.112-.216-.203-.328-.203s-.146.09-.077.203c.069.111.217.202.328.202s.147-.09.078-.202zm-28.745-7.34 1.895-.263-.13-.814c-.071-.447-.492-4.055-.935-8.019-.848-7.594-2.116-18.37-2.394-20.353-.14-.999-.109-1.237.209-1.603l.372-.43.026.487c.014.269.054.67.088.894.532 3.469 1.9 14.446 2.745 22.018.467 4.185.864 7.63.884 7.655.019.025 2.084.053 4.589.062s5.65.115 6.99.236c1.339.12 3.653.23 5.143.242l2.708.023-.122-.811a304.35 304.35 0 0 1-.705-5.378c-.08-.637-.235-1.098-.362-1.073-.29.055-.702-1.441-.681-2.478a12.636 12.636 0 0 0-.117-1.714c-.072-.496-.034-1.5.085-2.232.118-.732.319-2.152.444-3.156.376-3 .439-3.346.629-3.464.1-.061.181-.333.181-.604 0-.497 1.105-3.885 1.731-5.307.623-1.415.767-1.676 1.155-2.092.212-.228.526-.755.698-1.17.172-.417.463-.926.647-1.133.184-.207.609-.87.944-1.472 1.362-2.45 3.14-4.758 5.42-7.032 1.316-1.312 2.393-2.457 2.393-2.543s.273-.319.606-.516c.541-.32 2.424-2.06 4.774-4.414.449-.449.966-.838 1.15-.865.185-.027.64-.374 1.012-.77 1.138-1.213 3.34-3.015 3.685-3.015.179 0 .419-.174.533-.388.114-.213.55-.599.97-.858 1.622-1 3.63-2.535 3.566-2.727-.037-.11.414-.445 1-.742 1.346-.683 1.99-1.154 1.589-1.163-.19-.004-.085-.223.304-.63.906-.946 2.686-2.267 2.887-2.142.238.147 1.057-.437 1.057-.754 0-.137.251-.4.558-.585.307-.185.97-.75 1.472-1.254.502-.506.985-.922 1.073-.926.088-.004.529-.371.98-.818.45-.446.891-.812.979-.812.087 0 .69-.593 1.338-1.319.649-.725 1.286-1.319 1.415-1.319.276 0 2.94-2.71 2.94-2.991 0-.105.229-.294.508-.421.279-.128.507-.315.507-.418 0-.102.617-.824 1.37-1.604.753-.78 2.055-2.168 2.892-3.083l2.386-2.609c.475-.52.919-1.117.986-1.327.066-.21.446-.667.843-1.016.397-.349 1.319-1.547 2.047-2.663.73-1.116 1.581-2.33 1.894-2.696.313-.367.57-.788.57-.936 0-.147.357-.675.794-1.171.856-.972 1.85-2.485 2.369-3.605.177-.383.812-1.415 1.41-2.293.598-.878 1.149-1.798 1.223-2.044.074-.245.35-.731.61-1.08.262-.35.7-1.142.973-1.76.273-.617.688-1.225.922-1.35.233-.125.426-.43.427-.677.004-.526.324-1.103.51-.917.07.07.027.32-.098.552-.124.233-.149.423-.054.423.304 0 .845-1.351.628-1.568-.239-.239.605-1.657.994-1.67.16-.006.22-.181.157-.465-.059-.27.147-.956.501-1.674.33-.67.546-1 .48-.736-.08.324-.047.437.104.343.124-.076.225-.338.226-.583 0-.245.177-.734.393-1.089.379-.62.577-1.127 2.091-5.342.793-2.207 1.1-2.841 1.378-2.841.108 0 .196-.155.196-.343 0-.3-.038-.293-.298.05-.424.56-.38.209.088-.708 1.117-2.19 3.862-14.166 3.862-16.848 0-.326.088-.647.194-.713.107-.066.14-.26.076-.43-.143-.371.286-5.23.53-6.009.116-.368.096-.576-.06-.633-.169-.061-.173-.189-.014-.466.146-.257.18-1.713.101-4.44l-.116-4.059-.464.05c-.699.074-2.806-.855-4.026-1.776-.596-.45-1.467-1.342-1.936-1.981-.468-.64-.903-1.209-.967-1.265-.23-.2-.623-1.015-.623-1.288 0-.153-.242-.634-.538-1.068-.536-.786-.779-1.477-1.062-3.021-.081-.447-.396-1.353-.7-2.015-.68-1.482-.948-3.782-.833-7.138.222-6.514 1.006-9.678 3.002-12.129l.935-1.148-.633-1.367-.773-1.67c-.077-.168-.42-.853-.763-1.522a35.184 35.184 0 0 1-.745-1.522c-.123-.302-.838-1.54-1.667-2.886-.366-.594-.39-.75-.16-1.064.25-.342.285-.328.523.219.14.322.452.86.693 1.194.701.976 3.126 5.703 3.137 6.117.018.719.688 1.795 1.158 1.862.57.081.582-.238.05-1.282-.224-.438-.407-.893-.407-1.011 0-.119-.355-.756-.79-1.417-.434-.661-.744-1.321-.688-1.467.056-.146-.005-.265-.134-.265-.13 0-.42-.388-.642-.863a12.792 12.792 0 0 0-.99-1.674 14.894 14.894 0 0 1-1.037-1.725c-.777-1.568-2.242-3.5-2.476-3.266-.145.144.05.579.621 1.394.777 1.107.807 1.2.457 1.418-.312.195-.427.152-.695-.258-.177-.27-.322-.543-.322-.608 0-.064-.195-.38-.433-.702-.374-.506-.502-.559-.948-.389-.284.108-.797.135-1.14.06-1.083-.234-3.225-1.447-4.25-2.406-.544-.509-1.063-.925-1.155-.925-.514 0-.301.529.593 1.474.808.855.971 1.139.813 1.42-.108.195-.306.352-.44.351-.134 0-.955-.726-1.824-1.611-1.431-1.46-1.67-1.622-2.536-1.73-1.268-.16-1.867-.483-2.424-1.308-.542-.805-.581-1.533-.14-2.634.23-.576.262-.907.114-1.183-.112-.21-.25-.742-.305-1.182a21.24 21.24 0 0 0-.235-1.423c-.084-.39-.015-.907.183-1.38.281-.674.362-.733.734-.534.343.184.414.41.398 1.279-.03 1.684 0 1.968.213 1.968.11 0 .2-.093.2-.207 0-.114.55-.563 1.221-.997l1.221-.789-2.083-2.026c-1.146-1.114-2.467-2.345-2.937-2.734a24.137 24.137 0 0 1-1.14-.995c-.947-.947-9.713-7.674-10-7.674-.07 0-.413-.234-.763-.52-1.341-1.093-3.14-2.274-4.898-3.215-1.005-.538-1.963-1.092-2.13-1.231-.32-.266-3.22-1.83-6.002-3.237-.902-.456-1.788-.978-1.969-1.16-.182-.18-.675-.394-1.097-.473-.422-.079-1.545-.534-2.496-1.01-.95-.477-2.733-1.255-3.961-1.729a95.556 95.556 0 0 1-3.13-1.26c-.985-.438-1.183-.504-5.596-1.878l-3.984-1.242c-.517-.162-1.051-.294-1.187-.294s-.534-.13-.886-.29c-.589-.268-1.32-.447-5.002-1.223-.726-.153-2.643-.597-4.262-.987-1.618-.39-3.536-.809-4.261-.93-5.056-.85-6.512-1.075-7.407-1.144-.558-.043-2.11-.171-3.45-.286-6.728-.576-9.452-.65-15.269-.414-3.206.13-5.891.274-5.968.321-.076.048-.9.135-1.83.195-2.482.159-6.57.665-8.082 1a27.94 27.94 0 0 1-2.689.428c-.753.074-1.37.215-1.37.312s-.205.177-.456.177c-.784 0-7.117 1.654-10.786 2.817-2.404.761-7.378 2.655-9.355 3.562-.781.359-2.15.965-3.044 1.347a42.096 42.096 0 0 0-3.044 1.475 59.46 59.46 0 0 1-2.435 1.264c-.558.266-1.151.562-1.319.658a58.407 58.407 0 0 1-.827.462c-.838.46-1.758 1.032-3.306 2.057-.796.528-1.55.961-1.676.964-.126.003-.34.14-.478.305-.137.165-.875.712-1.64 1.216-1.905 1.255-6.584 4.85-7.698 5.912a26.473 26.473 0 0 1-1.769 1.529c-1.258.966-9.193 9.054-10.14 10.337-.448.605-.98 1.238-1.184 1.405-.473.39-3.133 3.654-4.498 5.521-.578.791-1.126 1.494-1.217 1.56-.092.068-.3.38-.463.696-.163.316-.459.661-.658.768-.2.107-.55.533-.777.948-.622 1.134-1.171 2.056-2.717 4.563-2.84 4.605-5.944 11.148-7.54 15.893-.409 1.218-.833 2.385-.942 2.594-.572 1.096-2.912 10.197-3.398 13.216-.108.67-.39 2.085-.627 3.146-.237 1.06-.42 2.26-.409 2.667.012.406-.07.977-.18 1.268-.262.688-.608 5.029-.734 9.2-.205 6.775.807 16.984 2.149 21.675.222.776.403 1.61.403 1.852 0 .958 2.927 9.396 3.98 11.476.266.526.485 1.087.485 1.247 0 .278 2.133 4.566 4.507 9.058 1.773 3.355 2.128 3.984 2.893 5.119.394.586.717 1.129.717 1.207 0 .078.43.764.956 1.524s1.326 1.93 1.777 2.6c.705 1.045 1.74 2.48 3.113 4.314l1.256 1.68c.502.673 1.991 2.521 3.309 4.108 5.998 7.227 11.726 12.84 19.724 19.327 2.278 1.849 7.684 5.773 9.917 7.2 1.31.837 2.948 2.001 3.638 2.587.69.586 1.405 1.066 1.587 1.066s.438.128.568.284c.13.156.926.625 1.77 1.043.845.417 1.843 1.065 2.218 1.44s.817.682.983.682c.36 0 1.621.66 3.217 1.684.644.414 1.283.752 1.42.753.138 0 .524.188.86.417.334.228 1.43.83 2.434 1.339 1.005.508 2.01 1.084 2.232 1.281.224.197.651.416.95.487.3.07.68.265.848.432.167.167.362.304.432.304.199 0 4.924 2.168 6.395 2.934.725.378 2.05.975 2.942 1.326.893.352 2.005.861 2.472 1.132.466.271.959.493 1.094.493.136 0 .896.308 1.689.684.793.376 2.492 1.158 3.775 1.737s2.836 1.367 3.45 1.751c.614.384 1.419.838 1.788 1.01 2.137.994 4.906 3.374 6.671 5.733 1.501 2.007 2.396 3.977 3.165 6.966.632 2.458.647 2.614.65 7.079.002 2.511-.063 5.424-.143 6.472l-.147 1.907 1.872-.117a60.608 60.608 0 0 0 3.766-.381zm-1.885-34.312c-.043-.139-.128-.755-.19-1.37a57.874 57.874 0 0 0-.224-1.927c-.181-1.285.255-.132.484 1.278.103.636.251 1.408.329 1.715.141.557-.233.843-.4.304zm-.816-5.284c-.087-.2-.101-.421-.032-.49.206-.207.373.083.278.483-.084.354-.095.354-.246.007zm16.857-12.218c-.28-1.052-.372-3.276-.367-8.93.006-6.182.477-13.363.894-13.62.11-.068.135.205.06.665-.121.751-.113.765.214.375.32-.381.332-.116.194 4.363-.081 2.623-.172 5.18-.203 5.682-.03.502-.115 3.059-.189 5.682s-.202 5.134-.287 5.58l-.154.812zm.242-2.841c0-.322-.033-.3-.162.101-.09.28-.163.69-.163.913 0 .322.034.3.163-.101.09-.28.162-.69.162-.913zm42.554-5.58c.202-.224.413-.407.47-.407.055 0-.065.183-.267.406-.202.223-.413.406-.468.406s.063-.183.265-.406zm-41.966-14.85c-.158-1.677.246-8.513.523-8.853.118-.145.246-.785.284-1.42.136-2.266.556-5.534.853-6.637.12-.446.28-1.656.355-2.688.075-1.033.215-1.877.31-1.877s.173-.127.173-.282c0-.154.144-.542.321-.862.313-.565.318-.544.189.738a77.868 77.868 0 0 0-.203 2.435 24.53 24.53 0 0 1-.264 2.232c-.107.614-.316 2.005-.464 3.091-.166 1.221-.336 1.88-.443 1.725-.101-.147-.137.17-.085.765.117 1.36-.473 6.618-.726 6.462-.116-.072-.14.054-.057.313.075.238.069 1.505-.014 2.815-.107 1.667-.202 2.23-.316 1.875-.133-.411-.15-.37-.084.22.044.4.01.84-.075.98-.087.14-.208-.311-.276-1.033zm1.618-14.424c-.057-.14-.103-.025-.103.254s.046.393.103.253a.783.783 0 0 0 0-.507zm.608-4.464c-.056-.14-.102-.026-.102.253 0 .28.046.394.102.254a.783.783 0 0 0 0-.507zm.207-1.002c-.064-.162-.112-.114-.122.122-.01.214.04.334.106.267.068-.068.075-.243.017-.39zm47.792 15.826c-.346-.347-.304-.522.19-.786.588-.315 2.748-.46 2.911-.195.071.115.033.221-.085.235-.42.05-.523.085-.824.28-.297.194-1.614.7-1.836.706-.062.002-.221-.106-.355-.24zm5.642-3.156c0-.158.108-.251.24-.207.369.123.42.495.07.495-.17 0-.31-.13-.31-.288zm.446-.903c-.313-.313-.312-.582 0-.517a.233.233 0 0 0 .28-.203l.06-.441c.013-.103.26-.468.549-.81.413-.492.6-.582.886-.429.2.107.41.148.466.091.056-.056.154.031.217.195.067.173-.071.421-.33.593-.703.467-1.56 1.32-1.56 1.552 0 .284-.268.27-.568-.03zm2.715-2.46c-.31-.226-.318-.292-.06-.506.297-.246.957-.134.957.163 0 .392-.545.601-.897.344zm1.823-2.072c-.217-.163-.297-.298-.177-.298.119 0 .33.138.469.305.316.38.217.379-.293-.007zm8.815-10.862c0-.118.091-.158.203-.089.112.069.203.166.203.215 0 .049-.091.09-.203.09-.112 0-.203-.097-.203-.216zm1.172-1.522c-.063-.062.02-.382.184-.71.475-.954 1.25-.698.993.328-.087.347-.265.496-.594.496-.259 0-.52-.051-.584-.114zm.993-1.645c-.249-.248-.131-.971.307-1.894.239-.502.415-.996.39-1.097a.323.323 0 0 1 .12-.305c.16-.118.45-.796.897-2.098.124-.363.35-.888.503-1.167s.414-.781.58-1.116c.536-1.078.992-1.532 1.329-1.32.237.15.254.272.076.56-.125.202-.292.66-.37 1.018-.08.358-.233.706-.343.774-.24.147-.613 1.014-.723 1.675-.044.26-.258.807-.476 1.214-.218.406-.451 1.034-.519 1.395-.067.36-.25.761-.406.89a.887.887 0 0 0-.283.6c0 .618-.23 1.007-.597 1.007-.193 0-.411-.061-.485-.136zm-68.456-.524c.06-.251.171-.799.247-1.218.076-.418.223-.76.328-.76.108 0 .13.325.05.76-.173.945-.437 1.675-.607 1.675-.07 0-.079-.206-.019-.457zm1.58-5.631c-.02-.61.68-4.018.863-4.2.218-.218.136.36-.365 2.576-.264 1.172-.488 1.903-.497 1.624zm-44.096-9.473c.146-.059.321-.052.389.016.067.067-.053.115-.267.106-.236-.01-.284-.058-.122-.122zm.647-.093c0-.096.228-.175.507-.175s.507.035.507.078-.228.122-.507.175c-.28.053-.507.018-.507-.078zm117.9-1.544c-.002-.252.088-.457.2-.457.254 0 .254.215 0 .609-.16.246-.198.217-.2-.152zm6.431-25.214c.103-.392.47-.536.722-.285.222.222-.092.69-.463.69-.265 0-.336-.11-.259-.405zm-.058-2.27c.115-1.823-.029-2.195-.85-2.195-.28 0-.93-.257-1.446-.57-.514-.315-1.095-.632-1.29-.705-.195-.073-.355-.272-.355-.443 0-.171-.183-.494-.406-.717-.515-.514-.51-.65.039-.992.4-.25.488-.226.892.242.245.286.479.596.519.69.143.335 2.147 1.48 2.591 1.48.25 0 .73.277 1.068.615.5.499.588.717.473 1.166-.078.305-.134 1.124-.125 1.822l.017 1.268H229.5l.104-1.66zm-8.598-8.88c-.34-.365-.62-.745-.62-.844 0-.309-.084-.452-.608-1.035-.28-.31-.723-1.272-.987-2.138-.263-.866-.595-1.803-.736-2.082-.402-.794-.705-2.95-.829-5.909-.063-1.493-.152-2.832-.197-2.974-.15-.469.566-4.51.8-4.507.706.01.765.293.504 2.388-.205 1.644-.205 2.657 0 5.154.274 3.343.322 3.757.482 4.224.058.168.25.761.426 1.32.778 2.461 1.165 3.414 1.597 3.928.254.302.689.978.966 1.502.473.893.484.974.163 1.294-.32.32-.38.3-.961-.32zm-3.101-19.939c-.054-.145.007-.57.135-.944.202-.591.267-.64.492-.368.35.422.216 1.434-.2 1.513-.181.035-.373-.056-.427-.201zm-5.856-21.12c-.359-.275-.292-.754.105-.754.14 0 .407.167.592.371.526.581-.036.89-.697.383zM201.544 45.31c-.316-.38-.601-1.994-.436-2.466.074-.21.186-.297.249-.193 1.067 1.77 1.204 2.23.783 2.611-.307.277-.4.285-.596.048zm-3.548-4.692c-.072-.187-.216-.287-.32-.222-.105.065-.52-.039-.922-.23-.517-.247-.693-.44-.603-.663.07-.173.15-.452.178-.62.068-.407.262-.314 1.291.623.67.61.831.871.69 1.123-.168.3-.195.3-.314-.011zm.881.015c0-.042.137-.19.305-.329.249-.207.304-.193.304.077 0 .18-.137.329-.304.329-.168 0-.305-.034-.305-.077zm-3.33-2.126c-.184-.298.09-.84.424-.84.189 0 .273.159.232.44-.07.477-.461.715-.656.4zm-10.874-8.146c0-.112.097-.203.215-.203s.158.091.09.203c-.07.111-.166.203-.216.203-.049 0-.089-.092-.089-.203zm-1.623-.96c-.658-.25-.68-1.073-.03-1.066.59.005.894.324.748.783-.142.448-.212.476-.718.283zm-2.405-.87c-.486-.22-.965-.35-1.066-.288-.1.062-.182.026-.182-.079s-.206-.241-.457-.302c-.984-.24-2.499-.84-2.754-1.092-.147-.146-.378-.265-.513-.265-.274 0-.943-.713-.943-1.005 0-.366.37-.41.942-.111.319.166.657.302.751.303.095 0 .424.181.733.401.31.22.609.353.666.296.087-.087 1.4.37 3.3 1.147.223.091.588.194.812.229.41.064.722.972.335.972-.11 0-.322.044-.471.098-.149.054-.668-.083-1.153-.303zm-12.815-6.49c0-.112.086-.203.19-.203.106 0 .248.091.317.203.069.111-.017.203-.191.203s-.316-.092-.316-.203zm-45.064 219.72c-.023-.38-.765-1.918-.782-1.62-.024.415.476 1.873.643 1.873.085 0 .147-.114.139-.253zm-1.204-3.544c-.221-.345-.227-.344-.116.01.064.204.124.477.133.608.012.17.044.168.116-.01.055-.135-.005-.408-.133-.608zm30.235-5.093c-.003-.296-.03-.3-.2-.039-.256.398-.256.666 0 .508.112-.07.202-.28.2-.469zm-33.8-1.51c-.057-.14-.35-.428-.653-.642-.549-.387-.549-.387.047.254.65.701.764.773.606.388zm33.797-1.065c0-.336-.034-.354-.197-.102a1.541 1.541 0 0 0-.196.71c0 .337.034.354.196.102a1.54 1.54 0 0 0 .197-.71zm-85.02-27.294c-.16-.1-.338-.135-.394-.08-.056.056.03.183.191.283.161.1.338.135.394.08.056-.057-.03-.184-.19-.283zm-6.494-4.363c-.139-.168-.355-.302-.481-.298-.126.004-.052.14.165.304.506.383.637.38.316-.007zm122.27-.671c-.062-.063-.226 0-.363.138-.2.2-.176.224.113.114.2-.076.313-.19.25-.252zm-128.2-4.271c-.694-.603-1.58-1.137-1.58-.952 0 .142 1.885 1.52 2.088 1.526.087.003-.14-.256-.508-.574zm138.26-4.24c.253-.323.246-.33-.076-.077-.196.153-.355.313-.355.355 0 .167.166.06.431-.279zm.996-.965c.275-.375.27-.385-.058-.127-.195.153-.355.374-.355.49 0 .117.026.174.058.128.031-.047.191-.267.355-.49zm-145.71-.469c0-.09-.274-.427-.609-.748-.715-.685-.793-.537-.165.312.43.582.774.775.774.436zm148.44-2.236c-.135-.134-.914.585-.914.845 0 .113.228-.008.507-.27.278-.261.462-.52.407-.575zm-150.77-.237c-.07-.111-.217-.203-.328-.203-.112 0-.147.092-.078.203.069.112.217.203.328.203s.147-.091.078-.203zm153.63-2.317c.216-.158.348-.333.292-.388-.055-.056-.316.074-.58.287-.551.447-.304.534.288.101zm-158.18-2.113a2.609 2.609 0 0 0-.554-.66c-.309-.25-.332-.249-.183.017.21.372.753 1.014.859 1.014.042 0-.013-.167-.122-.371zm160.8-1.049c.069-.112.034-.203-.078-.203s-.26.091-.328.203c-.069.112-.034.203.078.203.111 0 .259-.091.328-.203zm-162.41-.852c-.13-.13-.304-.17-.387-.087-.082.082-.018.23.143.33.38.234.55.063.244-.243zm-3.719-4.223c-.371-.462-.71-.734-.753-.604-.08.24 1.188 1.684 1.343 1.53.047-.047-.219-.464-.59-.925zm-.428.408c-.139-.224-.336-.406-.439-.406-.102 0-.02.182.182.406.202.223.4.405.44.405.039 0-.043-.182-.183-.405zm-2.2-2.696a2.646 2.646 0 0 1-.551-.653c-.128-.223-.236-.291-.24-.152-.006.276.712 1.07.959 1.06.083-.005.008-.119-.167-.255zm-.372-1.628c-.264-.265-.301.029-.075.604.14.358.149.358.222-.005.041-.208-.024-.477-.147-.599zm-1.043-.158c-.124-.233-.277-.372-.34-.31-.063.063.002.254.143.424.365.44.463.383.197-.114zm.213-.697c0-.15-3.775-5.513-4.592-6.524-.376-.465-.684-.926-.684-1.024 0-.098-.328-.676-.728-1.285-.4-.609-.663-.924-.586-.7.077.223.165.588.194.811.03.223.065.456.08.518.013.062.475.606 1.025 1.21.55.605.949 1.181.887 1.281-.062.1-.03.24.07.311.36.255.899 1.261.78 1.455-.068.108-.034.197.074.197.162 0 1.591 1.743 2.845 3.472.258.356.635.52.635.278zm180.27-2.837c.064-.167.028-.304-.08-.304s-.197.137-.197.304c0 .167.036.304.08.304.044 0 .133-.137.197-.304zm1.308-1.832c-.063-.062-.176.05-.252.25-.11.29-.087.313.113.114.139-.137.201-.301.139-.364zm.609-1.014c-.063-.063-.176.05-.253.25-.11.29-.087.312.114.114.139-.138.2-.302.138-.364zm1.213-2.762c-.05-.152-.142-.06-.214.214-.089.338-.062.417.089.266a.52.52 0 0 0 .125-.48zm.745-.161c.064-.104.024-.247-.09-.317-.113-.07-.206.015-.206.19 0 .356.122.408.296.127zm.593-1.344c.07-.18.035-.262-.08-.19-.11.067-.2.209-.2.314 0 .292.145.228.28-.124zm.525-1.207c0-.112-.088-.066-.196.102-.109.167-.197.395-.197.507s.088.066.197-.102c.108-.167.196-.395.196-.507zm-193.95-2.277c-.633-.89-1.46-2.498-1.801-3.506-.17-.503-.47-1.096-.666-1.32-.586-.665-2.828-5.254-3.122-6.392-.073-.279-.313-.735-.534-1.014l-.403-.508.227.71c.26.813.497 1.389.75 1.827.162.279 1.426 2.874 1.631 3.348.049.112-.079.066-.282-.101-.35-.288-.356-.276-.105.203.147.279.481.765.744 1.08.262.316.477.667.477.781 0 .114.167.45.37.745.204.297.496.859.648 1.25.152.39.397.783.543.872.146.09.265.327.265.529 0 .4 1.397 2.343 1.564 2.175.057-.057-.08-.362-.306-.679zm-6.683-13.634c.056-.213-.07-.647-.28-.964l-.38-.577-.001.829c-.002.801.11 1.099.414 1.099.08 0 .191-.174.247-.387zm-1.246-1.374c-.177-.304-.217-.313-.222-.049-.006.342.207.65.35.506.048-.048-.01-.253-.128-.457zm-.12-1.74c-.079-.363-.16-.796-.179-.964-.052-.46-.49-1.13-.64-.98-.071.072.017.416.197.765.18.348.275.718.21.822-.105.171.293 1.017.48 1.017.042 0 .013-.297-.067-.66zm256.01-2.344c.618-.243 1.229-1.09 1.025-1.42-.092-.15-.456.091-1.022.675-.484.5-1 .908-1.147.908-.147 0-.32.085-.384.19-.12.193.518.046 1.529-.353zm-2.652.163c-.398-.257-.666-.257-.508 0 .07.112.28.201.469.2.296-.003.301-.03.039-.2zm-254.31-1.264c-.17-.477-.42-1.27-.555-1.763-.182-.66-.295-.82-.431-.609-.278.432.113 2.306.438 2.105.104-.064.188.032.188.213 0 .427.405 1.184.554 1.035.062-.063-.025-.504-.194-.981zm255.36.097c.249-.317.242-.327-.057-.093-.256.2-.355.205-.417.018-.088-.263-.77-.44-.77-.201 0 .228.464.631.726.631.132 0 .364-.16.518-.355zm1.484-2.97c-.077-.459-.237-.897-.356-.972-.12-.076-.251-.395-.293-.71-.074-.547-.632-1.378-.808-1.202-.046.046-.129.474-.183.95-.055.476-.23 1.053-.39 1.281-.45.64-.371 1.315.165 1.432 1.78.387 2.041.277 1.865-.778zm-257.89-1.416a40.291 40.291 0 0 1-.414-1.753c-.697-3.195-.886-3.907-1.094-4.115-.41-.41-.457.01-.153 1.405.28 1.29.664 3.19.867 4.291.047.256.174.41.282.344.109-.067.197.026.197.206 0 .185.097.269.22.192.122-.075.165-.331.095-.57zm255.28.277c-.069-.112-.023-.203.102-.203.124 0 .17-.09.102-.201-.078-.127-.225-.108-.396.05-.287.266-.227.557.115.557.111 0 .146-.092.077-.203zm.037-1.459c-.064-.162-.113-.114-.122.123-.01.214.039.334.106.266.068-.067.075-.242.016-.389zm-257.16-8.742c-.048-1.03-.202-2.376-.342-2.99-.178-.779-.255-3.199-.255-8.015 0-7.69.204-10.152 1.296-15.625.223-1.116.646-3.26.941-4.764.295-1.504.615-2.88.71-3.059.095-.178.28-.934.41-1.68.13-.745.318-1.406.418-1.468.1-.062.182-.32.182-.574 0-.451.6-2.67 1.048-3.878.125-.334.468-1.294.764-2.131.295-.837.593-1.614.66-1.725.069-.111.228-.586.353-1.056.126-.469.364-.987.528-1.152.165-.164.3-.502.3-.75 0-.487.168-.872 2.532-5.767 1.49-3.086 3.343-6.504 4.533-8.357 1.304-2.034 2.902-4.322 3.87-5.544a950.8 950.8 0 0 0 2.002-2.536 41.393 41.393 0 0 1 1.062-1.32c.058-.055.483-.603.943-1.217.46-.614 1.224-1.527 1.696-2.03s1.514-1.643 2.314-2.536 2.41-2.613 3.579-3.823c1.168-1.21 2.159-2.306 2.201-2.435.326-.99-8.605 8.754-12.227 13.34-2.29 2.899-2.465 3.138-4.107 5.601-2.93 4.397-3.495 5.384-5.86 10.248-2.947 6.065-3.275 6.782-3.759 8.219-.439 1.303-1.584 4.196-2.127 5.377-.155.335-.433 1.157-.62 1.827a55.27 55.27 0 0 1-.752 2.435c-.227.67-.529 1.674-.67 2.232-.93 3.674-1.104 4.437-1.104 4.84 0 .247-.186.98-.414 1.629-.256.728-.44 1.85-.484 2.935-.038.966-.176 2.027-.307 2.357-.13.331-.19.79-.133 1.02.058.23-.019.777-.17 1.217-.176.512-.213.965-.102 1.258.115.3.09.547-.072.717-.22.234-.266 4.973-.108 11.117.016.614.018 1.71.004 2.435-.014.726.015 1.639.063 2.03.38 3.052.59 4.172.833 4.415.198.197.223.388.085.645-.107.201-.14.42-.073.488.333.332.44-.245.36-1.95zm220.64-1.823c-.048-.25-.088-.045-.088.457s.04.708.088.457a2.884 2.884 0 0 0 0-.914zm35.37.878c0-.215.16-.434.355-.486.301-.08.286-.117-.101-.242-.332-.106-.457-.304-.457-.721 0-.66-.43-.98-1.14-.843-.328.062-.433.17-.314.323.354.455.416 1.142.103 1.142-.207 0-.26-.125-.17-.406.073-.232.036-.406-.088-.406-.12 0-.217-.137-.217-.304 0-.213-.216-.304-.722-.304-.438 0-.672.081-.595.206.07.113.212.154.316.09.104-.065.19.06.19.277 0 .229.19.457.456.544.418.137.4.16-.211.277-.95.182-.812.533.21.533.475 0 .909.054.965.12.184.215.909.578 1.167.585.14.004.253-.17.253-.385zm7.796.268c.413-.159.414-.973.002-1.385-.29-.29-.29-.319 0-.319.442 0 .399-.258-.095-.566-.227-.142-.35-.361-.273-.486.078-.126.052-.173-.056-.106-.109.067-.173.56-.144 1.097.029.536.005.86-.054.72-.13-.306-1.088-.341-1.088-.04 0 .118.274.31.609.426.334.117.608.34.608.497 0 .321.04.334.491.162zm-2.63-.297c-.073-.119.003-.324.17-.456.474-.376.18-2.053-.364-2.08-.945-.045-1.134-.1-1.015-.291.07-.112.417-.205.773-.206.493-.002.575-.05.343-.2-.167-.108-.6-.198-.964-.2-.553-.003-.659.072-.659.464 0 .257-.11.576-.244.71-.189.19-.024.244.744.244.544 0 .929.059.856.132-.073.073-.408.125-.744.115-.476-.013-.612.07-.612.375 0 .233-.144.398-.355.406-.195.008-.642.051-.992.097-.543.071-.65.012-.73-.409-.052-.271.005-.592.127-.714.16-.16.14-.273-.074-.405-.431-.267-.858.16-.686.685.077.235.155.61.173.834.03.36.19.408 1.438.43 1.12.021 1.417.093 1.469.356.046.229.282.33.773.33.45 0 .658-.08.573-.217zm-.942-.328c.146-.058.321-.051.388.016.068.068-.052.116-.266.107-.236-.01-.284-.058-.122-.123zm-.165-.876c0-.111.096-.203.215-.203.118 0 .158.092.09.203-.07.112-.167.203-.216.203-.049 0-.09-.091-.09-.203zm-11.563.909c.128-.155.182-.365.12-.467-.15-.24-2.052-.271-2.965-.048-.664.162-.636.175.435.194.726.013 1.181.116 1.244.28.138.358.881.384 1.166.04zm2.579-.423c-.067-.067-.243-.074-.389-.016-.162.065-.114.113.123.123.214.009.333-.04.266-.106zm-3.141-1.432c-.14-.056-.368-.056-.507 0s-.026.103.253.103c.28 0 .393-.046.254-.103zm10.299-.068c0-.112-.04-.203-.09-.203-.049 0-.145.091-.215.203-.069.111-.028.203.09.203s.215-.092.215-.203zm2.786-1.746c-.068-.068-.243-.075-.39-.016-.161.065-.113.113.123.122.215.01.334-.039.267-.106zm-39.602-2.902c-.008-.547-.083-.953-.167-.901-.254.157-.128 1.896.138 1.896.024 0 .037-.448.029-.995zm.467-3.86c-.184-.527-.273-.607-.408-.365-.095.17-.115.6-.044.954.109.547.17.601.408.364.224-.224.233-.413.044-.953zm33.846-1.116c-.06-.16-.018-.624.095-1.033.16-.582.141-.817-.088-1.08-.16-.186-.25-.451-.2-.59.05-.14-.007-.255-.128-.255s-.22.183-.22.406-.132.406-.292.406c-.378 0-.665-.459-.353-.563.253-.084.324-1.638.111-2.43-.184-.688-.48-.548-.48.225 0 1.535-.247 2.565-.614 2.565-.277 0-.385.242-.494 1.113-.076.612-.081 1.205-.01 1.319.07.113.725.206 1.455.206 1.067 0 1.307-.057 1.218-.29zm-.697-.928c0-.391.042-.55.093-.355.05.195.05.514 0 .71s-.093.035-.093-.355zm-.96-.61c-.07-.11-.029-.202.09-.202.118 0 .214.091.214.203 0 .111-.04.203-.09.203-.049 0-.145-.091-.214-.203zm-32.256-1.724c.042-1.005.13-2.123.195-2.486.091-.51.047-.66-.196-.66-.185 0-.32.188-.33.457-.008.251-.031 1.62-.05 3.04-.039 2.913.255 2.641.38-.351zm34.488 1.116c-.078-.461-.188-.793-.243-.738s-.038.48.04.941c.078.461.187.793.243.738.056-.056.038-.48-.04-.94zm-.913-2.334c0-.167-.092-.304-.203-.304-.112 0-.203.137-.203.304s.091.305.203.305c.111 0 .203-.137.203-.305zm-.812-2.514c0-.1.228-.238.507-.309.42-.105.508-.249.508-.833 0-.389-.077-.707-.171-.707-.305 0-.64-2.096-.558-3.5.047-.806-.007-1.424-.129-1.5-.132-.082-.177.134-.123.596.054.468.01.677-.127.59a1.102 1.102 0 0 0-.479-.137c-.282-.006-1.014-1.784-1.193-2.897-.058-.363-.192-.66-.297-.66-.194 0-.779-1.224-.779-1.63 0-.131.168-.17.405-.095.327.104.379.058.271-.24-.105-.293-.022-.268.408.123.297.271.54.411.54.312 0-.472-.694-1.92-.92-1.92-.14 0-.307-.137-.372-.304-.178-.465-.583-.37-.433.101.093.296.036.406-.211.406-.214 0-.298.11-.228.294.238.618-.483.047-1.2-.95-.637-.887-.705-1.088-.512-1.512.327-.717.295-.792-.538-1.287-.613-.364-2.73-1.212-3.025-1.212-.26 0 .018.384.441.61.331.178.43.325.279.418a.27.27 0 0 0-.094.37c.198.32-.49.271-1.102-.079-.5-.286-.501-.29-.05-.297.572-.009.596-.342.036-.52-.25-.079-.377-.247-.312-.416.136-.356-.39-.642-1.508-.821-.746-.12-.853-.093-.747.184.079.206 0 .35-.22.396-.193.041.124.232.721.435.586.199 1.066.449 1.066.555 0 .123-.135.122-.365-.002-.201-.107-.932-.26-1.624-.337-1.058-.12-1.258-.093-1.258.169 0 .22.298.352 1.012.45 2.01.277 4.983 1.61 5.542 2.486.09.14.287.254.44.254.152 0 .312.104.354.23.05.153.184.124.395-.088.289-.288.383-.249 1.026.43.94.991 1.838 2.656 2.372 4.4.239.781.529 1.694.644 2.03.115.334.237.95.271 1.37.055.668.03.717-.207.405-.24-.316-.269-.278-.264.355.006.73.527 3.753.568 3.298.042-.468.419-.26.554.304.073.307.172.627.219.71.119.213.467.191.467-.028zm-1.186-3.27c0-.278.046-.392.103-.253a.783.783 0 0 1 0 .507c-.056.14-.103.026-.103-.253zm.906-.167c-.09-.26-.11-.525-.043-.591.21-.21.358.1.281.59l-.074.473zm-10.576-14.035c-.07-.115.01-.149.191-.08.352.136.416.281.124.281-.105 0-.246-.09-.315-.2zm10.252 7.72c-.242-.452-.614-.561-.614-.179 0 .337.685 1.054.768.804.038-.114-.031-.395-.154-.625zm7.562-.961c.267-.782.256-.934-.138-1.913-.236-.585-.556-1.105-.71-1.156-.171-.056-.227-.001-.14.137.08.132.01.23-.164.23-.493 0-.609-.424-.148-.544l.424-.111-.426-.598c-.234-.328-.474-.548-.533-.489-.06.06.01.252.157.428.225.272.2.336-.172.434l-.436.114.444.636c.244.35.504.683.577.738.073.056.242.44.377.853.187.573.189.855.01 1.191-.162.302-.166.397-.013.303.142-.088.224.066.224.421 0 .725.289.433.667-.674zm-11.83-1.688a.21.21 0 0 0-.214-.203c-.119 0-.159.092-.09.203.07.112.166.203.215.203.05 0 .09-.091.09-.203zm9.538-2.22c0-.24-.396-.495-.541-.35-.145.145.11.541.35.541a.191.191 0 0 0 .191-.19zm-15.477-.743c-.067-.068-.242-.075-.389-.016-.162.064-.114.113.123.122.214.009.334-.039.266-.106zm-18.669-.203c-.067-.068-.242-.075-.389-.016-.162.064-.114.113.123.122.214.009.334-.039.266-.106zm4.697-.328c.394-.176.591-.364.464-.443-.469-.29-8.597.262-8.945.607-.046.046 1.011.025 2.35-.047 1.583-.085 2.57-.056 2.82.084.522.293 2.47.174 3.311-.201zm30.06.158c0-.05-.092-.146-.204-.215-.111-.069-.203-.028-.203.09s.092.214.203.214c.112 0 .203-.04.203-.089zm-27.193-.574c.18-.069.077-.123-.247-.132-.423-.012-.523.059-.428.305.067.177.179.236.247.132.068-.104.26-.242.428-.305zm4.216-.365c-.226-.132-.584-.136-1.014-.012-.64.185-.628.192.35.204.772.01.93-.036.664-.192zm-8.938-.946a7.57 7.57 0 0 0-1.42.002c-.361.045-.017.08.765.08.78-.001 1.076-.038.655-.082zm14.565-.46c.074-.122-.171-.204-.61-.204-.437 0-.683.082-.608.203.069.112.343.203.609.203.266 0 .54-.091.609-.203zm5.58-1.127c0-.153-1.345-.704-1.668-.684-.143.009.106.19.552.4.85.403 1.116.47 1.116.284zm-30.439-.497c0-.112-.177-.203-.394-.203-.216 0-.45.091-.519.203-.071.115.1.203.394.203.285 0 .52-.091.52-.203zm1.522-.203c-.069-.112-.257-.203-.418-.203-.16 0-.292.091-.292.203 0 .112.188.203.418.203.23 0 .361-.091.292-.203zm9.335-.485c.892-.135-5.663.057-7.148.209-.695.07-1.227.187-1.183.259.075.122 6.992-.267 8.33-.468zm-18.542-22.702c-.2-.2-.224-.176-.114.113.076.2.19.313.252.25.063-.062 0-.226-.138-.363zm5.583-5.77c-.22-.219-.738-.25-.738-.043 0 .101.198.185.44.185s.376-.064.298-.142zm-.375-.85c-.191-.42-2.118-2.849-2.265-2.855-.097-.005-.064.128.075.296.175.21.183.304.025.304-.125 0-.227.091-.227.203 0 .111.131.203.292.203.16 0 .357.105.437.234.096.156.05.182-.14.078-.157-.086.005.126.36.472.354.346.701.809.771 1.028.079.249.241.355.43.283.166-.064.275-.174.243-.246zm-2.663-2.957c0-.162-.078-.247-.173-.188-.094.058-.12.191-.055.295.164.265.228.236.228-.107zm-.445-.507c.066-.107-.15-.334-.48-.504-.458-.237-.62-.251-.687-.06-.048.138.105.362.34.497.525.304.673.315.827.067zM208.24 46.9l.71-.274-.635-.015c-.349-.009-.748.121-.887.289-.302.364-.133.364.812 0zm15.422-.08c0-.24-.133-.372-.355-.354-.202.016-.357-.113-.359-.3-.004-.452-.504-1.015-.761-.856-.116.072-.153.035-.08-.081.071-.116-.004-.322-.167-.458-.333-.276-.364-1.964-.044-2.387.106-.14.123-.253.038-.253-.255 0-.694.683-.7 1.09-.007.331-.051.344-.35.102-.298-.243-.326-.235-.214.062.07.187.185.65.256 1.027.16.858 1.375 2.448 1.655 2.168.128-.128.328-.053.57.213.458.507.51.51.51.028zm1.217.092c0-.05-.09-.146-.202-.215-.112-.07-.203-.03-.203.09 0 .117.09.214.203.214.111 0 .202-.04.202-.09zm-8.928-.472c.93-.188 2.436-.846 3.115-1.36.36-.273.354-.313-.17-.999-.299-.392-.943-.948-1.43-1.233-.488-.286-1.048-.793-1.245-1.126-.197-.333-.43-.606-.517-.606-.281 0-.162.493.246 1.015.219.279.4.622.402.763.002.141.392.446.867.678.474.232 1.026.642 1.227.91.36.484.358.49-.138.49-.498 0-1.14.465-1.14.826 0 .104-.097.188-.215.188s-.157-.114-.086-.253c.07-.14-.02-.072-.2.15-.264.328-.36.352-.499.127-.105-.17-.277-.214-.441-.112-.148.091-.592.199-.987.24-.394.04-.804.16-.91.265-.26.26-1.389.25-1.228-.01.07-.112-.062-.204-.292-.204-.245 0-.418.132-.418.32 0 .273.232.306 1.573.218.865-.056 1.983-.185 2.485-.287zm-2.288-.17c-.067-.068-.242-.075-.389-.016-.161.064-.113.113.123.122.214.009.334-.039.266-.106zm11.367-.276c.137-.218.195-.537.13-.709-.18-.468-.462-.177-.335.347.157.65-.266.221-.992-1.008-.552-.934-.572-.947-.509-.33.067.657.634 1.708.9 1.667.399-.061.522.052.25.228-.27.175-.27.197.002.2.168.002.418-.176.555-.395zm-16.285-1.35c-.78-.721-1.418-1.394-1.418-1.496 0-.102-.133-.304-.295-.45-.254-.227-.258-.214-.026.092.148.196.205.355.126.355-.213 0-2.139-1.955-2.139-2.172 0-.21-1.107-1.075-1.375-1.075-.21 0-3.122-2.585-3.357-2.98-.174-.293-1.416-1.168-2.407-1.696-.324-.172-.53-.372-.457-.444.072-.073-.214-.276-.635-.452-.422-.176-.887-.492-1.033-.701-.279-.397-1.923-1.438-2.273-1.438-.11 0-.474-.25-.807-.558-1.059-.976-1.925-1.565-2.665-1.813-.643-.215-.676-.21-.312.053.223.16 1.022.75 1.776 1.311.753.56 1.8 1.248 2.326 1.527.525.28 1.005.576 1.065.659.276.38 2.797 2.233 3.216 2.363.258.08.565.356.682.613.117.257.44.571.717.698.55.25 2.215 1.616 3.731 3.061a99.795 99.795 0 0 0 2.68 2.409c.948.822 1.84 1.713 1.982 1.978.142.266.38.483.528.483.149 0 .27.093.27.206 0 .25 1.256 1.041 1.41.888.06-.06-.53-.7-1.31-1.421zm11.707-2.151c-.145-.146-.24-.158-.24-.03 0 .27.24.51.376.375.057-.058-.003-.213-.136-.345zm-175.41-5.986c1.122-.892 3.498-3.102 3.335-3.102-.168 0-1.805 1.356-3.245 2.687-1.44 1.333-1.482 1.522-.09.415zm164.89-1.703c-.177-.286-.494-.212-.494.116 0 .181.12.253.303.182.167-.064.253-.198.191-.298zm-.476-.881c.25.154.233-.168-.043-.86-.125-.314-.211-1.005-.192-1.535.027-.75-.035-.964-.28-.964a.31.31 0 0 0-.314.304c0 .168.091.305.203.305.111 0 .203.096.203.215 0 .118-.092.158-.203.09-.196-.122-.3.187-.206.608l.11.507c.035.168.083.327.105.355.07.087.141.438.184.914.023.25.088.341.144.201.057-.14.187-.203.289-.14zm-14.324-1.939c-.07-.111-.354-.203-.633-.203-.287 0-.453.089-.382.203.069.112.354.203.633.203.286 0 .452-.088.382-.203zM53.212 29.6c.252-.322.245-.33-.077-.077-.195.153-.355.313-.355.355 0 .167.166.06.432-.278zm135.53-.558c-.14-.168-.356-.302-.482-.298-.126.003-.051.14.165.304.506.383.637.38.317-.006zm-2.875-1.734c-.948-.831-3.95-2.365-4.18-2.136-.038.038.37.27.905.513.537.244 1.112.527 1.28.63.167.102.64.369 1.051.591.411.223.804.498.874.611.07.113.221.206.336.206s-.005-.187-.266-.415zm-128.52-.495.406-.33-.406.2a5.19 5.19 0 0 0-.812.529l-.405.33.405-.199a5.19 5.19 0 0 0 .812-.53zm122.95-2.643c-.065-.168-.358-.361-.653-.43-.295-.067-1.175-.465-1.956-.884-1.872-1.004-2.812-1.253-1.116-.296.725.41 1.593.876 1.928 1.036.334.16.837.414 1.116.566.679.37.82.372.681.008zm-5.146-2.515c0-.1-.274-.278-.609-.395-.76-.266-.785-.14-.05.26.675.365.66.362.66.135zm-107.96-.744c0-.056-.182-.004-.406.115-.223.12-.405.263-.405.319 0 .056.182.004.405-.116.224-.12.406-.263.406-.318zm3.45-1.508c.28-.218.416-.397.304-.397-.111 0-.43.179-.71.397-.279.218-.416.397-.304.397.111 0 .431-.179.71-.397zm99.73.025c-.107-.098-.787-.38-1.513-.626-.725-.246-1.41-.522-1.522-.613-.111-.09-.522-.258-.913-.374-.39-.114-1.44-.494-2.333-.843a42.483 42.483 0 0 0-2.943-1.018c-.725-.21-2.05-.621-2.942-.912-1.892-.616-2.78-.865-6.088-1.708-1.34-.34-3.166-.808-4.059-1.038a1264 1264 0 0 0-2.08-.535c-.25-.064-.456-.032-.456.07s1.301.49 2.892.858c1.59.368 3.302.79 3.804.938.503.148 1.279.361 1.725.474.447.113 1.68.489 2.74.835 1.06.347 2.339.76 2.84.918 1.401.44 3.303 1.094 3.755 1.29.223.095.908.331 1.522.524.614.192 1.299.433 1.522.536.615.284 3.829 1.393 4.048 1.398.122.002.122-.062 0-.174zm-94.454-2.224c.316-.13.382-.215.177-.223-.347-.014-1.8.54-1.8.686 0 .097.879-.153 1.623-.463zm3.67-1.454c.102 0 .186-.09.186-.202 0-.294-.271-.25-.722.117-.361.294-.363.312-.023.203.205-.065.456-.118.558-.118zm8.911-2.84c.271-.175.271-.196 0-.186-.167.006-.487.09-.71.185l-.406.175.406.01c.223.007.543-.076.71-.185zm1.066-.338a.783.783 0 0 0-.507 0c-.14.056-.026.102.253.102.28 0 .393-.045.254-.102zm54.79-1.015a.783.783 0 0 0-.507 0c-.14.057-.026.103.253.103.28 0 .393-.046.254-.103zm-1.218-.202a.783.783 0 0 0-.507 0c-.14.056-.025.102.254.102s.393-.046.253-.102zm-42.412-1.015c-.14-.056-.368-.056-.507 0s-.025.102.254.102.393-.046.253-.102zm12.784-1.226c-.25-.049-.662-.049-.913 0s-.046.087.457.087c.502 0 .707-.04.456-.087zm2.844 0a3.625 3.625 0 0 0-1.015-.003c-.308.047-.104.086.454.088.558.001.81-.037.561-.085zm45.52 346.23c-.167-.663-.01-.904.59-.904.408 0 .47.085.408.558-.04.307-.08.627-.087.71-.008.084-.187.153-.398.153-.242 0-.432-.191-.514-.517zm4.265-6.775c-.651-.128-.984-.731-.702-1.274.169-.325.22-.324.837.022.37.209.988.352 1.418.33.613-.033.76.03.76.326 0 .242-.103.327-.304.25-.172-.066-.304-.005-.304.141 0 .142-.055.204-.123.136-.067-.067-.318-.053-.558.031-.24.084-.7.101-1.024.038zm2.72-1.225c0-.264.098-.361.291-.288.16.062.242.242.181.4-.162.423-.473.35-.473-.112zm3.373-.76c-.221-.22-.136-.501.125-.414.139.046.36-.025.494-.158.133-.133.624-.303 1.09-.377.684-.11.902-.065 1.117.225.173.234.197.432.07.562-.22.223-2.696.362-2.896.163zm-67.388-2.4c-.366-.77-.41-1.088-.351-2.557.024-.621.14-.982.34-1.058.221-.086.282.003.228.333-.04.247.056.703.214 1.013.157.31.24.64.183.731-.057.092.028.34.188.553.359.473.386 1.135.061 1.46-.371.371-.493.304-.863-.476zm154.63-.275c-.062-.1.024-.234.19-.298.185-.07.304 0 .304.182 0 .328-.317.403-.494.116zm2.415-2.06c-.122-.199.394-.503 1.535-.906.75-.265.815-.256 1.104.158.265.377.267.461.018.6-.418.234-2.53.351-2.657.147zm-157.56-5.365c-.203-.246-.187-.327.086-.431.185-.071.4-.06.48.025.078.085.028.195-.112.245-.14.05-.203.175-.14.277.183.297-.04.214-.313-.117zm-.49-1.626c.07-.28.04-.508-.068-.508-.106 0-.212-.639-.235-1.42l-.042-1.42.57-.004c.44-.002.5-.046.263-.2-.262-.169-.256-.196.04-.2.54-.004.576.243.28 1.948-.154.88-.231 1.68-.172 1.776.105.171-.3.526-.608.532-.086.002-.099-.225-.029-.504zm.691-4.572c0-.489.54-.754.866-.427.171.171.17.23-.008.23-.13 0-.184.137-.12.304.081.212-.014.305-.31.305-.295 0-.428-.129-.428-.412zm131.8-.197c-.069-.112-.028-.203.09-.203s.215.091.215.203c0 .112-.04.203-.09.203-.049 0-.145-.091-.215-.203zm-130.99-2.841c-.167-.108-.213-.197-.101-.197s.34.089.507.197c.168.108.213.197.102.197-.112 0-.34-.089-.508-.197zm127.03-.389c0-.12-.14-.22-.31-.22a.493.493 0 0 1-.425-.296c-.063-.164-.296-.355-.52-.426-.223-.071-.799-.394-1.28-.718-.479-.324-.967-.59-1.084-.59-.358 0-.488-.406-.229-.718.374-.45.816-.36 1.97.399.58.382 1.24.753 1.466.825.227.072.412.254.412.405 0 .15.089.304.197.341.3.103.346 1.025.057 1.128-.14.05-.254-.01-.254-.13zm-4.776-3.073c-.074-.12.026-.392.22-.607.334-.37.369-.372.612-.039.181.247.195.429.047.607-.258.31-.699.33-.88.038zm44.455-3.359c-.298-.298-.299-.37-.01-.812.18-.276.225-.484.102-.484-.15 0-.15-.12-.005-.393.139-.258.144-.568.015-.906-.107-.282-.119-.56-.026-.618.204-.125.17-2.666-.038-2.874-.28-.28-.144-.873.31-1.347.35-.366.598-.45 1.066-.363l.608.113.019 2.433c.01 1.338.084 2.721.164 3.073.088.389.061.693-.07.773-.117.073-.214.369-.214.657 0 .943-1.243 1.427-1.922.748zm-47.661-5.896c-.222-.22-.154-.473.125-.473.144 0 .273-.16.288-.355.015-.196.073-.538.13-.761.056-.224.109-.481.118-.573.026-.287.684-.052.751.268.205.971.168 1.117-.295 1.183-.296.042-.433.169-.368.339.057.149-.034.324-.204.39-.383.146-.381.146-.545-.018zm.496-2.691c-.174-.108-.195-.212-.059-.297a.254.254 0 0 1 .347.09c.186.301.038.408-.288.207zm-117.32-1.817c0-.099.188-.228.418-.289.342-.09.374-.057.178.18-.268.322-.596.383-.596.109zm118.81-.338c.618-.53 1.529-.615 1.68-.155.08.243-1.111.67-1.874.67-.355 0-.33-.064.194-.515zm-118.41-2.973c.094-.699.198-.873.523-.873.338 0 .406.136.406.812 0 .72-.059.818-.523.872-.504.06-.518.032-.406-.811zm.071-1.77c-.184-.296-.218-1.362-.132-4.114.064-2.043.109-3.915.1-4.161-.01-.246.072-.502.182-.57.11-.068.2-.392.2-.72 0-.886.639-2.22 1.063-2.22.38 0 .491.59.173.923-.294.308-.53 3.6-.689 9.626-.03 1.168-.11 1.533-.344 1.577-.167.032-.416-.121-.553-.341zm151.82-15.218c.063-.102 0-.224-.14-.271-.197-.067-.19-.166.036-.44.24-.29.244-.381.022-.519-.15-.093-.213-.316-.142-.503.07-.184-.008-.543-.174-.797-.166-.254-.257-.508-.201-.564.198-.198-.345-2.506-.626-2.666-.354-.2-.365-.703-.032-1.42.21-.454.385-.546 1.038-.547.685-.002.77.05.678.404-.058.223-.032.406.059.406.09 0 .12.173.064.385-.055.212.018.6.163.863.145.262.295.75.332 1.086.1.893.477 1.977.798 2.298.176.177.212.367.096.513-.102.128-.163.46-.136.74.07.722-.442 1.218-1.259 1.218-.38 0-.64-.084-.576-.186zm-101.15-11.178c.12-.223.263-.406.319-.406s.004.183-.116.406c-.12.223-.263.406-.319.406-.055 0-.004-.183.116-.406zm.177-10.3c-.252-.321-.245-.328.077-.076.195.153.355.313.355.355 0 .167-.167.06-.432-.278zm-.887-5.326c-.069-.112.068-.203.304-.203.237 0 .374.091.305.203-.07.112-.206.203-.305.203-.098 0-.235-.091-.304-.203zm113.82-5.805c-.073-.291-.046-.588.06-.66.107-.071.164-.45.126-.84a117.83 117.83 0 0 1-.152-1.827c-.13-1.724-.334-2.92-.541-3.171-.211-.256.065-1.17.42-1.389a.26.26 0 0 0 .082-.356c-.091-.148.025-.178.352-.09.268.072.639.132.823.133.266.002.336.22.345 1.068.018 1.661.43 4.711.647 4.786.252.087.254.786.003.94-.106.066-.16.378-.12.694.09.713-.468 1.241-1.31 1.241-.48 0-.63-.107-.735-.53zm-118.89-5.762c.069-.111.166-.203.215-.203.049 0 .09.092.09.203 0 .112-.097.203-.216.203-.118 0-.158-.091-.09-.203zm.212-12.973c-.065-.104-.024-.246.089-.316.113-.07.206.015.206.189 0 .356-.122.409-.295.127zm114.02-13.183c.076-.123.032-.224-.098-.224-.132 0-.183-.142-.114-.32.067-.175.028-.495-.087-.71-.146-.272-.144-.391.006-.391.132 0 .108-.175-.063-.457-.153-.25-.297-.913-.32-1.47-.055-1.274-.108-1.684-.311-2.39-.133-.462-.07-.65.345-1.035.44-.408.582-.44 1.068-.242.55.226.561.263.63 2.23.038 1.099.161 2.11.273 2.244.112.134.143.304.07.378-.074.073-.017.133.126.133.167 0 .22.158.146.439-.063.241-.033.59.066.776.128.24.072.431-.19.657-.462.394-1.751.713-1.547.382zm-5.622-6.273c-.309-.037-.509-.152-.444-.256.064-.104.02-.19-.098-.19-.32 0-.26-.425.12-.846.185-.204.246-.37.136-.37-.11 0-.2-.138-.2-.305 0-.167.08-.304.18-.304.1 0 .113-.11.03-.245s-.173-1.145-.2-2.244c-.027-1.144-.148-2.12-.283-2.282-.276-.333-.14-.83.409-1.487.322-.385.514-.447 1.027-.334.492.108.61.223.53.524-.055.212-.006.386.109.386.14 0 .138.085-.006.258-.118.143-.169.531-.112.863.056.332.134 1.349.173 2.26.04.91.165 1.833.28 2.049.143.266.144.459.005.598-.114.114-.214.472-.223.797-.02.72-.656 1.22-1.432 1.128zm8.681-19.774c-.047-.14-.084-.482-.082-.761.005-.757-.104-1.271-.366-1.736-.141-.25-.166-.53-.06-.7.096-.157.126-.363.066-.46-.059-.096-.138-.632-.176-1.19-.037-.558-.173-1.142-.3-1.296-.272-.327-.138-.828.387-1.456.333-.398.452-.422 1.094-.225.586.18.71.31.669.7-.028.263-.112.54-.186.614-.182.181-.172.977.015 1.163.082.082.162.394.179.694.065 1.17.297 2.111.593 2.407.23.231.253.38.086.58-.152.183-.16.39-.024.644.155.29.095.475-.268.825-.508.488-1.487.607-1.627.197zm-229.59-16.6c-.267-.222-.442-.447-.39-.5.053-.052.31.132.572.41.57.607.488.647-.182.09zm237.81-1.222c-.183-.344-.156-.476.145-.704.205-.155.273-.285.152-.288-.251-.008-.307-.615-.056-.615.09 0 .074-.236-.035-.525-.11-.288-.137-.625-.061-.748.195-.316.076-2.443-.15-2.674-.276-.283-.24-.403.298-.983.398-.43.59-.498 1.062-.371l.575.153.032 2.139c.017 1.176.095 2.429.173 2.785.078.355.055.757-.052.892-.108.134-.169.41-.136.611.118.73-1.578 1.016-1.947.327zm-6.394-7.88c.064-.103 0-.228-.14-.279-.204-.074-.204-.177 0-.524.18-.305.188-.433.027-.433-.135 0-.18-.181-.111-.446.064-.245.022-.559-.092-.697-.115-.138-.238-.554-.273-.924-.093-.97-.495-2.36-.725-2.502-.284-.176-.231-1.153.085-1.57.172-.226.544-.354 1.027-.354h.757l-.069 1.1c-.038.604.011 1.083.11 1.065.1-.02.35.645.56 1.476.208.831.454 1.562.546 1.624.092.061.16.523.15 1.025-.01.648-.133 1.015-.42 1.262-.418.358-1.637.508-1.432.176zM27.42 171.81c-.172-.322-.156-.379.08-.289.34.132.604.69.325.69-.105 0-.286-.18-.405-.4zm236.43-3.233c-.165-.105-.236-.356-.17-.606.06-.235.032-.427-.064-.427-.217 0-.859-1.327-.921-1.905-.103-.946-.333-1.878-.597-2.417-.31-.635-.215-1.08.35-1.628.3-.29.498-.33.931-.18.323.11.54.326.523.521-.015.183.064.333.177.333.123 0 .11.115-.032.287-.184.22-.162.533.095 1.37.54 1.757.723 2.164 1.021 2.278a.31.31 0 0 1 .169.405c-.063.163-.024.464.086.67.232.433-.024.88-.713 1.248-.525.28-.496.278-.855.05zm-242.89-5.554c-.125-.125-.227-.35-.227-.5 0-.151-.216-.475-.48-.721-.263-.246-.548-.668-.633-.939-.176-.56-.38-.836-1.17-1.584-.307-.29-.558-.612-.558-.715s-.457-.847-1.015-1.654c-.558-.808-1.014-1.54-1.014-1.628 0-.087-.229-.43-.508-.762-.545-.649-.64-1.075-.285-1.294.338-.208 1.198.335 1.198.756 0 .205.115.373.254.374.14.002.41.344.602.761.364.792 1.39 2.335 2.278 3.425.286.35.52.728.52.84 0 .113.136.257.303.322.168.064.305.295.305.514 0 .219.14.538.312.71.313.313.905 1.57.905 1.92 0 .304-.539.423-.787.175zm248.65-8.246c.064-.102.01-.22-.118-.263-.175-.059-.173-.19.006-.525.179-.334.18-.447.006-.447-.129 0-.19-.17-.135-.377.054-.207 0-.55-.12-.76-.119-.212-.241-.704-.271-1.095-.077-1.002-.137-1.23-.53-2.01-.416-.825-.425-.989-.095-1.71.216-.47.362-.545.963-.497.684.055.71.088.771.962.034.497.14 1 .237 1.116.096.116.236.576.311 1.023.196 1.16.514 2.13.7 2.13.284 0 .061 2.01-.259 2.33-.327.327-1.66.44-1.465.123zm-255.45-2.462c-.29-.49-.314-.68-.12-.913.395-.475.705-.344.979.414.433 1.196-.222 1.577-.859.5zm246.49-2.162c-.055-.145-.313-.264-.572-.264-.259 0-.608-.137-.775-.304-.167-.167-.406-.304-.53-.304-.375 0-1.069-1.868-1.067-2.873.002-1.1.358-2.333.84-2.91.193-.232.321-.693.297-1.07-.037-.583.054-.714.73-1.058a6.606 6.606 0 0 0 1.387-1.01c.339-.34.783-.615.987-.614.529.005.954.318.79.583-.076.124-.045.226.07.226.114 0 .158.13.097.288-.06.159.004.501.145.761s.29.79.33 1.177c.042.388.14.753.217.812.078.059.174.29.213.513.04.223.137.451.218.507.08.056.144.44.142.853-.003.452.145.916.372 1.166.207.23.305.416.218.416-.086 0-.046.135.09.3.2.24.16.481-.2 1.228-.51 1.053-1.217 1.603-2.12 1.65-.34.017-.617.051-.617.076 0 .196-1.183.056-1.262-.15zm2.324-.787c.449-.09 1.398-1.65 1.153-1.895-.064-.064-.482.277-.93.758-.977 1.046-1.653 1.363-2.004.94-.135-.162-.323-.294-.42-.294-.097 0-.025.177.161.394.332.388.543.398 2.04.097zm-.29-1.381c.713-.672.768-.937.194-.937-.494 0-.91-.563-.697-.944.186-.332.143-.43-.496-1.152-.125-.14-.29-.457-.369-.703-.107-.337-.06-.447.19-.447.219 0 .298-.121.232-.356a17.71 17.71 0 0 1-.233-1.014c-.073-.363-.187-.66-.253-.66-.312 0-.862.721-.862 1.131 0 .252-.114.5-.254.549-.191.067-.168.238.096.697.34.592.336.62-.128 1.056-.564.53-.798 1.672-.484 2.36.147.324.456.535.905.62.374.07.731.208.792.307.21.339.64.18 1.368-.507zm-3.715-1.241c0-.167-.088-.304-.196-.304-.108 0-.144.137-.08.304.064.167.153.304.197.304.043 0 .08-.137.08-.304zm.606-1.922c.102-.19.102-.456-.002-.622-.136-.221-.254-.111-.493.46-.173.414-.314.812-.314.885 0 .198.605-.342.809-.723zm-246.02 4.357c.064-.167.21-.304.323-.304.119 0 .1.129-.047.304-.138.167-.284.304-.322.304-.04 0-.018-.137.046-.304zm-4.39-16.007c0-.043.182-.126.405-.184.224-.058.355-.023.293.078-.11.177-.699.266-.699.106zm-.69-2.68c-.15-.393.01-.692.373-.692.279 0 .56.702.362.901-.22.221-.613.11-.735-.209zm-.224-2.112c-.077-.558-.222-1.066-.323-1.128-.101-.063-.184-.337-.184-.61 0-.272-.103-.495-.228-.495-.157 0-.15-.094.025-.304.371-.447.794-.383.667.101-.058.224-.006.406.117.406.222 0 .868 1.126 1.126 1.962.104.335.036.472-.281.573-.23.073-.365.217-.301.32.064.104-.018.19-.181.19-.203 0-.342-.323-.437-1.015zm275.3-1.58c-.425-.069-.465-.158-.364-.822.39-2.591.606-9.098.308-9.283-.098-.06-.177-.358-.177-.661 0-.303-.126-.732-.279-.952-.153-.22-.342-.694-.42-1.053-.078-.359-.356-.968-.618-1.354-.466-.686-.468-.708-.09-1.049.51-.462.825-.193 1.392 1.185.239.583.518 1.21.62 1.395.508.92.826 2.965.853 5.494.03 2.822-.3 6.812-.583 7.043-.09.074-.38.1-.642.057zm-276.76-1.97c0-.167.122-.304.27-.304.15 0 .271.137.271.304 0 .168-.121.305-.27.305-.15 0-.27-.137-.27-.305zm-.701-4.591c-.014-.377-.048-1.117-.076-1.645-.057-1.077.27-1.71.782-1.514.418.16.446 1.637.044 2.363-.152.273-.236.6-.187.728.049.127-.052.349-.225.492-.272.225-.317.169-.338-.424zm274.73-9.09c-.305-.308-.317-.4-.077-.6.22-.181.387-.15.747.142.264.213.402.478.32.612-.205.33-.568.274-.99-.153zm-28.456-38.615a9.504 9.504 0 0 0-1.175-.273c-.773-.114-1.362-.454-1.362-.785 0-.314.499-.565.707-.356.373.372 6.532.32 7.461-.063.504-.208.964.02.964.477 0 .661-.472.782-3.594.918-1.139.05-2.143.131-2.232.18-.088.05-.434.005-.77-.098zm9.842-.16c0-.111.091-.203.203-.203.111 0 .203.092.203.203a.204.204 0 0 1-.203.203.204.204 0 0 1-.203-.203zm-2.9-.58c-.177-.212-.14-.34.156-.558.728-.532 1.323-.254 1.323.619 0 .346-1.18.298-1.48-.06zm-17.494-2.87c-.068-.11.012-.202.18-.202.167 0 .36.091.43.203.068.111-.012.203-.18.203-.167 0-.36-.092-.43-.203z"/></svg>