<svg xmlns="http://www.w3.org/2000/svg" xmlns:xlink="http://www.w3.org/1999/xlink" xml:space="preserve" viewBox="0 0 800 500"><g transform="matrix(-1 0 0 1 800 0)"><defs><path id="a" d="M0 0h800v500H0z"/></defs><linearGradient id="b" x1="75" x2="725" y1="575" y2="-75" gradientUnits="userSpaceOnUse"><stop offset="0" stop-color="#030104"/><stop offset=".663" stop-color="#080609"/><stop offset="1" stop-color="#0D0D0D"/></linearGradient><use xlink:href="#a" fill="url(#b)"/><clipPath id="c"><use xlink:href="#a"/></clipPath><g clip-path="url(#c)" opacity=".15"><linearGradient id="d" x1="463.35" x2="501.86" y1="488.09" y2="488.09" gradientTransform="rotate(45.001 670.928 340.468) scale(1 1.7249)" gradientUnits="userSpaceOnUse"><stop offset="0" stop-color="#0D0D0D"/><stop offset=".337" stop-color="#080609"/><stop offset="1" stop-color="#030104"/></linearGradient><path fill="url(#d)" d="M34.854 682.99 304.3 413.54l27.23 27.23L62.084 710.22z"/><linearGradient id="e" x1="471.55" x2="471.55" y1="599.62" y2="377.63" gradientTransform="rotate(45.001 670.928 340.468) scale(1 1.7249)" gradientUnits="userSpaceOnUse"><stop offset="0" stop-color="#030104"/><stop offset=".663" stop-color="#080609"/><stop offset="1" stop-color="#0D0D0D"/></linearGradient><path fill="url(#e)" d="M25.723 676.48 296.48 405.72l27.23 27.23L52.952 703.7z"/><linearGradient id="f" x1="405.63" x2="537.46" y1="554.54" y2="422.71" gradientTransform="rotate(45.001 670.928 340.468) scale(1 1.7249)" gradientUnits="userSpaceOnUse"><stop offset=".225" stop-color="#040205"/><stop offset=".356" stop-color="#0D0205"/><stop offset=".566" stop-color="#240203"/><stop offset=".733" stop-color="#3B0202"/><stop offset=".825" stop-color="#7C0201"/><stop offset="1" stop-color="#FF0200"/></linearGradient><path fill="url(#f)" d="m52.952 705.12-28.643-28.644 272.17-272.17 28.643 28.643zm-25.815-28.644 25.815 25.816 269.34-269.34-25.815-25.814z"/><linearGradient id="g" x1="424.85" x2="463.35" y1="455.38" y2="455.38" gradientTransform="matrix(.7071 .70712 -1.45179 1.45174 546.683 -484.114)" gradientUnits="userSpaceOnUse"><stop offset="0" stop-color="#0D0D0D"/><stop offset=".337" stop-color="#080609"/><stop offset="1" stop-color="#030104"/></linearGradient><path fill="url(#g)" d="M25.598 637.78 346.33 317.05l27.23 27.23L52.828 665.01z"/><linearGradient id="h" x1="433.04" x2="433.04" y1="566.91" y2="344.91" gradientTransform="matrix(.7071 .70712 -1.45179 1.45174 546.683 -484.114)" gradientUnits="userSpaceOnUse"><stop offset="0" stop-color="#030104"/><stop offset=".663" stop-color="#080609"/><stop offset="1" stop-color="#0D0D0D"/></linearGradient><path fill="url(#h)" d="M16.216 631.52 338.51 309.23l27.23 27.23L43.446 658.75z"/><linearGradient id="i" x1="367.17" x2="498.91" y1="521.78" y2="390.04" gradientTransform="matrix(.7071 .70712 -1.45179 1.45174 546.683 -484.114)" gradientUnits="userSpaceOnUse"><stop offset=".225" stop-color="#040205"/><stop offset=".356" stop-color="#0D0205"/><stop offset=".566" stop-color="#240203"/><stop offset=".733" stop-color="#3B0202"/><stop offset=".825" stop-color="#7C0201"/><stop offset="1" stop-color="#FF0200"/></linearGradient><path fill="url(#i)" d="m43.446 660.17-28.645-28.645 323.71-323.7 28.644 28.644zM17.63 631.525l25.816 25.816 320.88-320.88-25.815-25.815z"/><linearGradient id="j" x1="386.33" x2="424.85" y1="458" y2="458" gradientTransform="matrix(.7071 .70712 -.91918 .91915 293.497 -230.937)" gradientUnits="userSpaceOnUse"><stop offset="0" stop-color="#0D0D0D"/><stop offset=".337" stop-color="#080609"/><stop offset="1" stop-color="#030104"/></linearGradient><path fill="url(#j)" d="m44.14 564.78 203.07-203.07 27.23 27.23L71.369 592.01z"/><linearGradient id="k" x1="394.53" x2="394.53" y1="569.54" y2="347.54" gradientTransform="matrix(.7071 .70712 -.91918 .91915 293.497 -230.937)" gradientUnits="userSpaceOnUse"><stop offset="0" stop-color="#030104"/><stop offset=".663" stop-color="#080609"/><stop offset="1" stop-color="#0D0D0D"/></linearGradient><path fill="url(#k)" d="m35.33 557.95 204.06-204.06 27.23 27.23L62.56 585.18z"/><linearGradient id="l" x1="328.52" x2="460.54" y1="524.55" y2="392.53" gradientTransform="matrix(.7071 .70712 -.91918 .91915 293.497 -230.937)" gradientUnits="userSpaceOnUse"><stop offset=".225" stop-color="#040205"/><stop offset=".356" stop-color="#0D0205"/><stop offset=".566" stop-color="#240203"/><stop offset=".733" stop-color="#3B0202"/><stop offset=".825" stop-color="#7C0201"/><stop offset="1" stop-color="#FF0200"/></linearGradient><path fill="url(#l)" d="m62.56 586.59-28.644-28.644 205.48-205.48 28.644 28.645zm-25.816-28.645 25.816 25.816 202.65-202.65-25.815-25.816z"/><linearGradient id="m" x1="347.83" x2="386.34" y1="478.73" y2="478.73" gradientTransform="rotate(45.001 956.234 458.632) scale(1 2.2049)" gradientUnits="userSpaceOnUse"><stop offset="0" stop-color="#0D0D0D"/><stop offset=".337" stop-color="#080609"/><stop offset="1" stop-color="#030104"/></linearGradient><path fill="url(#m)" d="M-68.267 622.73 276.16 278.3l27.23 27.23-344.426 344.43z"/><linearGradient id="n" x1="356.02" x2="356.02" y1="590.26" y2="368.27" gradientTransform="rotate(45.001 956.234 458.632) scale(1 2.2049)" gradientUnits="userSpaceOnUse"><stop offset="0" stop-color="#030104"/><stop offset=".663" stop-color="#080609"/><stop offset="1" stop-color="#0D0D0D"/></linearGradient><path fill="url(#n)" d="m-77.763 616.58 346.103-346.1 27.23 27.23-346.102 346.1z"/><linearGradient id="o" x1="290.17" x2="421.87" y1="545.11" y2="413.41" gradientTransform="rotate(45.001 956.234 458.632) scale(1 2.2049)" gradientUnits="userSpaceOnUse"><stop offset=".225" stop-color="#040205"/><stop offset=".356" stop-color="#0D0205"/><stop offset=".566" stop-color="#240203"/><stop offset=".733" stop-color="#3B0202"/><stop offset=".825" stop-color="#7C0201"/><stop offset="1" stop-color="#FF0200"/></linearGradient><path fill="url(#o)" d="m-50.532 645.22-28.645-28.645 347.52-347.52 28.643 28.643zm-25.817-28.645 25.816 25.816 344.69-344.69-25.815-25.815z"/><linearGradient id="p" x1="309.32" x2="347.83" y1="461.49" y2="461.49" gradientTransform="rotate(45.001 670.928 340.468) scale(1 1.7249)" gradientUnits="userSpaceOnUse"><stop offset="0" stop-color="#0D0D0D"/><stop offset=".337" stop-color="#080609"/><stop offset="1" stop-color="#030104"/></linearGradient><path fill="url(#p)" d="m-41.62 541.62 269.44-269.44 27.24 27.23-269.451 269.44z"/><linearGradient id="q" x1="317.51" x2="317.51" y1="573.02" y2="351.03" gradientTransform="rotate(45.001 670.928 340.468) scale(1 1.7249)" gradientUnits="userSpaceOnUse"><stop offset="0" stop-color="#030104"/><stop offset=".663" stop-color="#080609"/><stop offset="1" stop-color="#0D0D0D"/></linearGradient><path fill="url(#q)" d="M-50.753 535.11 220 264.35l27.23 27.23-270.752 270.76z"/><linearGradient id="r" x1="251.6" x2="383.42" y1="527.94" y2="396.11" gradientTransform="rotate(45.001 670.928 340.468) scale(1 1.7249)" gradientUnits="userSpaceOnUse"><stop offset=".225" stop-color="#040205"/><stop offset=".356" stop-color="#0D0205"/><stop offset=".566" stop-color="#240203"/><stop offset=".733" stop-color="#3B0202"/><stop offset=".825" stop-color="#7C0201"/><stop offset="1" stop-color="#FF0200"/></linearGradient><path fill="url(#r)" d="m-23.522 563.75-28.645-28.645 272.17-272.17 28.643 28.645zm-25.817-28.645 25.816 25.816 269.34-269.34-25.814-25.816z"/><linearGradient id="s" x1="270.81" x2="309.32" y1="450.58" y2="450.58" gradientTransform="rotate(45.001 1187.806 554.55) scale(1 2.6519)" gradientUnits="userSpaceOnUse"><stop offset="0" stop-color="#0D0D0D"/><stop offset=".337" stop-color="#080609"/><stop offset="1" stop-color="#030104"/></linearGradient><path fill="url(#s)" d="m-120.54 566.08 414.26-414.26 27.23 27.23-414.26 414.26z"/><linearGradient id="t" x1="279" x2="279" y1="562.11" y2="340.13" gradientTransform="rotate(45.001 1187.806 554.55) scale(1 2.6519)" gradientUnits="userSpaceOnUse"><stop offset="0" stop-color="#030104"/><stop offset=".663" stop-color="#080609"/><stop offset="1" stop-color="#0D0D0D"/></linearGradient><path fill="url(#t)" d="M-130.37 560.27 285.9 144l27.23 27.23-416.27 416.27z"/><linearGradient id="u" x1="213.19" x2="344.82" y1="516.93" y2="385.31" gradientTransform="rotate(45.001 1187.806 554.55) scale(1 2.6519)" gradientUnits="userSpaceOnUse"><stop offset=".225" stop-color="#040205"/><stop offset=".356" stop-color="#0D0205"/><stop offset=".566" stop-color="#240203"/><stop offset=".733" stop-color="#3B0202"/><stop offset=".825" stop-color="#7C0201"/><stop offset="1" stop-color="#FF0200"/></linearGradient><path fill="url(#u)" d="m-103.14 588.92-28.644-28.644 417.68-417.68 28.644 28.644zm-25.815-28.644 25.816 25.816 414.86-414.86-25.815-25.816z"/><linearGradient id="v" x1="232.3" x2="270.81" y1="469.41" y2="469.41" gradientTransform="rotate(45.001 670.928 340.468) scale(1 1.7249)" gradientUnits="userSpaceOnUse"><stop offset="0" stop-color="#0D0D0D"/><stop offset=".337" stop-color="#080609"/><stop offset="1" stop-color="#030104"/></linearGradient><path fill="url(#v)" d="M-105.74 496.82 163.7 227.38l27.23 27.23-269.445 269.45z"/><linearGradient id="w" x1="240.49" x2="240.49" y1="580.94" y2="358.95" gradientTransform="rotate(45.001 670.928 340.468) scale(1 1.7249)" gradientUnits="userSpaceOnUse"><stop offset="0" stop-color="#030104"/><stop offset=".663" stop-color="#080609"/><stop offset="1" stop-color="#0D0D0D"/></linearGradient><path fill="url(#w)" d="m-114.88 490.32 270.76-270.76 27.23 27.23-270.756 270.75z"/><linearGradient id="x" x1="174.58" x2="306.4" y1="535.86" y2="404.03" gradientTransform="rotate(45.001 670.928 340.468) scale(1 1.7249)" gradientUnits="userSpaceOnUse"><stop offset=".225" stop-color="#040205"/><stop offset=".356" stop-color="#0D0205"/><stop offset=".566" stop-color="#240203"/><stop offset=".733" stop-color="#3B0202"/><stop offset=".825" stop-color="#7C0201"/><stop offset="1" stop-color="#FF0200"/></linearGradient><path fill="url(#x)" d="m-87.646 518.96-28.644-28.642 272.17-272.17 28.644 28.643zm-25.816-28.642 25.815 25.814 269.34-269.34-25.815-25.815z"/><linearGradient id="y" x1="193.79" x2="232.3" y1="434.6" y2="434.6" gradientTransform="rotate(45.001 670.928 340.468) scale(1 1.7249)" gradientUnits="userSpaceOnUse"><stop offset="0" stop-color="#0D0D0D"/><stop offset=".337" stop-color="#080609"/><stop offset="1" stop-color="#030104"/></linearGradient><path fill="url(#y)" d="m-90.52 427.14 269.45-269.45 27.23 27.23-269.449 269.45z"/><linearGradient id="z" x1="201.98" x2="201.98" y1="546.13" y2="324.15" gradientTransform="rotate(45.001 670.928 340.468) scale(1 1.7249)" gradientUnits="userSpaceOnUse"><stop offset="0" stop-color="#030104"/><stop offset=".663" stop-color="#080609"/><stop offset="1" stop-color="#0D0D0D"/></linearGradient><path fill="url(#z)" d="M-99.651 420.63 171.1 149.87l27.24 27.23-270.761 270.76z"/><linearGradient id="A" x1="136.07" x2="267.9" y1="501.05" y2="369.23" gradientTransform="rotate(45.001 670.928 340.468) scale(1 1.7249)" gradientUnits="userSpaceOnUse"><stop offset=".225" stop-color="#040205"/><stop offset=".356" stop-color="#0D0205"/><stop offset=".566" stop-color="#240203"/><stop offset=".733" stop-color="#3B0202"/><stop offset=".825" stop-color="#7C0201"/><stop offset="1" stop-color="#FF0200"/></linearGradient><path fill="url(#A)" d="m-72.421 449.27-28.645-28.644 272.17-272.17 28.643 28.643zm-25.816-28.644 25.816 25.815 269.34-269.34-25.815-25.815z"/><linearGradient id="B" x1="155.28" x2="193.79" y1="488.09" y2="488.09" gradientTransform="rotate(45.001 670.928 340.468) scale(1 1.7249)" gradientUnits="userSpaceOnUse"><stop offset="0" stop-color="#0D0D0D"/><stop offset=".337" stop-color="#080609"/><stop offset="1" stop-color="#030104"/></linearGradient><path fill="url(#B)" d="M-182.98 465.15 86.46 195.7l27.23 27.23-269.45 269.45z"/><linearGradient id="C" x1="163.47" x2="163.47" y1="599.62" y2="377.63" gradientTransform="rotate(45.001 670.928 340.468) scale(1 1.7249)" gradientUnits="userSpaceOnUse"><stop offset="0" stop-color="#030104"/><stop offset=".663" stop-color="#080609"/><stop offset="1" stop-color="#0D0D0D"/></linearGradient><path fill="url(#C)" d="M-192.12 458.64 78.639 187.88l27.231 27.23-270.76 270.75z"/><linearGradient id="D" x1="97.559" x2="229.39" y1="554.54" y2="422.71" gradientTransform="rotate(45.001 670.928 340.468) scale(1 1.7249)" gradientUnits="userSpaceOnUse"><stop offset=".225" stop-color="#040205"/><stop offset=".356" stop-color="#0D0205"/><stop offset=".566" stop-color="#240203"/><stop offset=".733" stop-color="#3B0202"/><stop offset=".825" stop-color="#7C0201"/><stop offset="1" stop-color="#FF0200"/></linearGradient><path fill="url(#D)" d="m-164.89 487.28-28.645-28.645 272.17-272.17 28.643 28.644zm-25.816-28.644 25.816 25.816 269.34-269.34-25.815-25.815z"/></g></g></svg>