<?xml version="1.0" encoding="UTF-8" standalone="no"?>
<svg
   width="184.33965pt"
   height="344.1416pt"
   version="1.1"
   viewBox="0 0 184.33965 344.1416"
   id="svg151"
   sodipodi:docname="avatar-raw.svg"
   xml:space="preserve"
   inkscape:version="1.2.2 (1:1.2.2+202212051552+b0a8486541)"
   xmlns:inkscape="http://www.inkscape.org/namespaces/inkscape"
   xmlns:sodipodi="http://sodipodi.sourceforge.net/DTD/sodipodi-0.dtd"
   xmlns="http://www.w3.org/2000/svg"
   xmlns:svg="http://www.w3.org/2000/svg"><sodipodi:namedview
     id="namedview153"
     pagecolor="#ffffff"
     bordercolor="#000000"
     borderopacity="0.25"
     inkscape:showpageshadow="2"
     inkscape:pageopacity="0.0"
     inkscape:pagecheckerboard="0"
     inkscape:deskcolor="#d1d1d1"
     inkscape:document-units="pt"
     showgrid="false"
     inkscape:zoom="0.5"
     inkscape:cx="251"
     inkscape:cy="220"
     inkscape:window-width="1366"
     inkscape:window-height="740"
     inkscape:window-x="0"
     inkscape:window-y="0"
     inkscape:window-maximized="1"
     inkscape:current-layer="g149" /><defs
     id="defs65"><symbol
       id="u"
       overflow="visible"><path
         d="m 18.766,-1.125 c -0.96875,0.5 -1.9805,0.875 -3.0312,1.125 -1.043,0.25781 -2.1367,0.39062 -3.2812,0.39062 -3.3984,0 -6.0898,-0.94531 -8.0781,-2.8438 -1.9922,-1.9062 -2.9844,-4.4844 -2.9844,-7.7344 0,-3.2578 0.99219,-5.8359 2.9844,-7.7344 1.9883,-1.9062 4.6797,-2.8594 8.0781,-2.8594 1.1445,0 2.2383,0.13281 3.2812,0.39062 1.0508,0.25 2.0625,0.625 3.0312,1.125 v 4.2188 c -0.98047,-0.65625 -1.9453,-1.1406 -2.8906,-1.4531 -0.94922,-0.3125 -1.9492,-0.46875 -3,-0.46875 -1.875,0 -3.3516,0.60547 -4.4219,1.8125 -1.0742,1.1992 -1.6094,2.8555 -1.6094,4.9688 0,2.1055 0.53516,3.7617 1.6094,4.9688 1.0703,1.1992 2.5469,1.7969 4.4219,1.7969 1.0508,0 2.0508,-0.14844 3,-0.45312 0.94531,-0.3125 1.9102,-0.80078 2.8906,-1.4688 z"
         id="path2" /></symbol><symbol
       id="d"
       overflow="visible"><path
         d="m 13.734,-11.141 c -0.4375,-0.19531 -0.87109,-0.34375 -1.2969,-0.4375 -0.41797,-0.10156 -0.83984,-0.15625 -1.2656,-0.15625 -1.2617,0 -2.2305,0.40625 -2.9062,1.2188 -0.67969,0.80469 -1.0156,1.9531 -1.0156,3.4531 v 7.0625 H 2.3591 v -15.312 h 4.8906 v 2.5156 c 0.625,-1 1.3438,-1.7266 2.1562,-2.1875 0.82031,-0.46875 1.8008,-0.70312 2.9375,-0.70312 0.16406,0 0.34375,0.01172 0.53125,0.03125 0.19531,0.01172 0.47656,0.03906 0.84375,0.07813 z"
         id="path5" /></symbol><symbol
       id="a"
       overflow="visible"><path
         d="m 17.641,-7.7031 v 1.4062 H 6.188 c 0.125,1.1484 0.53906,2.0078 1.25,2.5781 0.70703,0.57422 1.7031,0.85938 2.9844,0.85938 1.0312,0 2.082,-0.14844 3.1562,-0.45312 1.082,-0.3125 2.1914,-0.77344 3.3281,-1.3906 v 3.7656 c -1.1562,0.4375 -2.3125,0.76562 -3.4688,0.98438 -1.1562,0.22656 -2.3125,0.34375 -3.4688,0.34375 -2.7734,0 -4.9297,-0.70312 -6.4688,-2.1094 -1.5312,-1.4062 -2.2969,-3.3789 -2.2969,-5.9219 0,-2.5 0.75391,-4.4609 2.2656,-5.8906 1.5078,-1.4375 3.582,-2.1562 6.2188,-2.1562 2.4062,0 4.332,0.73047 5.7812,2.1875 1.4453,1.4492 2.1719,3.3828 2.1719,5.7969 z m -5.0312,-1.625 c 0,-0.92578 -0.27344,-1.6719 -0.8125,-2.2344 -0.54297,-0.57031 -1.25,-0.85938 -2.125,-0.85938 -0.94922,0 -1.7188,0.26562 -2.3125,0.79688 -0.5937,0.53126 -0.96484,1.2969 -1.1094,2.2969 z"
         id="path8" /></symbol><symbol
       id="f"
       overflow="visible"><path
         d="m 9.2188,-6.8906 c -1.0234,0 -1.793,0.17188 -2.3125,0.51562 -0.51172,0.34375 -0.76562,0.85547 -0.76562,1.5312 0,0.625 0.20703,1.1172 0.625,1.4688 0.41406,0.34375 0.98828,0.51562 1.7188,0.51562 0.92578,0 1.7031,-0.32812 2.3281,-0.98438 0.63281,-0.66406 0.95312,-1.4922 0.95312,-2.4844 v -0.5625 z m 7.4688,-1.8438 V 0 h -4.9219 v -2.2656 c -0.65625,0.92969 -1.3984,1.6055 -2.2188,2.0312 -0.82422,0.41406 -1.8242,0.625 -3,0.625 -1.5859,0 -2.8711,-0.45703 -3.8594,-1.375 -0.99219,-0.92578 -1.4844,-2.1289 -1.4844,-3.6094 0,-1.7891 0.61328,-3.1016 1.8438,-3.9375 1.2383,-0.84375 3.1797,-1.2656 5.8281,-1.2656 h 2.8906 v -0.39062 c 0,-0.76953 -0.30859,-1.332 -0.92188,-1.6875 -0.61719,-0.36328 -1.5703,-0.54688 -2.8594,-0.54688 -1.0547,0 -2.0312,0.10547 -2.9375,0.3125 -0.89844,0.21094 -1.7305,0.52344 -2.5,0.9375 v -3.7344 c 1.0391,-0.25 2.0859,-0.44141 3.1406,-0.57812 1.0625,-0.13281 2.125,-0.20312 3.1875,-0.20312 2.7578,0 4.75,0.54688 5.9688,1.6406 1.2266,1.0859 1.8438,2.8555 1.8438,5.3125 z"
         id="path11" /></symbol><symbol
       id="c"
       overflow="visible"><path
         d="m 7.7031,-19.656 v 4.3438 H 12.75 v 3.5 H 7.7031 v 6.5 c 0,0.71094 0.14062,1.1875 0.42188,1.4375 0.28126,0.25 0.83594,0.375 1.6719,0.375 h 2.5156 v 3.5 h -4.1875 c -1.9375,0 -3.3125,-0.39844 -4.125,-1.2031 -0.80469,-0.8125 -1.2031,-2.1797 -1.2031,-4.1094 v -6.5 h -2.4219 v -3.5 h 2.4219 v -4.3438 z"
         id="path14" /></symbol><symbol
       id="j"
       overflow="visible"><path
         d="m 12.766,-13.078 v -8.2031 h 4.9219 V -1e-4 H 12.766 v -2.2188 c -0.66797,0.90625 -1.4062,1.5703 -2.2188,1.9844 -0.8126,0.4141 -1.7578,0.625 -2.8281,0.625 -1.8867,0 -3.4336,-0.75 -4.6406,-2.25 -1.2109,-1.5 -1.8125,-3.4258 -1.8125,-5.7812 0,-2.3633 0.60156,-4.2969 1.8125,-5.7969 1.207,-1.5 2.7539,-2.25 4.6406,-2.25 1.0625,0 2,0.21484 2.8125,0.64062 0.82031,0.42969 1.5664,1.0859 2.2344,1.9688 z m -3.2188,9.9219 c 1.0391,0 1.8359,-0.37891 2.3906,-1.1406 0.55078,-0.76953 0.82812,-1.8828 0.82812,-3.3438 0,-1.457 -0.27734,-2.5664 -0.82812,-3.3281 -0.55469,-0.76953 -1.3516,-1.1562 -2.3906,-1.1562 -1.043,0 -1.8398,0.38672 -2.3906,1.1562 -0.55469,0.76172 -0.82812,1.8711 -0.82812,3.3281 0,1.4609 0.27344,2.5742 0.82812,3.3438 0.55078,0.76172 1.3477,1.1406 2.3906,1.1406 z"
         id="path17" /></symbol><symbol
       id="i"
       overflow="visible"><path
         d="m 10.5,-3.1562 c 1.0508,0 1.8516,-0.37891 2.4062,-1.1406 0.55078,-0.76953 0.82812,-1.8828 0.82812,-3.3438 0,-1.457 -0.27734,-2.5664 -0.82812,-3.3281 -0.55469,-0.76953 -1.3555,-1.1562 -2.4062,-1.1562 -1.0547,0 -1.8594,0.38672 -2.4219,1.1562 -0.55469,0.77344 -0.82812,1.8828 -0.82812,3.3281 0,1.4492 0.27344,2.5586 0.82812,3.3281 0.5625,0.77344 1.3672,1.1562 2.4219,1.1562 z m -3.25,-9.9219 c 0.67578,-0.88281 1.4219,-1.5391 2.2344,-1.9688 0.82031,-0.42578 1.7656,-0.64062 2.8281,-0.64062 1.8945,0 3.4453,0.75 4.6562,2.25 1.207,1.5 1.8125,3.4336 1.8125,5.7969 0,2.3555 -0.60547,4.2812 -1.8125,5.7812 -1.2109,1.5 -2.7617,2.25 -4.6562,2.25 -1.0625,0 -2.0078,-0.21094 -2.8281,-0.625 C 8.6719,-0.6602 7.9258,-1.32032 7.25,-2.21882 V -2e-5 H 2.3594 v -21.281 H 7.25 Z"
         id="path20" /></symbol><symbol
       id="e"
       overflow="visible"><path
         d="m 0.34375,-15.312 h 4.8906 l 4.125,10.391 3.5,-10.391 h 4.8906 l -6.4375,16.766 c -0.64844,1.6953 -1.4023,2.8828 -2.2656,3.5625 -0.86719,0.6875 -2,1.0312 -3.4062,1.0312 H 2.79685 V 2.8289 h 1.5312 c 0.83203,0 1.4375,-0.13672 1.8125,-0.40625 C 6.52336,2.16093 6.82024,1.69218 7.03117,1.01645 L 7.17179,0.59457 Z"
         id="path23" /></symbol><symbol
       id="h"
       overflow="visible"><path
         d="m 16.781,-19.766 v 4.3125 c -1.125,-0.5 -2.2266,-0.875 -3.2969,-1.125 -1.0625,-0.25781 -2.0703,-0.39062 -3.0156,-0.39062 -1.25,0 -2.1797,0.17969 -2.7812,0.53125 -0.60547,0.34375 -0.90625,0.88281 -0.90625,1.6094 0,0.54297 0.20312,0.96875 0.60938,1.2812 0.40625,0.30469 1.1406,0.5625 2.2031,0.78125 l 2.25,0.45312 c 2.2695,0.44922 3.8789,1.1406 4.8281,2.0781 0.95703,0.92969 1.4375,2.2461 1.4375,3.9531 0,2.25 -0.66797,3.9297 -2,5.0312 -1.3359,1.0938 -3.3711,1.6406 -6.1094,1.6406 -1.3047,0 -2.6055,-0.125 -3.9062,-0.375 -1.3047,-0.23828 -2.6055,-0.59766 -3.9062,-1.0781 v -4.4531 c 1.3008,0.69922 2.5625,1.2266 3.7812,1.5781 1.2188,0.34375 2.3906,0.51562 3.5156,0.51562 1.1562,0 2.0352,-0.1875 2.6406,-0.5625 0.61328,-0.38281 0.92188,-0.9375 0.92188,-1.6562 0,-0.63281 -0.21094,-1.125 -0.625,-1.4688 -0.41797,-0.34375 -1.2461,-0.65625 -2.4844,-0.9375 l -2.0312,-0.4375 c -2.043,-0.4375 -3.5391,-1.1328 -4.4844,-2.0938 -0.9375,-0.95703 -1.4062,-2.25 -1.4062,-3.875 0,-2.0312 0.65625,-3.5938 1.9688,-4.6875 1.31255,-1.0937 3.1953,-1.6406 5.6562,-1.6406 1.125,0 2.2734,0.08594 3.4531,0.25 1.1875,0.16797 2.4141,0.42188 3.6875,0.76562 z"
         id="path26" /></symbol><symbol
       id="b"
       overflow="visible"><path
         d="m 9.6406,-12.188 c -1.0859,0 -1.9141,0.39062 -2.4844,1.1719 -0.57422,0.78125 -0.85938,1.9062 -0.85938,3.375 0,1.4688 0.28516,2.5938 0.85938,3.375 0.57031,0.77344 1.3984,1.1562 2.4844,1.1562 1.0625,0 1.875,-0.38281 2.4375,-1.1562 0.57031,-0.78125 0.85938,-1.9062 0.85938,-3.375 0,-1.4688 -0.28906,-2.5938 -0.85938,-3.375 -0.5625,-0.78125 -1.375,-1.1719 -2.4375,-1.1719 z m 0,-3.5 c 2.6328,0 4.6914,0.71484 6.1719,2.1406 1.4766,1.418 2.2188,3.3867 2.2188,5.9062 0,2.5117 -0.74219,4.4805 -2.2188,5.9062 C 14.332,-0.317 12.2734,0.39 9.6406,0.39 6.9922,0.39 4.9258,-0.31703 3.4375,-1.735 1.9453,-3.1608 1.2031,-5.1295 1.2031,-7.6412 c 0,-2.5195 0.74219,-4.4883 2.2344,-5.9062 1.4883,-1.4258 3.5547,-2.1406 6.2031,-2.1406 z"
         id="path29" /></symbol><symbol
       id="t"
       overflow="visible"><path
         d="m 20.922,-1.5156 c -1.3125,0.63672 -2.6797,1.1172 -4.0938,1.4375 -1.4062,0.3125 -2.8672,0.46875 -4.375,0.46875 -3.3984,0 -6.0898,-0.94531 -8.0781,-2.8438 -1.9922,-1.9062 -2.9844,-4.4844 -2.9844,-7.7344 0,-3.2891 1.0078,-5.8789 3.0312,-7.7656 2.0312,-1.8828 4.8047,-2.8281 8.3281,-2.8281 1.3516,0 2.6484,0.13281 3.8906,0.39062 1.25,0.25 2.4258,0.625 3.5312,1.125 v 4.2188 c -1.1484,-0.64453 -2.2812,-1.125 -3.4062,-1.4375 -1.125,-0.32031 -2.25,-0.48438 -3.375,-0.48438 -2.1055,0 -3.7266,0.58984 -4.8594,1.7656 -1.125,1.168 -1.6875,2.8398 -1.6875,5.0156 0,2.1562 0.54688,3.8242 1.6406,5 1.0938,1.1797 2.6445,1.7656 4.6562,1.7656 0.53906,0 1.0469,-0.03125 1.5156,-0.09375 0.47656,-0.070313 0.89844,-0.17969 1.2656,-0.32812 v -3.9688 h -3.2031 v -3.5156 h 8.2031 z"
         id="path32" /></symbol><symbol
       id="s"
       overflow="visible"><path
         d="M 2.3594,-21.281 H 7.25 V 0 H 2.3594 Z"
         id="path35" /></symbol><symbol
       id="g"
       overflow="visible"><path
         d="m 16.547,-12.766 c 0.61328,-0.94531 1.3477,-1.6719 2.2031,-2.1719 0.85156,-0.5 1.7891,-0.75 2.8125,-0.75 1.7578,0 3.0977,0.54688 4.0156,1.6406 0.92578,1.0859 1.3906,2.6562 1.3906,4.7188 V -4e-4 h -4.9219 v -7.9844 -0.35938 c 0.0078,-0.13281 0.01563,-0.32031 0.01563,-0.5625 0,-1.082 -0.16406,-1.8633 -0.48438,-2.3438 -0.3125,-0.48828 -0.82422,-0.73438 -1.5312,-0.73438 -0.92969,0 -1.6484,0.38672 -2.1562,1.1562 -0.51172,0.76172 -0.77344,1.8672 -0.78125,3.3125 v 7.5156 h -4.9219 v -7.9844 c 0,-1.6953 -0.14844,-2.7852 -0.4375,-3.2656 -0.29297,-0.48828 -0.8125,-0.73438 -1.5625,-0.73438 -0.9375,0 -1.6641,0.38672 -2.1719,1.1562 -0.51172,0.76172 -0.76562,1.8594 -0.76562,3.2969 v 7.5312 h -4.9219 v -15.312 h 4.9219 v 2.2344 c 0.60156,-0.86328 1.2891,-1.5156 2.0625,-1.9531 0.78125,-0.4375 1.6406,-0.65625 2.5781,-0.65625 1.0625,0 2,0.25781 2.8125,0.76562 0.8125,0.51172 1.4258,1.2305 1.8438,2.1562 z"
         id="path38" /></symbol><symbol
       id="r"
       overflow="visible"><path
         d="m 12.422,-21.281 v 3.2188 H 9.7189 c -0.6875,0 -1.1719,0.125 -1.4531,0.375 -0.27344,0.25 -0.40625,0.6875 -0.40625,1.3125 v 1.0625 h 4.1875 v 3.5 H 7.85955 V -2e-4 h -4.8906 v -11.812 h -2.4375 v -3.5 h 2.4375 v -1.0625 c 0,-1.6641 0.46094,-2.8984 1.3906,-3.7031 0.92578,-0.80078 2.3672,-1.2031 4.3281,-1.2031 z"
         id="path41" /></symbol><symbol
       id="q"
       overflow="visible"><path
         d="M 17.75,-9.3281 V 0 h -4.9219 v -7.1094 c 0,-1.3438 -0.03125,-2.2656 -0.09375,-2.7656 -0.0625,-0.5 -0.16797,-0.86719 -0.3125,-1.1094 -0.1875,-0.3125 -0.44922,-0.55469 -0.78125,-0.73438 -0.32422,-0.17578 -0.69531,-0.26562 -1.1094,-0.26562 -1.0234,0 -1.8242,0.39844 -2.4062,1.1875 -0.58594,0.78125 -0.875,1.8711 -0.875,3.2656 V -1e-4 H 2.3594 v -21.281 H 7.25 v 8.2031 c 0.73828,-0.88281 1.5195,-1.5391 2.3438,-1.9688 0.83203,-0.42578 1.75,-0.64062 2.75,-0.64062 1.7695,0 3.1133,0.54688 4.0312,1.6406 0.91406,1.0859 1.375,2.6562 1.375,4.7188 z"
         id="path44" /></symbol><symbol
       id="p"
       overflow="visible"><path
         d="m 2.5781,-20.406 h 5.875 l 7.4219,14 v -14 h 4.9844 V 0 h -5.875 L 7.5625,-14 V 0 H 2.5781 Z"
         id="path47" /></symbol><symbol
       id="o"
       overflow="visible"><path
         d="m 2.1875,-5.9688 v -9.3438 h 4.9219 v 1.5312 c 0,0.83594 -0.00781,1.875 -0.015625,3.125 -0.011719,1.25 -0.015625,2.0859 -0.015625,2.5 0,1.2422 0.03125,2.1328 0.09375,2.6719 0.070313,0.54297 0.17969,0.93359 0.32812,1.1719 0.20703,0.32422 0.47266,0.57422 0.79688,0.75 0.32031,0.16797 0.69141,0.25 1.1094,0.25 1.0195,0 1.8203,-0.39062 2.4062,-1.1719 0.58203,-0.78125 0.875,-1.8672 0.875,-3.2656 v -7.5625 h 4.8906 V -6e-4 H 12.6875 V -2.2194 C 11.94531,-1.32096 11.1641,-0.6608 10.3437,-0.235 9.51948,0.17906 8.6093,0.39 7.6093,0.39 5.8476,0.39 4.5038,-0.14906 3.5781,-1.235 2.64841,-2.317 2.1875,-3.8952 2.1875,-5.9694 Z"
         id="path50" /></symbol><symbol
       id="n"
       overflow="visible"><path
         d="M 17.75,-9.3281 V 0 h -4.9219 v -7.1406 c 0,-1.3203 -0.03125,-2.2344 -0.09375,-2.7344 -0.0625,-0.5 -0.16797,-0.86719 -0.3125,-1.1094 -0.1875,-0.3125 -0.44922,-0.55469 -0.78125,-0.73438 -0.32422,-0.17578 -0.69531,-0.26562 -1.1094,-0.26562 -1.0234,0 -1.8242,0.39844 -2.4062,1.1875 -0.58594,0.78125 -0.875,1.8711 -0.875,3.2656 V -1e-4 H 2.3594 v -15.312 H 7.25 v 2.2344 c 0.73828,-0.88281 1.5195,-1.5391 2.3438,-1.9688 0.83203,-0.42578 1.75,-0.64062 2.75,-0.64062 1.7695,0 3.1133,0.54688 4.0312,1.6406 0.91406,1.0859 1.375,2.6562 1.375,4.7188 z"
         id="path53" /></symbol><symbol
       id="m"
       overflow="visible"><path
         d="m 2.5781,-20.406 h 8.7344 c 2.5938,0 4.582,0.57812 5.9688,1.7344 1.3945,1.1484 2.0938,2.7891 2.0938,4.9219 0,2.1367 -0.69922,3.7812 -2.0938,4.9375 -1.3867,1.1562 -3.375,1.7344 -5.9688,1.7344 H 7.8281 V 3e-4 h -5.25 z m 5.25,3.8125 v 5.7031 H 10.75 c 1.0195,0 1.8047,-0.25 2.3594,-0.75 0.5625,-0.5 0.84375,-1.2031 0.84375,-2.1094 0,-0.91406 -0.28125,-1.6172 -0.84375,-2.1094 -0.55469,-0.48828 -1.3398,-0.73438 -2.3594,-0.73438 z"
         id="path56" /></symbol><symbol
       id="l"
       overflow="visible"><path
         d="M 2.3594,-15.312 H 7.25 v 15.031 c 0,2.0508 -0.49609,3.6172 -1.4844,4.7031 -0.98047,1.082 -2.4062,1.625 -4.2812,1.625 H -0.9375 V 2.8283 h 0.85938 c 0.92578,0 1.5625,-0.21094 1.9062,-0.625 0.35156,-0.41797 0.53125,-1.2461 0.53125,-2.4844 z m 0,-5.9688 H 7.25 v 4 H 2.3594 Z"
         id="path59" /></symbol><symbol
       id="k"
       overflow="visible"><path
         d="m 14.719,-14.828 v 3.9844 c -0.65625,-0.45703 -1.3242,-0.79688 -2,-1.0156 -0.66797,-0.21875 -1.3594,-0.32812 -2.0781,-0.32812 -1.3672,0 -2.4336,0.40234 -3.2031,1.2031 -0.76172,0.79297 -1.1406,1.9062 -1.1406,3.3438 0,1.4297 0.37891,2.543 1.1406,3.3438 0.76953,0.79297 1.8359,1.1875 3.2031,1.1875 0.75781,0 1.4844,-0.10938 2.1719,-0.32812 0.6875,-0.22656 1.3203,-0.56641 1.9062,-1.0156 v 4 c -0.76172,0.28125 -1.5391,0.48828 -2.3281,0.625 -0.78125,0.14453 -1.5742,0.21875 -2.375,0.21875 -2.7617,0 -4.9219,-0.70703 -6.4844,-2.125 -1.5547,-1.4141 -2.3281,-3.3828 -2.3281,-5.9062 0,-2.5312 0.77344,-4.5039 2.3281,-5.9219 1.5625,-1.4141 3.7227,-2.125 6.4844,-2.125 0.80078,0 1.5938,0.07422 2.375,0.21875 0.78125,0.13672 1.5547,0.35156 2.3281,0.64062 z"
         id="path62" /></symbol></defs><g
     id="g149"
     transform="translate(-283.14565,-220.92695)"><path
       id="path1364"
       style="fill:#000000;fill-opacity:1;stroke-width:0.948212"
       d="m 359.37515,224.97776 -1.12569,1.03701 c -0.61888,0.57041 -3.01587,2.74797 -5.32666,4.83891 -1.75298,1.58622 -3.60411,3.42233 -5.43966,5.37386 -1.83554,1.95152 -3.65487,4.01837 -5.34667,6.06185 -1.69182,2.04348 -3.25539,4.06388 -4.57715,5.92598 -1.32178,1.86211 -2.40276,3.56597 -3.1282,4.97336 -0.48873,0.94814 -0.91712,1.93292 -1.28589,2.94798 -0.36877,1.01504 -0.67673,2.06008 -0.92544,3.12819 -0.24872,1.06812 -0.43787,2.15961 -0.56643,3.26693 -0.12857,1.10734 -0.19767,2.23008 -0.20597,3.36278 -0.0166,2.2654 0.20724,4.56759 0.67227,6.85142 0.23252,1.14192 0.52517,2.27993 0.87824,3.40568 0.35308,1.12575 0.76782,2.23985 1.24155,3.3356 0.70845,1.63861 1.45137,3.15282 2.31432,4.65869 0.86294,1.50585 1.84471,3.00291 3.03236,4.60575 1.18765,1.60282 2.58132,3.31129 4.2639,5.24083 1.68257,1.92955 3.65408,4.08082 6.00179,6.56678 1.59314,1.68695 2.92034,3.15629 4.01502,4.45986 1.09468,1.30358 1.95703,2.44046 2.62041,3.46433 0.66339,1.02386 1.12823,1.93423 1.42751,2.78205 0.29926,0.84781 0.43394,1.6333 0.43626,2.40872 0.002,0.85528 -0.14108,1.68669 -0.42626,2.49169 -0.28517,0.805 -0.71265,1.58331 -1.2816,2.33292 -0.56893,0.74961 -1.27809,1.47075 -2.12694,2.15984 -0.84885,0.68907 -1.83737,1.34617 -2.96227,1.9696 -1.14851,0.63648 -1.85477,0.97903 -2.88217,1.16146 -1.02741,0.18243 -2.37543,0.20474 -4.8103,0.20454 -1.45463,-1.2e-4 -2.67299,-0.0323 -3.76185,-0.1273 -1.08886,-0.095 -2.04916,-0.25225 -2.98944,-0.4992 -0.94028,-0.24694 -1.86042,-0.58395 -2.86931,-1.03987 -1.00889,-0.45592 -2.10671,-1.03026 -3.40139,-1.75219 -0.94365,-0.52618 -2.02585,-1.27548 -3.14965,-2.15556 -1.1238,-0.88006 -2.2893,-1.8912 -3.39997,-2.94224 -1.11067,-1.05103 -2.1653,-2.14204 -3.06954,-3.18112 -0.90424,-1.03909 -1.65818,-2.0265 -2.16271,-2.87073 -0.83439,-1.39618 -2.4928,-5.40274 -3.68604,-8.90399 -0.74831,-2.1957 -1.46286,-4.124 -2.17844,-5.84587 -0.71556,-1.72188 -1.43259,-3.23783 -2.18415,-4.61148 -0.75157,-1.37364 -1.53815,-2.60508 -2.39442,-3.75612 -0.85628,-1.15104 -1.78239,-2.22149 -2.81208,-3.27552 -0.82086,-0.84027 -1.61406,-1.58145 -2.3887,-2.22421 -0.77466,-0.64276 -1.5294,-1.18715 -2.27141,-1.63348 -0.74201,-0.44634 -1.47121,-0.79461 -2.19418,-1.04559 -0.72295,-0.25099 -1.44091,-0.40529 -2.15841,-0.462 -0.71749,-0.0567 -1.43566,-0.0163 -2.16127,0.12015 -0.7256,0.1365 -1.45833,0.36939 -2.20561,0.69801 -0.7473,0.32864 -1.50889,0.75333 -2.29144,1.27302 -0.78256,0.51969 -1.58591,1.13406 -2.41731,1.84373 l -2.39871,2.04685 2.03254,0.84105 c 1.37348,0.56807 3.38722,1.6522 5.37528,2.85071 1.98807,1.1985 3.9501,2.51098 5.22368,3.5387 0.60242,0.48611 1.17913,1.03603 1.72644,1.64349 0.54732,0.60746 1.06522,1.27248 1.55051,1.99106 0.97059,1.43715 1.81066,3.08597 2.49169,4.90612 0.48447,1.29485 1.43188,5.28995 2.25854,9.21152 0.82665,3.92157 1.53334,7.77047 1.53334,8.77382 0,0.30923 0.10322,0.61688 0.41766,1.00268 0.31444,0.38579 0.83933,0.84971 1.68354,1.47041 1.68845,1.24138 4.65249,3.11117 9.75219,6.24209 4.45111,2.73275 8.34916,5.01146 11.31985,6.63115 2.97069,1.61969 5.01362,2.5798 5.75148,2.6762 1.30299,0.17021 2.47515,0.42548 3.75326,0.84248 1.27811,0.41699 2.66226,0.99563 4.38834,1.81369 1.96023,0.92903 4.70338,2.1934 6.09619,2.80923 0.69641,0.30792 1.47916,0.75779 2.17844,1.2344 0.69928,0.47661 1.31468,0.97938 1.67925,1.3946 0.37609,0.42835 0.79266,1.07799 1.23726,1.91382 0.44459,0.83584 0.91785,1.85883 1.4089,3.03236 0.98209,2.34708 2.0353,5.29867 3.07098,8.57787 1.03568,3.27917 2.05363,6.88585 2.96656,10.53888 0.91294,3.65302 1.72047,7.35351 2.33435,10.82209 0.3535,1.99739 0.62572,4.54442 0.8153,7.35635 0.18958,2.81192 0.29735,5.88815 0.31897,8.9426 0.0216,3.05444 -0.0427,6.08752 -0.19309,8.81244 -0.15041,2.72492 -0.3873,5.14251 -0.71375,6.96585 -0.61076,3.41128 -1.29943,6.56993 -2.054,9.45038 -0.75456,2.88045 -1.57477,5.48209 -2.45164,7.77543 -0.87687,2.29334 -1.81014,4.27891 -2.78777,5.92884 -0.48881,0.82497 -0.98904,1.56637 -1.49901,2.21992 -0.50996,0.65355 -1.02923,1.21987 -1.55766,1.69498 -0.98264,0.88349 -1.76698,1.55386 -2.67191,2.06973 -0.90494,0.51586 -1.93118,0.87705 -3.39854,1.13999 -1.46735,0.26294 -3.37621,0.42739 -6.04612,0.55212 -2.66992,0.12473 -6.10069,0.20917 -10.61327,0.31039 -7.4883,0.16798 -12.77817,0.31669 -17.21866,0.50205 -4.4405,0.18537 -8.03205,0.40828 -12.12515,0.72376 -1.61526,0.1245 -2.47219,0.2058 -2.89791,0.37762 -0.21285,0.0859 -0.31836,0.19474 -0.35616,0.34186 -0.0378,0.14711 -0.009,0.33234 0.0472,0.57357 0.13075,0.56583 0.4442,2.84755 0.69515,5.06919 0.25095,2.22162 0.98949,8.53023 1.64205,14.01895 0.65257,5.48872 1.41117,11.90408 1.68497,14.25639 1.08065,9.28497 2.42212,20.62381 2.86787,24.236 0.25798,2.09096 1.33045,10.85776 2.38298,19.48293 1.05251,8.62513 2.53696,20.60179 3.29841,26.61326 0.73545,5.80625 1.43918,11.44264 1.64921,13.19506 h 127.61948 c 0.0941,-0.77455 0.0543,-0.86898 0.20169,-1.84946 0.38805,-2.58127 1.04047,-7.25944 1.45038,-10.39585 1.46235,-11.19039 3.60072,-28.10808 4.08368,-32.31467 0.27009,-2.35232 0.68566,-5.7728 0.92401,-7.60236 0.23826,-1.82959 0.54493,-4.39599 0.68085,-5.70284 0.13592,-1.30683 0.56892,-5.04899 0.96263,-8.3161 0.76436,-6.3441 1.4346,-12.12831 3.33274,-28.75166 1.10721,-9.69668 1.59017,-13.73295 2.57893,-21.54549 0.15834,-1.2509 0.22325,-2.01625 0.17308,-2.49741 -0.0502,-0.48116 -0.21551,-0.67843 -0.51636,-0.79384 -0.33946,-0.13029 -6.96721,-0.19561 -15.22617,-0.19597 -8.25896,-3.5e-4 -18.14919,0.0647 -25.00983,0.19453 -2.91304,0.0552 -4.49605,0.0663 -5.67137,-0.0858 -1.17533,-0.15216 -1.94219,-0.46869 -3.22403,-1.06704 -1.29176,-0.60297 -2.46682,-1.34227 -3.53156,-2.22994 -1.06475,-0.88766 -2.02018,-1.92331 -2.87502,-3.11961 -0.85483,-1.1963 -1.60795,-2.55196 -2.26998,-4.08082 -0.66204,-1.52884 -1.23297,-3.23106 -1.71929,-5.11639 -0.38285,-1.48426 -0.83971,-4.2888 -1.3617,-8.33184 -0.52199,-4.04305 -1.10918,-9.32446 -1.75362,-15.7597 -1.28891,-12.87046 -2.8055,-30.35928 -4.48418,-51.79902 -0.2864,-3.65915 -0.68927,-8.36354 -0.89541,-10.45449 -0.15252,-1.54688 -0.2149,-2.52346 -0.16735,-3.16968 0.0476,-0.64624 0.20468,-0.96216 0.48776,-1.18863 0.42787,-0.34237 1.88213,-1.00226 4.36116,-1.97962 2.47904,-0.97735 5.98295,-2.27164 10.51171,-3.88343 3.06416,-1.09052 5.84563,-2.17336 8.3676,-3.26121 2.52198,-1.08783 4.78389,-2.1814 6.81137,-3.29269 2.02748,-1.11128 3.82038,-2.24052 5.40103,-3.40139 1.58065,-1.16086 2.94938,-2.35219 4.13088,-3.58877 1.7864,-1.86966 3.63508,-3.48439 5.52977,-4.83605 0.94734,-0.67581 1.90688,-1.28572 2.87502,-1.82942 0.96814,-0.54371 1.94607,-1.02194 2.93081,-1.43179 0.98474,-0.40985 1.97655,-0.75134 2.97372,-1.02557 0.99717,-0.27425 1.99834,-0.48101 3.00375,-0.61792 1.0054,-0.1369 2.01432,-0.20386 3.02378,-0.20168 1.00945,0.002 2.02018,0.0744 3.0295,0.21742 1.11098,0.15742 2.35798,0.42256 3.63168,0.75666 1.27369,0.33409 2.57414,0.73659 3.78902,1.1686 1.21487,0.43201 2.34529,0.8934 3.27981,1.34454 0.93453,0.45115 1.67283,0.89151 2.10549,1.28303 0.34508,0.31224 0.54496,0.44865 0.6923,0.33757 0.14733,-0.11109 0.24281,-0.46877 0.37761,-1.14286 0.24607,-1.2303 0.35418,-2.46962 0.3347,-3.6746 -0.0195,-1.20499 -0.16711,-2.37531 -0.43196,-3.47147 -0.26487,-1.09616 -0.64709,-2.11711 -1.13714,-3.02092 -0.49005,-0.90381 -1.08718,-1.69069 -1.78223,-2.31861 -0.5587,-0.50477 -1.06112,-0.91059 -1.55909,-1.2344 -0.49797,-0.32382 -0.99256,-0.56614 -1.5362,-0.74379 -0.54366,-0.17765 -1.13655,-0.29134 -1.83229,-0.35759 -0.69574,-0.0662 -1.49454,-0.0848 -2.44878,-0.0744 -1.56748,0.017 -3.3751,0.27505 -5.32809,0.73806 -1.95299,0.463 -4.05054,1.1307 -6.19774,1.96532 -2.14721,0.83462 -4.34374,1.83612 -6.49383,2.96799 -2.15011,1.13188 -4.25464,2.39419 -6.21634,3.74897 -3.12526,2.15833 -5.79837,3.89663 -8.226,5.28804 -2.42762,1.39141 -4.60845,2.43531 -6.74986,3.2083 -1.07069,0.38649 -2.13201,0.70576 -3.2083,0.96549 -1.07629,0.25974 -2.16797,0.46066 -3.30127,0.61219 -2.26659,0.30309 -4.69906,0.40882 -7.50223,0.39049 -2.85809,-0.0188 -4.663,-0.0733 -6.18774,-0.2546 -1.52473,-0.18131 -2.76894,-0.48947 -4.50419,-1.01698 -2.03475,-0.61856 -5.06205,-1.81833 -7.64099,-2.95942 -2.57892,-1.14111 -4.70936,-2.22403 -4.94903,-2.61184 -0.15086,-0.24402 0.21224,-2.06037 0.91257,-4.76595 0.70034,-2.70557 1.73791,-6.29982 2.9351,-10.09834 1.62333,-5.15045 2.90577,-9.32349 3.91632,-12.84748 1.01055,-3.52399 1.74942,-6.39992 2.28571,-8.95834 0.53628,-2.55841 0.86934,-4.7994 1.06991,-7.0531 0.20056,-2.25372 0.2684,-4.52042 0.27177,-7.13034 0.005,-3.72008 -0.0222,-5.89221 -0.17593,-7.5337 -0.1538,-1.6415 -0.43421,-2.7511 -0.9369,-4.34544 -0.49643,-1.57446 -1.03947,-3.07224 -1.63775,-4.50992 -0.59827,-1.43767 -1.25268,-2.81632 -1.97247,-4.15376 -0.71979,-1.33746 -1.50483,-2.63396 -2.36581,-3.90774 -0.86099,-1.27378 -1.79739,-2.52376 -2.81924,-3.77043 l -2.55462,-3.11818 -0.82532,5.45253 c -0.45337,2.99883 -1.01948,5.45253 -1.25872,5.45253 -0.23933,0 -3.83627,-2.55119 -7.99284,-5.66995 z m 8.05578,43.17109 c 0.67191,-0.0455 1.42281,-0.0396 2.14268,0.0101 0.71988,0.0497 1.40832,0.14335 1.95816,0.27319 0.54984,0.12984 0.96103,0.29566 1.12283,0.49062 0.26941,0.32467 0.39359,0.54022 0.35473,0.74522 -0.0389,0.205 -0.24083,0.39844 -0.62506,0.67942 -0.26145,0.19117 -0.72476,0.34081 -1.29162,0.44627 -0.56687,0.10546 -1.23769,0.16779 -1.91382,0.18309 -0.67612,0.0153 -1.35749,-0.0165 -1.94672,-0.0958 -0.58922,-0.0793 -1.087,-0.20645 -1.39317,-0.38478 -0.25893,-0.1508 -0.45535,-0.33012 -0.5893,-0.52065 -0.13396,-0.19052 -0.2041,-0.39188 -0.2117,-0.58645 -0.008,-0.19458 0.0472,-0.382 0.16736,-0.54496 0.12014,-0.16296 0.30569,-0.30197 0.55498,-0.39764 0.40594,-0.15578 0.99874,-0.252 1.67065,-0.29752 z m -16.20453,0.009 c 1.26412,0 2.63752,0.13022 3.05095,0.28894 0.28078,0.10776 0.4775,0.28254 0.59646,0.48918 0.11895,0.20664 0.15891,0.44546 0.12588,0.68085 -0.033,0.23537 -0.13951,0.46686 -0.31469,0.66083 -0.17517,0.19397 -0.41913,0.34955 -0.72662,0.43196 -0.59798,0.16025 -1.70508,0.23722 -2.8221,0.23172 -1.11702,-0.006 -2.24286,-0.0926 -2.87931,-0.25889 -0.2592,-0.0678 -0.45692,-0.2172 -0.59217,-0.40908 -0.13526,-0.19189 -0.20889,-0.42696 -0.21742,-0.66513 -0.009,-0.23817 0.0478,-0.47994 0.16879,-0.68656 0.12098,-0.20661 0.30743,-0.37768 0.5607,-0.47488 0.41343,-0.15865 1.7854,-0.28894 3.04953,-0.28894 z" /></g></svg>
