<svg xmlns="http://www.w3.org/2000/svg" xml:space="preserve" viewBox="0 0 184.34 344.14"><path fill="#ff0" d="M60.009 38.741h35.494v19.453H60.009z" class="eyes"/><path d="m76.23 4.05-1.126 1.037c-.619.57-3.016 2.748-5.326 4.839-1.753 1.586-3.604 3.422-5.44 5.374a129.229 129.229 0 0 0-5.347 6.062 102.618 102.618 0 0 0-4.577 5.926c-1.322 1.862-2.403 3.566-3.128 4.973A25.246 25.246 0 0 0 50 35.209a27.271 27.271 0 0 0-.926 3.128 29.318 29.318 0 0 0-.566 3.267 31.138 31.138 0 0 0-.206 3.363 33.17 33.17 0 0 0 .672 6.851 34.17 34.17 0 0 0 2.12 6.742 45.737 45.737 0 0 0 2.314 4.658 46.511 46.511 0 0 0 3.033 4.606c1.187 1.603 2.581 3.311 4.264 5.24 1.682 1.93 3.654 4.082 6.002 6.568 1.593 1.687 2.92 3.156 4.015 4.46 1.094 1.303 1.957 2.44 2.62 3.464s1.128 1.934 1.427 2.782c.3.848.434 1.633.437 2.409a7.36 7.36 0 0 1-.427 2.491 8.622 8.622 0 0 1-1.281 2.333c-.57.75-1.278 1.471-2.127 2.16a20.331 20.331 0 0 1-2.962 1.97c-1.149.636-1.855.979-2.883 1.161-1.027.183-2.375.205-4.81.205-1.454 0-2.673-.033-3.762-.128s-2.049-.252-2.989-.499-1.86-.584-2.87-1.04-2.106-1.03-3.4-1.752c-.944-.526-2.027-1.275-3.15-2.156a48.903 48.903 0 0 1-3.4-2.942 46.41 46.41 0 0 1-3.07-3.18c-.904-1.04-1.658-2.027-2.163-2.872-.834-1.396-2.492-5.402-3.686-8.904-.748-2.195-1.462-4.124-2.178-5.845a47.728 47.728 0 0 0-2.184-4.612 31.838 31.838 0 0 0-2.395-3.756 31.931 31.931 0 0 0-2.812-3.276 31.4 31.4 0 0 0-2.388-2.224 18.58 18.58 0 0 0-2.272-1.633 11.73 11.73 0 0 0-2.194-1.046 8.634 8.634 0 0 0-2.158-.462 8.154 8.154 0 0 0-2.162.12c-.725.137-1.458.37-2.205.698-.748.329-1.51.754-2.292 1.273a25.368 25.368 0 0 0-2.417 1.844L2.17 62.722l2.033.84c1.373.569 3.387 1.653 5.375 2.852 1.988 1.198 3.95 2.51 5.224 3.538a15.06 15.06 0 0 1 1.726 1.644 18.128 18.128 0 0 1 1.55 1.99c.971 1.438 1.811 3.087 2.492 4.907.485 1.295 1.432 5.29 2.259 9.211.827 3.922 1.533 7.77 1.533 8.774 0 .31.103.617.418 1.003.314.386.84.85 1.683 1.47 1.689 1.242 4.653 3.112 9.753 6.242 4.45 2.733 8.349 5.012 11.32 6.632s5.013 2.58 5.751 2.676c1.303.17 2.475.425 3.753.842 1.279.417 2.663.996 4.389 1.814 1.96.93 4.703 2.193 6.096 2.81.696.307 1.48.757 2.178 1.234s1.315.979 1.68 1.394c.376.429.792 1.078 1.237 1.914a37.02 37.02 0 0 1 1.409 3.032c.982 2.348 2.035 5.3 3.07 8.578a182.03 182.03 0 0 1 2.967 10.54c.913 3.652 1.72 7.353 2.335 10.821.353 1.998.625 4.545.815 7.357.19 2.812.297 5.888.319 8.942.022 3.055-.043 6.088-.193 8.813-.15 2.725-.387 5.142-.714 6.966-.61 3.41-1.3 6.57-2.054 9.45-.754 2.88-1.575 5.482-2.451 7.775s-1.81 4.28-2.788 5.93a21.068 21.068 0 0 1-1.5 2.219c-.51.654-1.028 1.22-1.557 1.695-.983.884-1.767 1.554-2.672 2.07-.905.516-1.931.877-3.398 1.14-1.468.263-3.377.427-6.046.552-2.67.125-6.101.209-10.613.31-7.489.168-12.778.317-17.22.502-4.44.186-8.031.409-12.124.724-1.616.125-2.473.206-2.898.378-.213.086-.319.194-.356.342-.038.147-.01.332.047.573.13.566.444 2.848.695 5.07.25 2.22.99 8.53 1.642 14.018.652 5.489 1.411 11.904 1.685 14.256a5308.93 5308.93 0 0 0 2.868 24.236c.258 2.091 1.33 10.858 2.383 19.483a7304.267 7304.267 0 0 0 3.298 26.613c.736 5.806 1.44 11.443 1.65 13.195h127.62c.093-.774.054-.869.201-1.85.388-2.58 1.04-7.259 1.45-10.395 1.463-11.19 3.601-28.108 4.084-32.315.27-2.353.686-5.773.924-7.603s.545-4.396.681-5.702c.136-1.307.569-5.05.963-8.317.764-6.344 1.434-12.128 3.332-28.752 1.108-9.696 1.59-13.733 2.58-21.545.158-1.25.222-2.016.172-2.497-.05-.481-.215-.678-.516-.794-.34-.13-6.967-.195-15.226-.196-8.259 0-18.149.065-25.01.195-2.913.055-4.496.066-5.671-.086-1.176-.152-1.943-.469-3.224-1.067a16.136 16.136 0 0 1-3.532-2.23 16.565 16.565 0 0 1-2.875-3.12c-.855-1.196-1.608-2.551-2.27-4.08-.662-1.53-1.233-3.231-1.72-5.117-.382-1.484-.84-4.288-1.361-8.331-.522-4.043-1.11-9.325-1.754-15.76-1.289-12.87-2.805-30.36-4.484-51.8-.286-3.659-.69-8.363-.895-10.453-.153-1.547-.215-2.524-.168-3.17.048-.646.205-.962.488-1.189.428-.342 1.882-1.002 4.361-1.98 2.48-.977 5.983-2.271 10.512-3.883a137.454 137.454 0 0 0 8.368-3.261c2.522-1.088 4.784-2.181 6.811-3.293 2.028-1.111 3.82-2.24 5.401-3.401 1.581-1.161 2.95-2.352 4.131-3.589 1.787-1.87 3.635-3.484 5.53-4.836a31.59 31.59 0 0 1 2.875-1.83c.968-.543 1.946-1.021 2.93-1.431s1.977-.751 2.975-1.026a23.041 23.041 0 0 1 3.003-.618 22.043 22.043 0 0 1 6.054.016c1.11.158 2.358.423 3.631.757 1.274.334 2.574.736 3.79 1.168 1.214.432 2.345.894 3.28 1.345.934.451 1.672.891 2.105 1.283.345.312.545.449.692.337.147-.11.243-.468.378-1.142.246-1.23.354-2.47.334-3.675a15.922 15.922 0 0 0-.432-3.472c-.265-1.096-.647-2.117-1.137-3.02s-1.087-1.691-1.782-2.319c-.559-.505-1.061-.91-1.56-1.234a6.439 6.439 0 0 0-1.535-.744 8.394 8.394 0 0 0-1.833-.358c-.695-.066-1.494-.085-2.448-.074-1.568.017-3.375.275-5.328.738-1.953.463-4.051 1.13-6.198 1.965a63.17 63.17 0 0 0-6.494 2.968 61.009 61.009 0 0 0-6.216 3.75c-3.126 2.157-5.799 3.896-8.226 5.287-2.428 1.392-4.609 2.435-6.75 3.208-1.07.387-2.132.706-3.208.966-1.077.26-2.168.46-3.302.612-2.266.303-4.699.409-7.502.39-2.858-.018-4.663-.073-6.188-.254-1.524-.181-2.769-.49-4.504-1.017-2.035-.619-5.062-1.818-7.64-2.96-2.58-1.14-4.71-2.223-4.95-2.611-.15-.244.212-2.06.913-4.766.7-2.706 1.738-6.3 2.935-10.098 1.623-5.15 2.906-9.324 3.916-12.847s1.75-6.4 2.286-8.958c.536-2.559.87-4.8 1.07-7.054.2-2.253.268-4.52.271-7.13.005-3.72-.022-5.892-.175-7.534-.154-1.641-.435-2.75-.937-4.345a53.887 53.887 0 0 0-1.638-4.51 45.243 45.243 0 0 0-4.338-8.062 50.944 50.944 0 0 0-2.82-3.77l-2.554-3.118-.826 5.453c-.453 2.998-1.02 5.452-1.258 5.452-.24 0-3.837-2.551-7.993-5.67zm8.056 43.171c.672-.046 1.423-.04 2.143.01.72.05 1.408.143 1.958.273s.96.296 1.123.49c.269.326.393.541.354.746-.039.205-.24.399-.625.68-.261.19-.725.34-1.291.446-.567.105-1.238.168-1.914.183a12.828 12.828 0 0 1-1.947-.096c-.59-.08-1.087-.206-1.393-.385a1.845 1.845 0 0 1-.59-.52 1.098 1.098 0 0 1-.211-.587.847.847 0 0 1 .167-.545 1.21 1.21 0 0 1 .555-.397c.406-.156.999-.252 1.67-.298zm-16.205.009c1.264 0 2.637.13 3.05.289.282.108.478.282.597.49.12.206.16.445.126.68-.033.235-.14.467-.315.66-.175.195-.419.35-.726.433-.598.16-1.705.237-2.822.231-1.117-.006-2.243-.092-2.88-.258a1.032 1.032 0 0 1-.592-.41 1.236 1.236 0 0 1-.217-.665 1.27 1.27 0 0 1 .169-.686c.12-.207.307-.378.56-.475.414-.159 1.786-.289 3.05-.289z" class="body"/></svg>