<svg xmlns="http://www.w3.org/2000/svg" xml:space="preserve" viewBox="0 0 184.34 344.14"><path d="m76.23 4.05-1.127 1.038c-.619.57-3.016 2.747-5.326 4.838-1.753 1.586-3.604 3.423-5.44 5.375a129.23 129.23 0 0 0-5.347 6.06 102.62 102.62 0 0 0-4.577 5.926c-1.322 1.862-2.403 3.568-3.128 4.975a25.246 25.246 0 0 0-1.286 2.947 27.271 27.271 0 0 0-.925 3.129 29.318 29.318 0 0 0-.567 3.265 31.138 31.138 0 0 0-.205 3.364 33.17 33.17 0 0 0 .672 6.851 34.17 34.17 0 0 0 2.119 6.743 45.737 45.737 0 0 0 2.315 4.658 46.511 46.511 0 0 0 3.033 4.605c1.187 1.603 2.58 3.311 4.263 5.24 1.682 1.93 3.654 4.083 6.002 6.569 1.593 1.687 2.921 3.155 4.016 4.459 1.094 1.303 1.956 2.44 2.62 3.465s1.128 1.933 1.427 2.78c.3.849.432 1.633.435 2.41a7.36 7.36 0 0 1-.425 2.491 8.622 8.622 0 0 1-1.282 2.332c-.57.75-1.278 1.471-2.127 2.16a20.331 20.331 0 0 1-2.963 1.971c-1.149.636-1.854.978-2.882 1.16-1.027.183-2.374.205-4.809.205-1.454 0-2.675-.031-3.764-.126s-2.048-.253-2.988-.5-1.859-.584-2.869-1.04-2.106-1.03-3.4-1.752c-.944-.526-2.028-1.275-3.15-2.156a48.903 48.903 0 0 1-3.401-2.941 46.41 46.41 0 0 1-3.07-3.182c-.905-1.04-1.658-2.026-2.163-2.87-.834-1.397-2.491-5.403-3.685-8.905-.748-2.195-1.462-4.125-2.178-5.846a47.728 47.728 0 0 0-2.185-4.611 31.838 31.838 0 0 0-2.395-3.756 31.931 31.931 0 0 0-2.812-3.275 31.4 31.4 0 0 0-2.387-2.225 18.58 18.58 0 0 0-2.273-1.633 11.73 11.73 0 0 0-2.194-1.047 8.634 8.634 0 0 0-2.158-.46 8.154 8.154 0 0 0-2.162.118c-.725.137-1.458.372-2.205.7a15.25 15.25 0 0 0-2.291 1.271 25.368 25.368 0 0 0-2.418 1.846l-2.399 2.047 2.034.84c1.373.569 3.387 1.652 5.375 2.851 1.988 1.198 3.95 2.51 5.224 3.537a15.06 15.06 0 0 1 1.725 1.645 18.128 18.128 0 0 1 1.55 1.99c.972 1.438 1.812 3.086 2.493 4.906.485 1.295 1.43 5.29 2.258 9.211.827 3.922 1.533 7.771 1.533 8.775 0 .31.103.616.418 1.002.314.386.84.851 1.683 1.471 1.69 1.242 4.654 3.112 9.754 6.242 4.45 2.733 8.348 5.011 11.318 6.631s5.014 2.582 5.752 2.678c1.303.17 2.474.425 3.752.842 1.28.417 2.665.994 4.39 1.812 1.96.93 4.704 2.194 6.097 2.81.696.308 1.48.758 2.177 1.235s1.315.98 1.68 1.395c.376.429.791 1.078 1.236 1.914a37.02 37.02 0 0 1 1.41 3.031c.982 2.348 2.036 5.3 3.07 8.578a182.03 182.03 0 0 1 2.968 10.54A161.837 161.837 0 0 1 82.4 157.48c.353 1.998.626 4.546.816 7.358s.296 5.887.318 8.941a144.45 144.45 0 0 1-.193 8.812c-.15 2.725-.386 5.143-.713 6.967-.61 3.41-1.3 6.57-2.055 9.45-.754 2.88-1.575 5.482-2.45 7.775-.877 2.293-1.81 4.28-2.788 5.93a21.068 21.068 0 0 1-1.5 2.218c-.51.654-1.03 1.22-1.559 1.696-.983.884-1.766 1.554-2.671 2.07s-1.932.878-3.399 1.14c-1.468.264-3.376.426-6.045.551-2.67.125-6.101.21-10.613.31-7.489.169-12.779.318-17.22.503-4.44.186-8.03.41-12.124.724-1.616.125-2.473.205-2.898.377-.213.086-.319.194-.356.342-.038.147-.01.333.047.574.13.566.445 2.847.696 5.069.25 2.22.99 8.531 1.642 14.02a8937.9 8937.9 0 0 1 1.684 14.256 5308.9 5308.9 0 0 0 2.869 24.236c.258 2.09 1.33 10.857 2.383 19.482a7304.3 7304.3 0 0 0 3.297 26.613 2970.44 2970.44 0 0 1 1.65 13.195h127.62c.093-.774.052-.87.2-1.852.387-2.58 1.04-7.258 1.45-10.395 1.463-11.19 3.601-28.107 4.084-32.314.27-2.353.686-5.773.924-7.603s.546-4.395.682-5.701c.136-1.307.569-5.052.963-8.319.764-6.344 1.434-12.128 3.332-28.752 1.108-9.696 1.59-13.733 2.58-21.545.158-1.25.222-2.015.172-2.496s-.215-.679-.516-.795c-.34-.13-6.967-.194-15.227-.195-8.259 0-18.149.065-25.01.195-2.913.055-4.497.066-5.672-.086-1.176-.152-1.943-.47-3.224-1.068a16.136 16.136 0 0 1-3.532-2.229 16.565 16.565 0 0 1-2.875-3.12c-.855-1.197-1.607-2.552-2.27-4.08-.661-1.53-1.233-3.232-1.72-5.118-.382-1.484-.84-4.287-1.361-8.33-.522-4.043-1.11-9.325-1.754-15.76-1.289-12.87-2.805-30.361-4.484-51.801-.286-3.66-.69-8.363-.895-10.453-.153-1.547-.215-2.524-.168-3.17.048-.646.205-.963.488-1.19.428-.342 1.883-1 4.362-1.978 2.48-.977 5.982-2.27 10.512-3.883a137.45 137.45 0 0 0 8.367-3.262c2.522-1.088 4.785-2.18 6.812-3.293 2.028-1.11 3.82-2.239 5.4-3.4s2.95-2.353 4.132-3.59c1.787-1.87 3.634-3.484 5.529-4.836a31.59 31.59 0 0 1 2.875-1.83 28.06 28.06 0 0 1 2.932-1.431c.984-.41 1.976-.75 2.974-1.026a23.041 23.041 0 0 1 3.002-.617 22.043 22.043 0 0 1 6.055.016 32.94 32.94 0 0 1 3.63.755c1.275.334 2.576.736 3.792 1.168a33.96 33.96 0 0 1 3.28 1.346c.933.451 1.672.891 2.105 1.283.345.312.544.45.691.338.147-.11.244-.468.379-1.142.246-1.23.354-2.471.334-3.676a15.922 15.922 0 0 0-.434-3.47c-.265-1.097-.646-2.12-1.136-3.022s-1.087-1.69-1.782-2.319c-.559-.505-1.061-.91-1.56-1.234a6.439 6.439 0 0 0-1.535-.744 8.394 8.394 0 0 0-1.832-.358c-.695-.066-1.496-.085-2.45-.074-1.568.017-3.375.275-5.328.738-1.953.463-4.05 1.13-6.197 1.965a63.17 63.17 0 0 0-6.494 2.969 61.009 61.009 0 0 0-6.217 3.75c-3.126 2.157-5.797 3.896-8.224 5.287-2.428 1.392-4.61 2.434-6.75 3.207a30.38 30.38 0 0 1-3.21.967c-1.076.26-2.166.46-3.3.611-2.266.303-4.7.41-7.502.39-2.858-.017-4.665-.072-6.19-.253-1.524-.181-2.769-.49-4.504-1.018-2.035-.619-5.06-1.819-7.638-2.96-2.58-1.14-4.711-2.222-4.951-2.61-.15-.244.213-2.062.914-4.768.7-2.706 1.736-6.3 2.933-10.098 1.623-5.15 2.906-9.322 3.916-12.846 1.01-3.523 1.751-6.4 2.287-8.959.536-2.559.87-4.8 1.07-7.054.2-2.253.267-4.52.27-7.13.005-3.72-.02-5.892-.174-7.534-.154-1.641-.435-2.75-.937-4.344a53.887 53.887 0 0 0-1.639-4.51 45.243 45.243 0 0 0-4.338-8.062 50.944 50.944 0 0 0-2.818-3.77l-2.555-3.12-.826 5.454c-.453 2.998-1.02 5.453-1.258 5.453-.24 0-3.838-2.55-7.994-5.67l-7.557-5.67z" class="body"/><path fill="#ff0" d="M84.281 47.224c-.671.046-1.264.143-1.67.299a1.21 1.21 0 0 0-.555.396.847.847 0 0 0-.168.545 1.098 1.098 0 0 0 .211.588 1.845 1.845 0 0 0 .59.52c.306.179.805.304 1.395.384a12.828 12.828 0 0 0 1.945.096 12.326 12.326 0 0 0 1.914-.183c.566-.106 1.03-.256 1.291-.446.385-.28.586-.474.625-.68.04-.204-.084-.42-.353-.746-.163-.194-.573-.36-1.123-.49s-1.237-.223-1.957-.273-1.473-.056-2.145-.01zm-16.205.01c-1.264 0-2.635.13-3.049.289a1.09 1.09 0 0 0-.56.474 1.27 1.27 0 0 0-.168.686 1.236 1.236 0 0 0 .216.666 1.032 1.032 0 0 0 .592.41c.637.166 1.762.252 2.88.258s2.223-.072 2.821-.232c.307-.083.552-.237.727-.432.175-.193.281-.425.314-.66a1.045 1.045 0 0 0-.125-.68 1.132 1.132 0 0 0-.597-.49c-.413-.16-1.787-.29-3.051-.29z" class="eyes"/></svg>