<svg xmlns="http://www.w3.org/2000/svg" xml:space="preserve" viewBox="0 0 56.519 40"><path fill="currentColor" stroke="currentColor" stroke-width=".884" d="M4.853 1.442v.143C6.33 2.251 7.138 4.155 6.9 6.2L4.281 31.944c-.238 2.665-.998 4.283-2.426 5.044v.143h5.139v-.143c-1.095-.57-2-2.379-1.76-5.044l2.903-27.79 8.374 33.452h.239l8.707-33.404 2.856 28.836c.238 2.189-.81 3.38-1.855 3.95v.143h7.564v-.143c-1.19-.666-1.95-1.761-2.188-3.95L29.17 6.247c-.191-2.094.618-3.997 2.045-4.664v-.142H25.22l-7.184 27.742-6.9-27.742zm31.454 0v.143c1.333.666 2.236 1.856 2.236 4.14v27.122c0 2.047-.76 3.474-2.236 4.14v.144h13.99c1.476 0 2.522.475 3.046 1.427h.142l1.143-8.851-.19-.095c-2.618 3.902-5.092 6.756-8.9 6.756-2.71 0-3.473-1.332-3.473-4.235V5.724c0-2.283.904-3.473 2.236-4.139v-.143z"/></svg>