<?xml version="1.0" encoding="UTF-8"?>
<svg version="1.1" viewBox="0 0 1400 700" xml:space="preserve" xmlns="http://www.w3.org/2000/svg" xmlns:xlink="http://www.w3.org/1999/xlink"><defs>
		
		
	
	

			
			
			
			
		
				
				
				
				
				
				
				
				
				
				
				
				
				
				
				
				
				
				
				
			
					
						<linearGradient id="z" x1="211.19" x2="303.26" y1="285.68" y2="179.84" gradientTransform="matrix(2.3333 0 0 2.3333 112.55 -254.8)" gradientUnits="userSpaceOnUse">
						<stop stop-color="#FBBA14" offset="0"/>
						<stop stop-color="#FFD300" offset="1"/>
					</linearGradient>
					
					
					
						<linearGradient id="aa" x1="217.51" x2="287.37" y1="299.93" y2="178.65" gradientTransform="matrix(2.3328 .05071 -.05071 2.3328 124.67 -267.56)" gradientUnits="userSpaceOnUse">
						<stop stop-color="#FBBA14" offset="0"/>
						<stop stop-color="#FFD300" offset="1"/>
					</linearGradient>
					
					
					
				
					
					
					
					
					
					
					
					
					
					
					
					
					
					
				
					
					
					
					
					
					
					
					
					
					
					
					
					
					
				
					
					
				
					
				
						
						
						
						
						
						
						
						
						
					
						
						
						
						
						
						
						
						
						
						
						
						
						
						
						
						
						
						
						
						
						
						
						
						
						
						
					
						
						
						
						
						
						
					
							
								
						<clipPath id="x"><g transform="rotate(-45)"><use transform="matrix(2.3333 0 0 2.3333 112.55 -254.8)" xlink:href="#SVGID_00000087391496720409789460000010905183187617711251_"/></g></clipPath>
							
								
						<clipPath id="w"><g transform="rotate(-45)"><use transform="matrix(2.3333 0 0 2.3333 112.55 -254.8)" xlink:href="#SVGID_00000087391496720409789460000010905183187617711251_"/></g></clipPath>
							
								
						<clipPath id="v"><g transform="rotate(-45)"><use transform="matrix(2.3333 0 0 2.3333 112.55 -254.8)" xlink:href="#SVGID_00000087391496720409789460000010905183187617711251_"/></g></clipPath>
							
								
						<clipPath id="u"><g transform="rotate(-45)"><use transform="matrix(2.3333 0 0 2.3333 112.55 -254.8)" xlink:href="#SVGID_00000087391496720409789460000010905183187617711251_"/></g></clipPath>
							
								
						<clipPath id="t"><g transform="rotate(-45)"><use transform="matrix(2.3333 0 0 2.3333 112.55 -254.8)" xlink:href="#SVGID_00000087391496720409789460000010905183187617711251_"/></g></clipPath>
							
								<linearGradient id="ac" x1="-698.96" x2="-698.45" y1="-5266.1" y2="-5262.9" gradientTransform="matrix(-2.3196 .25387 .25387 2.3196 719.68 12542)" gradientUnits="userSpaceOnUse">
								<stop stop-color="#C9926A" offset="0"/>
								<stop stop-color="#C9926A" stop-opacity="0" offset="1"/>
							</linearGradient>
							
							
							
						
							
								
						<clipPath id="s"><g transform="rotate(-45)"><use transform="matrix(2.3333 0 0 2.3333 112.55 -254.8)" xlink:href="#SVGID_00000087391496720409789460000010905183187617711251_"/></g></clipPath>
							
						
							
								
						<clipPath id="r"><g transform="rotate(-45)"><use transform="matrix(2.3333 0 0 2.3333 112.55 -254.8)" xlink:href="#SVGID_00000087391496720409789460000010905183187617711251_"/></g></clipPath>
							
								
						<clipPath id="q"><g transform="rotate(-45)"><use transform="matrix(2.3333 0 0 2.3333 112.55 -254.8)" xlink:href="#SVGID_00000087391496720409789460000010905183187617711251_"/></g></clipPath>
							
								
						<clipPath id="p"><g transform="rotate(-45)"><use transform="matrix(2.3333 0 0 2.3333 112.55 -254.8)" xlink:href="#SVGID_00000087391496720409789460000010905183187617711251_"/></g></clipPath>
							
								
						<clipPath id="o"><g transform="rotate(-45)"><use transform="matrix(2.3333 0 0 2.3333 112.55 -254.8)" xlink:href="#SVGID_00000087391496720409789460000010905183187617711251_"/></g></clipPath>
							
								
						<clipPath id="n"><g transform="rotate(-45)"><use transform="matrix(2.3333 0 0 2.3333 112.55 -254.8)" xlink:href="#SVGID_00000087391496720409789460000010905183187617711251_"/></g></clipPath>
							
								
						<clipPath id="m"><g transform="rotate(-45)"><use transform="matrix(2.3333 0 0 2.3333 112.55 -254.8)" xlink:href="#SVGID_00000087391496720409789460000010905183187617711251_"/></g></clipPath>
							
								
						<clipPath id="l"><g transform="rotate(-45)"><use transform="matrix(2.3333 0 0 2.3333 112.55 -254.8)" xlink:href="#SVGID_00000087391496720409789460000010905183187617711251_"/></g></clipPath>
							
								<linearGradient id="y" x1="-434.76" x2="-434.26" y1="-5295" y2="-5291.8" gradientTransform="matrix(-2.3196 .25387 .25387 2.3196 719.68 12542)" gradientUnits="userSpaceOnUse">
								<stop stop-color="#C9926A" offset="0"/>
								<stop stop-color="#C9926A" stop-opacity="0" offset="1"/>
							</linearGradient>
							
							
							
						
							
								
						<clipPath id="k"><g transform="rotate(-45)"><use transform="matrix(2.3333 0 0 2.3333 112.55 -254.8)" xlink:href="#SVGID_00000087391496720409789460000010905183187617711251_"/></g></clipPath>
							
								
						<clipPath id="j"><g transform="rotate(-45)"><use transform="matrix(2.3333 0 0 2.3333 112.55 -254.8)" xlink:href="#SVGID_00000087391496720409789460000010905183187617711251_"/></g></clipPath>
							
								
						<clipPath id="i"><g transform="rotate(-45)"><use transform="matrix(2.3333 0 0 2.3333 112.55 -254.8)" xlink:href="#SVGID_00000087391496720409789460000010905183187617711251_"/></g></clipPath>
							
								
						<clipPath id="h"><g transform="rotate(-45)"><use transform="matrix(2.3333 0 0 2.3333 112.55 -254.8)" xlink:href="#SVGID_00000087391496720409789460000010905183187617711251_"/></g></clipPath>
							
						
							
								
						<clipPath id="g"><g transform="rotate(-45)"><use transform="matrix(2.3333 0 0 2.3333 112.55 -254.8)" xlink:href="#SVGID_00000087391496720409789460000010905183187617711251_"/></g></clipPath>
							
								
						<clipPath id="f"><g transform="rotate(-45)"><use transform="matrix(2.3333 0 0 2.3333 112.55 -254.8)" xlink:href="#SVGID_00000087391496720409789460000010905183187617711251_"/></g></clipPath>
							
								
						<clipPath id="e"><g transform="rotate(-45)"><use transform="matrix(2.3333 0 0 2.3333 112.55 -254.8)" xlink:href="#SVGID_00000087391496720409789460000010905183187617711251_"/></g></clipPath>
							
								
						<clipPath id="d"><g transform="rotate(-45)"><use transform="matrix(2.3333 0 0 2.3333 112.55 -254.8)" xlink:href="#SVGID_00000087391496720409789460000010905183187617711251_"/></g></clipPath>
							
								
						<clipPath id="c"><g transform="rotate(-45)"><use transform="matrix(2.3333 0 0 2.3333 112.55 -254.8)" xlink:href="#SVGID_00000087391496720409789460000010905183187617711251_"/></g></clipPath>
							
								
						<clipPath id="b"><g transform="rotate(-45)"><use transform="matrix(2.3333 0 0 2.3333 112.55 -254.8)" xlink:href="#SVGID_00000087391496720409789460000010905183187617711251_"/></g></clipPath>
							
								
						<clipPath id="ad"><g transform="rotate(-45)"><use transform="matrix(2.3333 0 0 2.3333 112.55 -254.8)" xlink:href="#SVGID_00000087391496720409789460000010905183187617711251_"/></g></clipPath></defs>


							
						
							
						
							
						
							
						
							
						
							
						
							
						
							
						
							
						
							
						
							
						
							
						
							
						
							
						
							
						
							
						
							
						
							
						
							
						
							
						
							
						
							
						
							
						
							
						
<path d="m10.889 700h1378.2c6.0138 0 10.889-3.6563 10.889-8.1667v-683.67c0-4.5103-4.8751-8.1667-10.889-8.1667h-1378.2c-6.0138 0-10.889 3.6563-10.889 8.1667v683.67c0 4.5103 4.8751 8.1667 10.889 8.1667z" fill="#dcdcdc" stroke-width="2.6943"/><ellipse cx="1012.7" cy="521.71" rx="140.44" ry="8.1643" fill="#d5d5d6" stroke-width="2.3333"/><polygon transform="matrix(2.3333 0 0 2.3333 112.55 -254.8)" points="358.16 331.86 358.26 323.78 356.14 323.99 342.22 322.12 341.26 322.47" fill="#155c7d"/><g stroke-width="2.3333"><path d="m1004.5 312.18s-32.289 79.907-35.224 85.127c-2.9353 5.2197-28.049 103.72-28.049 103.72l7.8283 2.282s36.528-90.998 39.79-97.519c3.262-6.5217 55.12-69.797 55.12-69.797z" fill="#1a86b7"/><path d="m936.9 184.08c3.8407 9.0743 11.863 23.287 18.942 33.315 7.0793 10.029 17.939 15.57 21.394 9.604 8.477-14.637-14.072-19.194-28.084-43.384-2.814-4.8603-3.0823-5.9313-7.21-5.7843s-5.0423 6.2487-5.0423 6.2487z" fill="#e5b69e"/><path d="m1018.6 198.76c-9.3566 5.7913-20.162 12.588-43.442 13.701-3.4533 6.1273-4.011 14.035-1.8947 17.488 9.9143 3.0077 30.632-0.66967 36.871-2.562 6.1273-12.364 8.4653-28.628 8.4653-28.628z" fill="#fff"/></g><polygon transform="matrix(2.3333 0 0 2.3333 112.55 -254.8)" points="433.52 329.57 427.95 323.72 425.34 325.3 415.3 333.74 414.86 334.66" fill="#155c7d"/><g stroke-width="2.3333"><path d="m1056 326.08s11.72 67.531 12.278 71.437c0.5577 3.906 1.3954 7.2543 3.6284 12 2.233 4.7437 42.695 92.645 42.695 92.645l-11.44 3.0707s-48.554-78.414-52.74-84.275c-4.186-5.859-42.175-87.878-42.175-87.878l32.13-0.30333z" fill="#009fe3"/><path d="m1046.2 189.32c-15.829-5.4483-36.687 5.2897-40.22 40.999-2.3357 23.613-2.3357 59.827-1.8154 75.395 0.231 6.9533 53.713 15.829 54.749 0.77934 0.707-10.241 1.5563-37.252 2.3356-60.086 1.2997-38.122-4.1066-53.319-15.05-57.087z" fill="#009fe3"/><path d="m1011.9 225.51c1.8083 0.126 1.3463-0.546 3.5793-9.9377 2.9867-12.563 11.128-18.307 16.94-20.897 6.3303-2.821 13.214-3.0707 23.049 3.1687-4.4287-8.7267-11.993-9.4383-15.428-9.793-13.743-1.0453-29.197 9.6927-33.357 36.727 1.4304 0.27066 4.1557 0.66033 5.2174 0.73266z" fill="#fff"/><path d="m1003.7 304.53c-1.176 8.0337-2.0346 27.853 9.7627 34.407 14.558 8.0873 29.906 6.433 40.437-5.054 6.671-7.2777 4.9676-27.398 4.9676-27.398-13.034 4.7063-55.167-1.9553-55.167-1.9553z" fill="#009fe3"/><path d="m1080.4 319.4c-2.9936 2.786-6.5683 6.5683-6.2766 8.904 0.2916 2.3357 3.794 3.941 3.794 3.941s-1.7524 5.6933 2.1886 7.2987 8.3184 2.044 11.384 1.7523c3.066-0.29166 6.2883-2.1817 6.1296-5.838-0.2916-6.7153-1.4606-11.968-3.6493-15.472-2.1887-3.5047-9.338-4.5267-13.571-0.58566z" fill="#e8c0a8"/><path d="m1090.4 254.76c2.695 2.4407 4.879 4.2373 4.6223 9.6297-0.2566 5.3923-3.5956 51.357-3.8523 57.006-5.264 1.2833-8.8597 2.8233-8.988-0.25667-0.1283-3.0823 0.5133-17.204-0.6417-30.429-0.7046-8.0663-4.5826-22.596-1.54-28.247 3.5957-6.6757 10.4-7.7023 10.4-7.7023z" fill="#e8c0a8"/><path d="m1047.4 198.59c-9.079-4.2723-24.192 1.9413-27.081 20.351-2.786 17.752 3.752 33.728 20.587 32.884 16.835-0.84466 16.581-22.521 16.303-32.055-0.2753-9.534-2.3753-17.682-9.8093-21.18z" fill="#f2f2f2"/><path d="m1036.8 202.64c-6.44 4.1277-8.4047 15.017 2.8303 27.274s36.974 42.287 36.974 42.287 14.912-4.6993 17.568-14.299c-9.8047-12.871-27.319-36.65-32.072-42.695-7.0723-8.995-15.694-18.725-25.3-12.567z" fill="#fff"/><ellipse cx="403.58" cy="521.71" rx="140.44" ry="8.1643" fill="#d5d5d6"/></g><polygon transform="matrix(2.3333 0 0 2.3333 112.55 -254.8)" points="92.381 331.86 92.482 323.78 90.363 323.99 76.436 322.12 75.477 322.47" fill="#155c7d"/><polygon transform="matrix(2.3333 0 0 2.3333 112.55 -254.8)" points="167.74 329.57 162.17 323.72 159.37 325.58 149.52 333.74 149.08 334.66" fill="#155c7d"/><g stroke-width="2.3333"><path d="m435.83 326.69s11.72 67.531 12.278 71.437c0.55767 3.906 1.3953 7.2543 3.6283 12 2.233 4.7437 42.695 92.645 42.695 92.645l-11.44 3.0707s-48.554-78.414-52.74-84.275c-4.186-5.8613-32.37-59.159-32.37-59.159l22.325-29.022z" fill="#1a86b7"/><path d="m316.75 184.08c3.8407 9.0743 11.863 23.287 18.942 33.315 7.0793 10.029 17.936 15.57 21.394 9.604 8.477-14.637-14.072-19.194-28.084-43.384-2.814-4.8603-3.0823-5.9313-7.21-5.7843-4.13 0.147-5.0423 6.2487-5.0423 6.2487z" fill="#e5b69e"/><path d="m398.43 198.76c-9.3567 5.7913-20.162 12.588-43.442 13.701-3.4533 6.1273-4.011 14.035-1.8947 17.488 9.9143 3.0077 30.632-0.66967 36.871-2.562 6.1273-12.364 8.4653-28.628 8.4653-28.628z" fill="#fff"/><path d="m426.05 189.32c-15.829-5.4483-36.687 5.2897-40.22 40.999-2.3357 23.613-2.3357 59.827-1.8153 75.395 0.231 6.9533 53.713 15.829 54.749 0.77934 0.707-10.241 1.5563-37.252 2.3357-60.086 1.2997-38.122-4.109-53.319-15.05-57.087z" fill="#009fe3"/><path d="m391.79 225.51c1.8083 0.126 1.3463-0.546 3.5793-9.9377 2.9867-12.563 11.128-18.307 16.94-20.897 6.3303-2.821 13.214-3.0707 23.049 3.1687-4.4287-8.7267-11.993-9.4383-15.428-9.793-13.743-1.0453-29.197 9.6927-33.357 36.727 1.4303 0.27066 4.1557 0.66033 5.2173 0.73266z" fill="#fff"/><path d="m383.6 304.53c-1.176 8.0337-2.0347 27.853 9.7627 34.407 14.558 8.0873 29.906 6.433 40.437-5.054 6.671-7.2777 4.9677-27.398 4.9677-27.398-13.034 4.7063-55.167-1.9553-55.167-1.9553z" fill="#009fe3"/><path d="m384.37 312.18s-32.289 79.907-35.224 85.127c-2.9353 5.2197-28.049 103.72-28.049 103.72l7.8283 2.282s36.528-90.998 39.79-97.519c3.262-6.524 55.12-69.797 55.12-69.797z" fill="#009fe3"/><path d="m460.27 319.4c-2.9937 2.786-6.5683 6.5683-6.2767 8.904 0.29166 2.3357 3.794 3.941 3.794 3.941s-1.7523 5.6933 2.1887 7.2987 8.3207 2.044 11.384 1.7523c3.066-0.29166 6.2883-2.1817 6.1297-5.838-0.29167-6.7153-1.4583-11.968-3.6493-15.472-2.1863-3.5047-9.338-4.5267-13.571-0.58566z" fill="#e8c0a8"/><path d="m470.28 254.76c2.695 2.4407 4.879 4.2373 4.6223 9.6297s-3.5957 51.357-3.8523 57.006c-5.264 1.2833-8.8597 2.8233-8.988-0.25667-0.12833-3.0823 0.51333-17.204-0.64167-30.429-0.70466-8.0663-4.5827-22.596-1.54-28.247 3.5957-6.6757 10.4-7.7023 10.4-7.7023z" fill="#e8c0a8"/><path d="m427.29 198.59c-9.079-4.2723-24.192 1.9413-27.081 20.351-2.786 17.752 3.752 33.728 20.587 32.884 16.835-0.84466 16.581-22.521 16.303-32.055-0.27533-9.534-2.3753-17.682-9.8093-21.18z" fill="#f2f2f2"/><path d="m416.66 202.64c-6.44 4.1277-8.4047 15.017 2.8303 27.274s36.974 42.287 36.974 42.287 14.912-4.6993 17.568-14.299c-9.8047-12.871-27.319-36.65-32.072-42.695-7.0723-8.995-15.694-18.725-25.3-12.567z" fill="#fff"/><ellipse cx="717.78" cy="521.71" rx="175.76" ry="3.8243" fill="#d5d5d6"/><path d="m947.88 181.53c2.2143-1.4187 5.6723-3.8103 4.0763-5.936s-3.899 0.97533-7.0887 2.1257c-2.2167 2.835 0.52967 3.8103 3.0123 3.8103z" fill="#d1a18b"/><path d="m327.73 181.53c2.2143-1.4187 5.6723-3.8103 4.0763-5.936s-3.899 0.97533-7.0887 2.1257c-2.2167 2.835 0.52967 3.8103 3.0123 3.8103z" fill="#d1a18b"/><path d="m1088.6 189.49h-801.69s-1.9507-1.302-1.9507-4.7577 1.9507-4.809 1.9507-4.809h801.69s2.2284 0.40833 2.2284 4.739c0 4.333-2.2284 4.8277-2.2284 4.8277z" fill="#115b4c"/><path d="m399.3 184.64 5.7983 11.121s12.098-2.6717 16.543-6.4983l-6.419-15.15z" fill="#e5b69e"/><path d="m417.75 177.05s-24.451 16.982-31.633 11.172c-1.085-0.87267-4.025-8.75-5.8287-14.49-2.6647-8.4817-4.669-19.668-3.0637-27.288 2.653-12.593 15.976-30.653 28.126-27.176 12.145 3.472 39.839 18.373 12.399 57.783z" fill="#e8c0a8"/><path d="m382.69 156.56c0.0187-0.014 0.028-0.0187 0.0537-0.0373l-0.71867-1.5283c-3.0333 3.8547-6.7223 6.692-10.075 9.6787 7.679 6.622 14.693-0.17733 12.483-8.6543-0.714 0.0607-1.379 0.35233-1.743 0.54133-0.406 0.266-0.34766 0.182 0 0z" fill="#e8c0a8"/><path d="m411.21 159.58c1.435 5.8917 3.598 17.936 8.064 19.717 5.4343-5.5137 11.779-13.662 14.957-20.816 3.0963-6.9627 5.5603-21.364-4.6993-29.706-9.7883-9.3287-15.939-11.235-21.177-11.275-4.2327-0.0327-10.428 1.1317-15.759 2.6413-15.008 4.2467-12.966 19.215-12.966 19.215 3.5863 2.52 13.874-4.6153 16.576-0.392 2.8093 4.3867 2.6413 9.9517 4.9467 14.586 1.9693 3.9573 7.1423 1.0337 10.059 6.0293z" fill="#7f4f22"/><path d="m412.72 156.77c-1.0337 4.0413-5.103 8.4817-7.7583 7.8027s-3.9713-4.5033-2.94-8.5423c1.0337-4.0367 3.717-9.2027 7.1937-8.099 2.611 0.82367 4.536 4.7997 3.5047 8.8387z" fill="#e8c0a8"/><path d="m379.85 148.6c-0.18433 1.813-0.70466 8.3393 4.3867 8.603 5.0913 0.26133 3.367-7.567 3.367-7.567s-5.425-0.87267-7.7537-1.036z" fill="url(#y)"/><path d="m381.01 148.14c5.4763-0.329 9.506 2.247 4.4567 2.2283s-7.315-2.0557-4.4567-2.2283z" fill="#93712c"/></g><path d="m385.84 156.58c-1.5657-2.842-4.711-1.624-4.5197 0.84466" fill="none" stroke="#4b2b19" stroke-miterlimit="10" stroke-width=".88153"/><g stroke-width="2.3333"><path d="m394.5 169.95c0.85866 0.70467 1.008 1.974 0.80966 3.045-0.19366 1.113-0.87266 2.093-1.701 2.8233-0.87266 0.68834-1.8597 1.1923-2.8933 1.5097-0.518 0.154-1.05 0.245-1.5703 0.364l-1.596 0.13067c2.0417-0.55534 4.081-1.1923 5.635-2.499 0.78633-0.62767 1.3697-1.484 1.6403-2.443 0.24267-0.93567 0.329-2.0837-0.32433-2.9307z" fill="#a56052"/><path d="m428.47 128.76c-0.64866-4.3307-6.832-16.977-29.447-16.597-22.615 0.38034-19.131 26.556-33.024 31.488 17.036 3.4207 17.236-0.13534 23.609-3.9993-3.402 6.65-0.18667 5.6513 3.2247-0.889-1.3113 5.313 3.647 11.664 8.3183 14.784 1.883-6.412 16.952-19.196 16.952-19.196s8.6473-1.1457 10.367-5.5907z" fill="#7f4f22"/><path d="m317.61 176.21c-9.863 0.469-14.6-1.3907-14.6 1.946s5.4227 10.43 14.322 9.7347c8.8993-0.69534 9.0393-7.231 8.4817-10.29-0.55533-3.059-2.3637-1.6683-8.204-1.3907z" fill="#e5b69e"/><path d="m1019.5 184.64 5.7984 11.121s12.098-2.6717 16.543-6.4983l-6.419-15.15z" fill="#e5b69e"/><g fill="#4a2d0b"><path d="m1045.9 152.84h-44.035c-5.1544 0-9.3334-4.179-9.3334-9.3333v-11.361h53.368z"/><path d="m1030.1 112.91h-49.576v1.127c0 4.977 4.0367 9.0137 9.0137 9.0137h-6.7597v2.254c0 4.977 4.0367 9.0137 9.0137 9.0137h54.082v-5.6327c0-8.715-7.063-15.776-15.773-15.776z"/><path d="m1047.8 153.93h-4.053v-22.96c0-5.9663 4.837-10.803 10.806-10.803v27.011c0 3.7287-3.024 6.7527-6.7527 6.7527z"/></g><path d="m1037.9 177.05s-24.451 16.982-31.633 11.172c-1.085-0.87267-4.025-8.75-5.8287-14.49-2.6646-8.4817-4.6666-19.668-3.0636-27.288 2.653-12.593 15.976-30.653 28.126-27.176 12.145 3.472 39.839 18.373 12.399 57.783z" fill="#e8c0a8"/><path d="m1002.8 156.56c0.019-0.014 0.028-0.0187 0.054-0.0373l-0.7186-1.5283c-3.0334 3.8547-6.7224 6.692-10.075 9.6787 7.679 6.622 14.693-0.17733 12.483-8.6543-0.7164 0.0607-1.3814 0.35233-1.743 0.54133-0.4084 0.266-0.35 0.182 0 0z" fill="#e8c0a8"/><path d="m1031.4 159.58c1.435 5.8917 3.598 17.936 8.064 19.717 5.4344-5.5137 11.779-13.662 14.957-20.816 3.0963-6.9627 5.5603-21.364-4.6993-29.706-9.7884-9.3287-15.939-11.235-21.177-11.275-4.2326-0.0327-10.428 1.1317-15.759 2.6413-15.008 4.2467-12.966 19.215-12.966 19.215 3.5863 2.52 13.874-4.6153 16.578-0.392 2.8093 4.3867 2.6413 9.9517 4.9467 14.586 1.9693 3.9573 7.14 1.0337 10.057 6.0293z" fill="#4a2d0b"/><path d="m1032.9 156.77c-1.0337 4.0413-5.103 8.4817-7.7583 7.8027-2.6554-0.679-3.9714-4.5033-2.94-8.5423 1.0336-4.0367 3.717-9.2027 7.1936-8.099 2.611 0.82367 4.536 4.7997 3.5047 8.8387z" fill="#e8c0a8"/><path d="m1e3 148.6c-0.18437 1.813-0.7047 8.3393 4.3866 8.603 5.0914 0.26133 3.367-7.567 3.367-7.567s-5.4273-0.87267-7.7536-1.036z" fill="url(#ac)"/><path d="m1001.2 148.14c5.4763-0.329 9.506 2.247 4.4567 2.2283-5.0517-0.0187-7.315-2.0557-4.4567-2.2283z" fill="#93712c"/></g><path d="m1006 156.58c-1.5656-2.842-4.711-1.624-4.5196 0.84466" fill="none" stroke="#4b2b19" stroke-miterlimit="10" stroke-width=".88153"/><g stroke-width="2.3333"><path d="m1014.6 169.95c0.8586 0.70467 1.008 1.974 0.8096 3.045-0.1936 1.113-0.8726 2.093-1.701 2.8233-0.8726 0.68834-1.8596 1.1923-2.8933 1.5097-0.518 0.154-1.05 0.245-1.5703 0.364l-1.596 0.13067c2.0416-0.55534 4.081-1.1923 5.635-2.499 0.7863-0.62767 1.3696-1.484 1.6403-2.4453 0.2427-0.93333 0.329-2.0813-0.3243-2.9283z" fill="#a56052"/><path d="m937.76 176.21c-9.863 0.469-14.6-1.3907-14.6 1.946s5.4227 10.43 14.322 9.7347c8.8993-0.69534 9.0393-7.231 8.4817-10.29-0.55533-3.059-2.3613-1.6683-8.204-1.3907z" fill="#e5b69e"/><path d="m437.89 138.41-74.65-4.0437 0.15166-2.7463 8.7687-2.1257s7.3453-25.69 34.564-23.709c29.645 2.156 31.166 32.625 31.166 32.625z" fill="#fdc300"/><path d="m377.27 116.49 0.602 3.3507s10.183-10.551 27.172-10.551 28.502 14.761 28.502 14.761l0.59033-2.744s-10.752-18.34-29.514-18.34-27.351 13.524-27.351 13.524z" fill="#fe0"/><path d="m1055.9 153.33-62.256-41.393 1.526-2.289 8.6333 2.6203s19.374-18.403 41.816-2.8747c24.444 16.914 10.281 43.937 10.281 43.937z" fill="#fdc300"/><path d="m889.91 415.13h-368.48c-3.5677 0-6.461-2.8933-6.461-6.461v-224.47c0-3.57 2.8933-6.461 6.461-6.461h368.48c3.57 0 6.461 2.8933 6.461 6.461v224.47c2e-3 3.5677-2.891 6.461-6.461 6.461z" fill="url(#z)"/><g fill="#231e1f"><rect transform="rotate(45)" x="506.12" y="-264.43" width="9.3682" height="346.35" clip-path="url(#s)"/><rect transform="rotate(45)" x="523.61" y="-281.91" width="9.3682" height="346.35" clip-path="url(#r)"/><rect transform="rotate(45)" x="541.08" y="-299.39" width="9.3682" height="346.35" clip-path="url(#t)"/><rect transform="rotate(45)" x="558.56" y="-316.87" width="9.3682" height="346.35" clip-path="url(#e)"/><rect transform="rotate(45)" x="576.04" y="-334.35" width="9.3682" height="346.35" clip-path="url(#l)"/><rect transform="rotate(45)" x="593.52" y="-351.83" width="9.3682" height="346.35" clip-path="url(#v)"/><rect transform="rotate(45)" x="611" y="-369.31" width="9.3682" height="346.35" clip-path="url(#g)"/><rect transform="rotate(45)" x="628.48" y="-386.79" width="9.3682" height="346.35" clip-path="url(#d)"/><rect transform="rotate(45)" x="645.96" y="-404.27" width="9.3682" height="346.35" clip-path="url(#n)"/><rect transform="rotate(45)" x="663.44" y="-421.75" width="9.3682" height="346.35" clip-path="url(#b)"/><rect transform="rotate(45)" x="680.92" y="-439.23" width="9.3682" height="346.35" clip-path="url(#x)"/><rect transform="rotate(45)" x="698.4" y="-456.71" width="9.3682" height="346.35" clip-path="url(#j)"/><rect transform="rotate(45)" x="715.88" y="-474.19" width="9.3682" height="346.35" clip-path="url(#q)"/><rect transform="rotate(45)" x="733.36" y="-491.67" width="9.3682" height="346.35" clip-path="url(#k)"/><rect transform="rotate(45)" x="750.84" y="-509.15" width="9.3682" height="346.35" clip-path="url(#w)"/><rect transform="rotate(45)" x="768.31" y="-526.62" width="9.3682" height="346.35" clip-path="url(#c)"/><rect transform="rotate(45)" x="785.8" y="-544.11" width="9.3682" height="346.35" clip-path="url(#m)"/><rect transform="rotate(45)" x="803.28" y="-561.59" width="9.3682" height="346.35" clip-path="url(#u)"/><rect transform="rotate(45)" x="820.75" y="-579.06" width="9.3682" height="346.35" clip-path="url(#ad)"/><rect transform="rotate(45)" x="838.24" y="-596.55" width="9.3682" height="346.35" clip-path="url(#i)"/><rect transform="rotate(45)" x="855.72" y="-614.03" width="9.3682" height="346.35" clip-path="url(#h)"/><rect transform="rotate(45)" x="873.19" y="-631.49" width="9.3682" height="346.35" clip-path="url(#p)"/><rect transform="rotate(45)" x="890.68" y="-648.99" width="9.3682" height="346.35" clip-path="url(#o)"/><rect transform="rotate(45)" x="908.16" y="-666.47" width="9.3682" height="346.35" clip-path="url(#f)"/></g><path d="m871.87 401.39-336.8-7.3214c-3.5668-0.0775-6.3966-3.033-6.3191-6.5999l4.1234-189.69c0.0775-3.5668 3.033-6.3966 6.5999-6.319l336.8 7.3214c3.5692 0.0777 6.3966 3.033 6.3191 6.5999l-4.1234 189.69c-0.0751 3.5669-3.0307 6.3966-6.5976 6.3191z" fill="url(#aa)"/></g><path d="m870.65 394.31h-329.94c-3.5677 0-6.461-2.8933-6.461-6.461v-182.84c0-3.57 2.8933-6.461 6.461-6.461h329.94c3.57 0 6.461 2.8933 6.461 6.461v182.84c0 3.5677-2.8933 6.461-6.461 6.461z" fill="none" stroke="#231e1f" stroke-miterlimit="10" stroke-width="1.2318"/><g stroke-width="2.3333"><path d="m887.78 184.6c0 1.26-1.022 2.282-2.282 2.282s-2.282-1.022-2.282-2.282 1.022-2.282 2.282-2.282c1.26 2e-3 2.282 1.022 2.282 2.282z" fill="#777776"/><path d="m528.05 184.6c0 1.26-1.022 2.282-2.282 2.282s-2.282-1.022-2.282-2.282 1.022-2.282 2.282-2.282c1.26 2e-3 2.282 1.022 2.282 2.282z" fill="#777776"/><path d="m1012.5 103.81-0.9216 3.2783s13.767-5.047 29.052 2.366c15.286 7.4153 19.201 25.72 19.201 25.72l1.729-2.2097s-1.6683-21.194-18.55-29.384c-16.879-8.19-30.511 0.22867-30.511 0.22867z" fill="#fe0"/></g>
<text x="703.5885" y="260.70987" fill="#000000" font-family="'Alegreya Sans'" font-size="82.018px" font-style="italic" stroke-linejoin="bevel" stroke-width="1.2969" text-align="center" text-anchor="middle" xml:space="preserve"><tspan x="703.5885" y="260.70987" dy="10">Work in</tspan><tspan x="703.5885" y="363.89539">Progress</tspan></text></svg>
