<svg xmlns="http://www.w3.org/2000/svg" xml:space="preserve" viewBox="0 0 684.18 432.54"><g fill="#333" transform="translate(-34.487 -41.622)"><path d="M374.76 221.52h30.875v12.497H374.76zM363 177.04h30.875v12.497H363zm-111.74 44.11h30.875v12.497H251.26zm44.84-86.96h30.875v12.497H296.1zm33.82 0h30.875v12.497H329.92zM198.33 313.56h30.875v12.497H198.33zM182.16 329h30.875v12.497H182.16z" opacity=".2"/><path d="M346.09 194.32h30.875v12.497H346.09zm46.31 70.2h30.875v12.497H392.4zm-180.84 19.12h30.875v12.497H211.56zm35.29 0h30.875v12.497H246.85zm2.94-17.65h30.875v12.497H249.79zm131.58-71.67h30.875v12.497H381.37z" opacity=".1"/><path d="M365.85 94.796h30.875v12.497H365.85zm-11.76-44.475h30.875v12.497H354.09z" opacity=".2"/><path d="M337.18 67.597h30.875v12.497H337.18zm35.29 0h30.875v12.497H372.47z" opacity=".1"/><path d="M289.48 327.74h30.875v12.497H289.48z" opacity=".2"/><path d="M272.58 345.02h30.875v12.497H272.58zm35.28 0h30.875v12.497H307.86z" opacity=".1"/><path d="M139.81 172.2h30.875v12.497H139.81z" opacity=".2"/><path d="M122.9 189.48h30.875v12.497H122.9zm35.28 0h30.875v12.497H158.18z" opacity=".1"/><path d="M127.76 265.26h30.875v12.497H127.76z" opacity=".2"/><path d="M264.49 205.5h30.875v12.497H264.49zm-46.31 122.77h30.875v12.497H218.18zm95.56-209.51h30.875v12.497H313.74z" opacity=".1"/><path d="M110.11 223.88h30.875v12.497H110.11z" opacity=".2"/><path d="M127.76 208.44h30.875v12.497H127.76zm78.65-75.14h30.875v12.497H206.41z" opacity=".1"/><path d="M313.74 221.52h30.875v12.497H313.74zm197.28 12.5h-30.875v-12.497h30.875zm11.77-44.48h-30.875v-12.497h30.875zm111.73 44.11h-30.875v-12.497h30.875zm-44.84-86.96h-30.875v-12.497h30.875zm-33.81 0h-30.875v-12.497h30.875z" opacity=".2"/><path d="M539.69 206.82h-30.875v-12.497h30.875zm-46.31 70.2h-30.875v-12.497h30.875zm180.84 19.11h-30.875v-12.497h30.875zm-35.29 0h-30.875v-12.497h30.875zm-2.94-17.64h-30.875v-12.497h30.875zm-131.58-71.67h-30.875v-12.497h30.875z" opacity=".1"/><path d="M263.62 389.96h-30.875v-12.497h30.875z" opacity=".2"/><path d="M280.53 407.24h-30.875v-12.497h30.875zm-35.29 0h-30.875v-12.497h30.875z" opacity=".1"/><path d="M114.16 389.96H83.285v-12.497h30.875z" opacity=".2"/><path d="M131.07 407.24h-30.875v-12.497h30.875zm-35.284 0H64.911v-12.497h30.875z" opacity=".1"/><path d="M596.3 340.24h-30.875v-12.497H596.3z" opacity=".2"/><path d="M613.21 357.52h-30.875v-12.497h30.875zm-35.29 0h-30.875v-12.497h30.875zM621.29 218h-30.875v-12.497h30.875zm46.31 122.76h-30.875v-12.497H667.6zm-150.61 17.57h-30.875v-12.497h30.875zm-35.28 0h-30.875v-12.497h30.875z" opacity=".1"/><path d="M439.07 402.44h-30.875v-12.497h30.875z" opacity=".2"/><path d="M702.84 419.72h-30.875v-12.497h30.875zm0-31.97h-30.875v-12.497h30.875zm15.82 15.55h-30.875v-12.497h30.875zm-35.42 0h-30.875v-12.497h30.875zm-172.86-.34h-30.875v-12.497h30.875z" opacity=".1"/><path d="M519.96 431.91h30.875v12.497H519.96z" opacity=".2"/><path d="M503.05 449.19h30.875v12.497H503.05zm35.29 0h30.875v12.497H538.34z" opacity=".1"/><path d="M622.76 420.89h30.875v12.497H622.76z" opacity=".2"/><path d="M605.85 449.19h30.875v12.497H605.85zm35.29 0h30.875v12.497H641.14zM69.294 461.67h30.875v12.497H69.294zm101.286-16.42h30.875v12.497H170.58zm-57.02-15.55h30.875v12.497H113.56zm-15.821 15.55h30.875v12.497H97.739zm35.421 0h30.875v12.497H133.16zm438.88-314h-30.875v-12.497h30.875zm-16.42-52.695h-30.875V66.058h30.875zM679.37 145.8h-30.875v-12.497h30.875z" opacity=".1"/><path d="M572.04 234.02h-30.875v-12.497h30.875zM196.19 48.45h30.875v12.497H196.19z" opacity=".2"/><path d="M71.448 137h30.875v12.497H71.448zm38.502 10.78h30.875v12.497H109.95zM34.487 160.1h30.875v12.497H34.487zm55.778.56h30.875v12.497H90.265z" opacity=".1"/><path d="M177.3 65.974h30.875v12.497H177.3zM508.06 48.45h30.875v12.497H508.06zm-18.9 17.524h30.875v12.497H489.16z" opacity=".2"/></g><g fill="#333" fill-opacity=".5" transform="translate(-21.994 -2.967)"><path d="M367.17 42.123c-21.211 0-38.605 4.243-52.18 12.727-13.576 8.484-23.618 20.297-30.121 35.424-6.509 15.132-9.758 32.736-9.758 52.814v154c0 19.515 3.396 36.697 10.184 51.545 6.787 14.849 16.968 26.514 30.543 34.998 13.576 8.486 30.684 12.729 51.332 12.729 20.078 0 36.908-4.245 50.484-12.729 13.575-8.484 23.756-20.149 30.545-34.998 6.787-14.848 10.182-32.03 10.182-51.545v-154c0-20.077-3.255-37.681-9.758-52.814-6.51-15.126-16.478-26.94-29.908-35.424-13.436-8.484-30.618-12.727-51.545-12.727zM134.7 46.287a.5.5 0 0 0-.46.307l-89.515 212.12a.487.487 0 0 0-.039.195v51.332a.5.5 0 0 0 .5.5h103.86v79.68a.5.5 0 0 0 .5.5h61.514v-.004a.5.5 0 0 0 .502-.498v-79.68h32.59a.5.5 0 0 0 .5-.5v-50.06a.5.5 0 0 0-.5-.5h-32.59V46.788a.5.5 0 0 0-.5-.5H134.7zm438.83 0a.501.501 0 0 0-.46.307l-89.513 212.12a.524.524 0 0 0-.039.195v51.332a.5.5 0 0 0 .5.5h103.86v79.68a.5.5 0 0 0 .5.5h61.514v-.004a.5.5 0 0 0 .5-.498v-79.68h32.59a.5.5 0 0 0 .5-.5v-50.06a.5.5 0 0 0-.5-.5h-32.59V46.788a.5.5 0 0 0-.5-.5h-76.363zM367.17 99.822c7.914 0 13.575 2.479 16.969 7.424 3.394 4.95 5.582 10.817 6.576 17.605.988 6.788 1.485 13.296 1.485 19.514v151.45c0 5.66-.57 11.81-1.696 18.453-1.134 6.649-3.395 12.376-6.789 17.182-3.394 4.812-8.909 7.213-16.545 7.213-7.358 0-12.873-2.4-16.545-7.213-3.679-4.806-6.084-10.534-7.21-17.182-1.135-6.641-1.698-12.792-1.698-18.453v-151.45c0-6.218.49-12.726 1.484-19.514.988-6.787 3.248-12.653 6.787-17.605 3.533-4.945 9.261-7.424 17.182-7.424zM149.05 117.11v142.57H97.657l51.393-142.57zm438.83 0v142.57h-51.395l51.395-142.57z"/><path d="M367.17 396.85c-20.645 0-38.005-4.308-51.597-12.804-13.597-8.498-23.937-20.346-30.734-35.215-6.786-14.845-10.227-32.256-10.227-51.752v-154c0-20.063 3.296-37.899 9.798-53.014 6.516-15.156 16.715-27.15 30.315-35.649 13.593-8.496 31.238-12.803 52.445-12.803 20.924 0 38.356 4.308 51.811 12.804 13.452 8.499 23.579 20.492 30.1 35.648 6.502 15.13 9.799 32.967 9.799 53.014v154c0 19.494-3.44 36.906-10.227 51.752-6.798 14.869-17.139 26.718-30.735 35.215-13.592 8.496-30.666 12.803-50.748 12.803zm0-354.23c-21.017 0-38.483 4.256-51.915 12.651-13.424 8.39-23.493 20.231-29.926 35.197-6.448 14.989-9.717 32.693-9.717 52.619v154c0 19.351 3.41 36.623 10.136 51.336 6.714 14.689 16.927 26.391 30.355 34.783 13.431 8.395 30.612 12.651 51.067 12.651 19.892 0 36.788-4.257 50.218-12.651 13.428-8.393 23.64-20.095 30.355-34.783 6.727-14.714 10.137-31.985 10.137-51.336v-154c0-19.911-3.27-37.614-9.717-52.619-6.44-14.967-16.439-26.81-29.716-35.198-13.293-8.394-30.545-12.649-51.277-12.649zm0 296.54c-7.491 0-13.191-2.492-16.942-7.408-3.714-4.852-6.172-10.707-7.308-17.401-1.13-6.626-1.704-12.863-1.704-18.538v-151.45c0-6.249.501-12.839 1.49-19.587.994-6.835 3.308-12.832 6.875-17.824 3.619-5.065 9.536-7.634 17.588-7.634 8.054 0 13.902 2.571 17.381 7.642 3.417 4.984 5.657 10.978 6.658 17.816.989 6.794 1.49 13.384 1.49 19.587v151.45c0 5.635-.573 11.872-1.704 18.538-1.142 6.696-3.455 12.546-6.873 17.386-3.471 4.925-9.175 7.423-16.951 7.423zm0-238.84c-7.711 0-13.354 2.427-16.774 7.215-3.474 4.861-5.728 10.711-6.7 17.387-.982 6.701-1.479 13.242-1.479 19.443v151.45c0 5.619.568 11.8 1.689 18.37 1.108 6.533 3.502 12.24 7.116 16.962 3.553 4.655 8.985 7.016 16.148 7.016 7.432 0 12.861-2.355 16.136-7 3.332-4.718 5.587-10.43 6.704-16.978 1.121-6.61 1.689-12.791 1.689-18.37v-151.45c0-6.155-.498-12.696-1.479-19.443-.979-6.685-3.164-12.537-6.494-17.395-3.281-4.782-8.851-7.207-16.556-7.207z"/></g><g transform="translate(-21.994 -2.967)"><g stroke="#263238" stroke-linecap="round" stroke-linejoin="round" stroke-miterlimit="10"><path fill="#c83737" d="m275.16 218.79 3.712 53.509-23.198-10.826-5.877 23.507s49.798 27.837 54.746 26.909c4.949-.928-7.423-109.18-7.423-109.18z"/><path fill="#c83737" d="M308.59 347.88s26.713-9.183 37.148-17.948-44.244-114.78-44.244-114.78.835 97.252 7.096 132.73z"/><path fill="#737373" d="m420.41 313.62-3.088.46c.024.187.039.349.033.456-.234 3.97-21.701 14.539-36.857 20.257-3.314 2.567-7.748 3.862-13.327 3.862-.051 0-.097-.006-.148-.006-11.698 1.126-34.171-4.024-39.252-7.499l-5.479 56.039.002.001c.882.433 1.782.848 2.69 1.256 11.873 5.262 25.928 7.904 42.187 7.904 18.754 0 34.673-3.704 47.754-11.107l.286-.162a71.907 71.907 0 0 0 5.291-3.326c.286-.195.564-.396.847-.594a83.175 83.175 0 0 0 2.841-2.083c.637-.49 1.265-.989 1.884-1.495.251-.205.506-.408.755-.616a77.914 77.914 0 0 0 2.502-2.18l.005-.005c-3.495-24.789-8.926-61.162-8.926-61.162z"/><g fill="#fff"><path d="M300.64 248.55s24.748 60.494 25.053 62.633c.306 2.139-2.444 15.888 1.528 19.554s30.553 9.777 41.857 7.638c11.305-2.139 47.968-18.637 48.273-23.831.306-5.194-36.358-106.63-40.941-118.85s-23.22-16.498-35.747-15.276-42.774 9.166-48.273 16.804 8.25 51.328 8.25 51.328z"/><path d="M302.78 192.33s-3.055 27.803-1.222 33.608 10.172 21.774 10.172 21.774 13.964-17.497 16.714-19.33 28.109 14.36 28.109 14.36.917-17.415-2.75-31.775c-3.666-14.36-10.082-29.942-12.221-32.692s-2.139 7.333-10.082 14.054c-7.944 6.723-28.72.001-28.72.001z"/><path d="M300.53 197.17s3.628 9.235 11.544 20.449 18.8 19.459 18.8 19.459 8.575-22.098 10.884-35.29c2.309-13.193-1.649-26.385-1.649-26.385s-1.649 19.789-8.575 23.747c-6.928 3.957-31.004-1.98-31.004-1.98z"/></g><path fill="#263238" d="M318.64 200.26c-8.734-.776-18.111-3.088-18.111-3.088s3.628 9.235 11.544 20.449a74.258 74.258 0 0 0 2.366 3.148l13.645-15.785z"/><path fill="#c83737" d="M340.11 175.4s10.034 40.147 13.7 70.394 12.527 119.77 12.527 119.77 27.497-7.944 41.857-18.332 18.943-17.415 18.943-17.415-23.526-102.96-23.526-104.49 2.444-16.804 2.444-16.804 41.552-19.554 57.439-31.469c15.887-11.916 11.916-18.332 4.277-21.387-7.638-3.055-31.469.306-44.607 3.972s-19.859 6.111-19.859 6.111-14.665-1.222-28.109 1.833c-13.442 3.056-35.086 7.821-35.086 7.821z"/><path fill="#fff" d="M361.21 278.12a869.64 869.64 0 0 1-1.597 4.949"/><path fill="none" d="m365.92 210.12 4.693 2.987s-1.546 24.342-3.666 39.719c-1.277 9.262-2.395 14.343-4.461 21.198m-4.866-92.894c3.075 5.651 7.494 13.978 7.494 15.173 0 1.833-4.583 10.388-4.583 10.388l2.864 1.823"/><path fill="#fff" d="M354.72 175.86s.487.871 1.249 2.255"/><path fill="none" d="M410.98 310.45c-3.401 2.353-8.547 5.357-15.619 8.066-14.36 5.5-16.804 6.416-16.804 6.416l2.139 7.333s25.053-4.583 36.663-17.721"/><path fill="#fff" d="M416.14 306.29s-.667.699-2.052 1.83"/><path fill="none" d="m411.53 192.3-5.48 16.22 12.83-19.25"/><path fill="#fff" d="m414 185-1.27 3.75"/><path fill="#c83737" d="M302.78 192.33s3.055 55.606 6.416 82.798 8.86 94.408 8.86 94.408-10.694-.917-17.721-9.471c-7.027-8.555-10.388-14.971-10.388-14.971v-60.495c0-2.444-4.888-30.247-9.471-43.996s-11.305-29.636-7.333-36.358 16.498-16.804 21.081-18.026c4.584-1.221 8.25.001 8.556 6.111z"/><path fill="#fff" d="M301.07 262.17c1.727 5.398 3.404 10.192 4.77 13.266"/><path fill="none" d="M290.62 202.92c-.515 3.968-.763 7.04-.366 7.437 1.222 1.222 6.111 5.5 6.111 5.5s-6.111 7.638-5.194 11.61c.602 2.61 4.634 17.751 8.715 30.949"/><path fill="#fff" d="M293.92 182.55s-1.611 8.757-2.752 16.45m6.322 124.8-5.4-2.54"/><path fill="none" d="m292.09 313.01 14.97 6.11v9.17l-6.85-3.21"/><path fill="#d38d5f" d="m279.96 155.57 5.222 12.795s-6.789-7.05-8.356-.783 3.133 13.578 6.267 13.578c3.133 0 6.789.261 6.789.261s10.967 19.322 17.756 22.978 15.928 6.789 21.672 3.656c5.745-3.133 8.878-11.75 10.706-18.278s.522-26.111.522-26.111l-9.4-38.645s6.528-2.35 6.528-6.789-15.145-5.744-15.145-5.744 6.005-7.05-1.567-8.094-32.117 13.578-32.9 14.1 4.178-9.139-2.089-5.744-13.578 20.106-12.795 24.022c.785 3.914 6.79 18.798 6.79 18.798z"/><path d="M322.52 112.48s6.005-7.05-1.567-8.094-32.117 13.578-32.9 14.1 4.178-9.139-2.089-5.744-13.578 20.106-12.795 24.022c.783 3.917 6.789 18.8 6.789 18.8l5.222 12.795s6.006 5.483 3.917 1.306c-2.089-4.178-6.267-13.578-5.222-14.883 1.044-1.306 6.267-3.395 6.528-6.267s-4.961-11.228-3.394-13.317 23.761 1.828 27.678-.522-1.044-8.095-1.044-8.095l17.495-1.567s6.528-2.35 6.528-6.789c-.001-4.439-15.146-5.745-15.146-5.745z"/><path fill="#fff" d="M325.91 176.98s-2.35 4.439-6.006 4.7"/></g><path fill="#263238" d="M309.72 164.97c.729 1.57.418 3.26-.694 3.777-1.112.516-2.604-.338-3.332-1.908-.729-1.57-.418-3.26.694-3.777 1.111-.516 2.603.338 3.332 1.908zm20.81-4.12c.272 1.709-.488 3.251-1.699 3.443-1.21.193-2.412-1.036-2.685-2.745-.272-1.709.488-3.251 1.699-3.443 1.211-.193 2.413 1.036 2.685 2.745z"/><g stroke="#263238" stroke-linecap="round" stroke-linejoin="round" stroke-miterlimit="10"><path fill="#fff" d="M319.91 191.6s4.439 0 7.572-2.35"/><path fill="none" stroke-width="2" d="M296.67 161.57s3.656-5.222 13.578-2.089m12.792-2.871s1.828-6.006 8.878-6.528"/><path fill="#d38d5f" d="M337.66 151.39s1.828-4.178 3.917-1.567 2.872 7.833 1.567 11.228c-1.306 3.395-2.089 6.267-2.089 6.267l-.522-3.656z"/><g fill="#d38d5f"><path d="M385.71 131.02s-28.722-5.222-30.55-5.222-23.239 3.917-26.372 5.222c-3.133 1.306-26.895 8.095-26.372 9.661.522 1.567 3.394 2.089 3.394 2.089s.522 2.35 8.878 3.395c8.356 1.044 27.939-1.567 28.2.261s-1.306 3.394-1.306 3.394l2.35 4.178s8.617-1.306 11.489-3.395 10.967-8.617 10.967-8.617l17.495 1.305z"/><path d="M322 134.68s-11.75 4.961-13.578 6.006c-1.828 1.044 3.394 3.133 6.528 2.611 3.133-.522 15.145-5.222 16.972-5.745 1.828-.522 10.183 1.567 16.189 2.35s10.183-1.044 11.228-1.567"/></g><path fill="#c83737" d="M456.46 172.78s-9.166 2.444-20.165 0-40.024-16.804-40.024-16.804l-19.859-5.805 4.583-23.22s50.107 6.11 64.161 11.304 34.525 17.11 33.914 21.387-11.916 13.443-11.916 13.443"/><path fill="#7d7d7d" d="m262.49 243.26 6.141 2.063-9.675 28.795-6.14-2.063z"/><path fill="#263238" d="m261.86 239.51 9.528 3.201-1.423 4.235-9.528-3.201z"/><path fill="#7d7d7d" d="m276.04 247.81 6.14 2.063-9.675 28.796-6.14-2.064z"/><path fill="#263238" d="m275.41 244.06 9.529 3.202-1.423 4.234-9.528-3.202zm-15.406 5.897 19.902 6.688-7.399 22.02-19.903-6.687z"/><path fill="#7d7d7d" d="m254.32 286.69-18.57-6.24 9.85-16.25 10.68 3.59z"/><path fill="#636363" d="m235.73 280.45 18.568 6.239-6.62 19.704-18.568-6.24zm13.761-36.609 15.944 5.357-6.62 19.704-15.944-5.357z"/><path fill="#7d7d7d" d="m281.42 295.8-18.57-6.24 9.85-16.25 10.69 3.59z"/><path fill="#636363" d="m262.84 289.56 18.567 6.238-6.62 19.704-18.568-6.238zm13.763-36.614 15.944 5.358-6.62 19.704-15.944-5.358z"/><g fill="#d38d5f"><path d="M243.2 242.53s-2.164 3.564-1.527 4.582c.636 1.018 6.873 4.455 7.764 4.709s3.309-1.018 3.182-2.673-4.964-5.218-6.491-6.109c-1.528-.891-2.292-1.018-2.928-.509z"/><path d="M239.78 249.57s-1.043 4.037-.14 4.828 7.866 2.281 8.793 2.268 2.874-1.93 2.275-3.478c-.599-1.547-6.259-3.564-7.978-3.976-1.72-.412-2.488-.313-2.95.358zm-1.91 7s-1.043 4.037-.14 4.828 7.866 2.281 8.793 2.268c.926-.014 2.874-1.93 2.275-3.478s-6.259-3.564-7.978-3.976c-1.72-.412-2.488-.314-2.95.358zm.89 6.74s-1.043 4.037-.14 4.828 7.866 2.281 8.793 2.268c.926-.014 2.874-1.93 2.275-3.478s-6.259-3.564-7.978-3.976c-1.72-.412-2.488-.313-2.95.358z"/></g></g></g></svg>